NewsreaderDisplay-Regular.ufo
<glyph name="exclam" format="2">
	<unicode hex="0021"/>
	<advance width="507"/>
	<outline>
		<contour>
			<point x="393" y="1344" type="line" smooth="yes"/>
			<point x="393" y="1415"/>
			<point x="324" y="1450"/>
			<point x="255" y="1450" type="curve" smooth="yes"/>
			<point x="186" y="1450"/>
			<point x="116" y="1415"/>
			<point x="116" y="1344" type="curve" smooth="yes"/>
			<point x="116" y="1318" type="line" smooth="yes"/>
			<point x="116" y="1257"/>
			<point x="193" y="1008"/>
			<point x="237" y="463" type="curve"/>
			<point x="270" y="463" type="line"/>
			<point x="314" y="1008"/>
			<point x="393" y="1258"/>
			<point x="393" y="1318" type="curve" smooth="yes"/>
		</contour>
		<contour>
			<point x="255" y="259" type="curve" smooth="yes"/>
			<point x="173" y="259"/>
			<point x="114" y="198"/>
			<point x="114" y="120" type="curve" smooth="yes"/>
			<point x="114" y="42"/>
			<point x="173" y="-19"/>
			<point x="255" y="-19" type="curve" smooth="yes"/>
			<point x="337" y="-19"/>
			<point x="396" y="42"/>
			<point x="396" y="120" type="curve" smooth="yes"/>
			<point x="396" y="198"/>
			<point x="337" y="259"/>
		</contour>
	</outline>
</glyph>
<glyph name="ampersand" format="2">
	<unicode hex="0026"/>
	<advance width="1510"/>
	<outline>
		<contour>
			<point x="631" y="827" type="line"/>
			<point x="881" y="946"/>
			<point x="969" y="1050"/>
			<point x="969" y="1190" type="curve" smooth="yes"/>
			<point x="969" y="1331"/>
			<point x="860" y="1450"/>
			<point x="643" y="1450" type="curve" smooth="yes"/>
			<point x="403" y="1450"/>
			<point x="275" y="1310"/>
			<point x="275" y="1131" type="curve" smooth="yes"/>
			<point x="275" y="1027"/>
			<point x="310" y="933"/>
			<point x="446" y="780" type="curve" smooth="yes"/>
			<point x="1136" y="0" type="line"/>
			<point x="1508" y="0" type="line"/>
			<point x="1508" y="27" type="line"/>
			<point x="1315" y="69" type="line"/>
			<point x="596" y="871" type="line" smooth="yes"/>
			<point x="466" y="1016"/>
			<point x="424" y="1102"/>
			<point x="424" y="1207" type="curve" smooth="yes"/>
			<point x="424" y="1329"/>
			<point x="513" y="1406"/>
			<point x="637" y="1406" type="curve" smooth="yes"/>
			<point x="759" y="1406"/>
			<point x="827" y="1326"/>
			<point x="827" y="1184" type="curve" smooth="yes"/>
			<point x="827" y="1060"/>
			<point x="766" y="953"/>
			<point x="599" y="846" type="curve"/>
			<point x="493" y="795" type="line"/>
			<point x="203" y="666"/>
			<point x="112" y="524"/>
			<point x="112" y="342" type="curve" smooth="yes"/>
			<point x="112" y="131"/>
			<point x="256" y="-20"/>
			<point x="531" y="-20" type="curve" smooth="yes"/>
			<point x="735" y="-20"/>
			<point x="900" y="62"/>
			<point x="1029" y="224" type="curve"/>
			<point x="1050" y="251" type="line"/>
			<point x="1144" y="378"/>
			<point x="1226" y="558"/>
			<point x="1288" y="810" type="curve"/>
			<point x="1458" y="845" type="line"/>
			<point x="1458" y="874" type="line"/>
			<point x="1009" y="874" type="line"/>
			<point x="1009" y="845" type="line"/>
			<point x="1180" y="810" type="line"/>
			<point x="1157" y="568"/>
			<point x="1096" y="405"/>
			<point x="1019" y="298" type="curve"/>
			<point x="994" y="265" type="line"/>
			<point x="904" y="159"/>
			<point x="783" y="104"/>
			<point x="638" y="104" type="curve" smooth="yes"/>
			<point x="435" y="104"/>
			<point x="298" y="227"/>
			<point x="298" y="421" type="curve" smooth="yes"/>
			<point x="298" y="563"/>
			<point x="359" y="679"/>
			<point x="519" y="778" type="curve"/>
		</contour>
	</outline>
</glyph>
<glyph name="quotesingle" format="2">
	<unicode hex="0027"/>
	<advance width="368"/>
	<outline>
		<contour>
			<point x="165" y="931" type="line"/>
			<point x="195" y="931" type="line"/>
			<point x="292" y="1393" type="line"/>
			<point x="292" y="1430" type="line"/>
			<point x="81" y="1430" type="line"/>
			<point x="81" y="1393" type="line"/>
		</contour>
	</outline>
</glyph>
<glyph name="parenleft" format="2">
	<unicode hex="0028"/>
	<advance width="550"/>
	<outline>
		<contour>
			<point x="233" y="616" type="curve" smooth="yes"/>
			<point x="233" y="902"/>
			<point x="294" y="1129"/>
			<point x="495" y="1468" type="curve"/>
			<point x="469" y="1484" type="line"/>
			<point x="167" y="1083"/>
			<point x="81" y="902"/>
			<point x="81" y="616" type="curve" smooth="yes"/>
			<point x="81" y="330"/>
			<point x="167" y="148"/>
			<point x="469" y="-253" type="curve"/>
			<point x="495" y="-237" type="line"/>
			<point x="294" y="102"/>
			<point x="233" y="330"/>
		</contour>
	</outline>
</glyph>
<glyph name="parenright" format="2">
	<unicode hex="0029"/>
	<advance width="550"/>
	<outline>
		<contour>
			<point x="317" y="616" type="curve" smooth="yes"/>
			<point x="317" y="330"/>
			<point x="256" y="103"/>
			<point x="55" y="-236" type="curve"/>
			<point x="81" y="-252" type="line"/>
			<point x="383" y="149"/>
			<point x="469" y="330"/>
			<point x="469" y="616" type="curve" smooth="yes"/>
			<point x="469" y="902"/>
			<point x="383" y="1084"/>
			<point x="81" y="1485" type="curve"/>
			<point x="55" y="1469" type="line"/>
			<point x="256" y="1130"/>
			<point x="317" y="902"/>
		</contour>
	</outline>
</glyph>
<glyph name="asterisk" format="2">
	<unicode hex="002A"/>
	<advance width="781"/>
	<outline>
		<contour>
			<point x="526" y="868" type="line"/>
			<point x="462" y="1107" type="line"/>
			<point x="703" y="1161" type="line"/>
			<point x="701" y="1186" type="line"/>
			<point x="455" y="1199" type="line"/>
			<point x="484" y="1446" type="line"/>
			<point x="459" y="1453" type="line"/>
			<point x="366" y="1221" type="line"/>
			<point x="139" y="1323" type="line"/>
			<point x="125" y="1300" type="line"/>
			<point x="317" y="1143" type="line"/>
			<point x="152" y="959" type="line"/>
			<point x="169" y="940" type="line"/>
			<point x="377" y="1072" type="line"/>
			<point x="503" y="859" type="line"/>
		</contour>
	</outline>
</glyph>
<glyph name="plus" format="2">
  <advance width="1150"/>
  <unicode hex="002B"/>
  <outline>
    <contour>
      <point x="542.0" y="923.0" type="line"/>
      <point x="542.0" y="101.0" type="line"/>
      <point x="608.0" y="101.0" type="line"/>
      <point x="608.0" y="923.0" type="line"/>
    </contour>
    <contour>
      <point x="986.0" y="545.0" type="line"/>
      <point x="164.0" y="545.0" type="line"/>
      <point x="164.0" y="479.0" type="line"/>
      <point x="986.0" y="479.0" type="line"/>
    </contour>
  </outline>
</glyph>
<glyph name="comma" format="2">
	<unicode hex="002C"/>
	<advance width="470"/>
	<outline>
		<contour>
			<point x="77" y="-296" type="curve"/>
			<point x="102" y="-321" type="line"/>
			<point x="297" y="-187"/>
			<point x="372" y="-50"/>
			<point x="372" y="85" type="curve" smooth="yes"/>
			<point x="372" y="189"/>
			<point x="313" y="247"/>
			<point x="230" y="247" type="curve" smooth="yes"/>
			<point x="146" y="247"/>
			<point x="92" y="195"/>
			<point x="92" y="117" type="curve" smooth="yes"/>
			<point x="92" y="81"/>
			<point x="235" y="53"/>
			<point x="235" y="-46" type="curve" smooth="yes"/>
			<point x="235" y="-140"/>
			<point x="181" y="-213"/>
		</contour>
	</outline>
</glyph>
<glyph name="hyphen" format="2">
	<unicode hex="002D"/>
	<advance width="655"/>
	<outline>
		<contour>
			<point x="125" y="575" type="line"/>
			<point x="125" y="458" type="line"/>
			<point x="530" y="458" type="line"/>
			<point x="530" y="575" type="line"/>
		</contour>
	</outline>
</glyph>
<glyph name="period" format="2">
  <advance width="466"/>
  <unicode hex="002E"/>
  <outline>
    <contour>
      <point x="233.0" y="259.0" type="curve" smooth="yes"/>
      <point x="151.0" y="259.0"/>
      <point x="92.0" y="198.0"/>
      <point x="92.0" y="120.0" type="curve" smooth="yes"/>
      <point x="92.0" y="42.0"/>
      <point x="151.0" y="-19.0"/>
      <point x="233.0" y="-19.0" type="curve" smooth="yes"/>
      <point x="315.0" y="-19.0"/>
      <point x="374.0" y="42.0"/>
      <point x="374.0" y="120.0" type="curve" smooth="yes"/>
      <point x="374.0" y="198.0"/>
      <point x="315.0" y="259.0"/>
    </contour>
  </outline>
</glyph>
<glyph name="slash" format="2">
	<unicode hex="002F"/>
	<advance width="785"/>
	<outline>
		<contour>
			<point x="57" y="0" type="line"/>
			<point x="134" y="0" type="line"/>
			<point x="731" y="1430" type="line"/>
			<point x="654" y="1430" type="line"/>
		</contour>
	</outline>
</glyph>
<glyph name="zero" format="2">
	<unicode hex="0030"/>
	<advance width="1200"/>
	<outline>
		<contour>
			<point x="604" y="26" type="curve" smooth="yes"/>
			<point x="402.8351648352" y="26"/>
			<point x="280" y="292"/>
			<point x="280" y="747" type="curve" smooth="yes"/>
			<point x="280" y="1160"/>
			<point x="398.9438202247" y="1404"/>
			<point x="596" y="1404" type="curve" smooth="yes"/>
			<point x="797.1648351648" y="1404"/>
			<point x="920" y="1137"/>
			<point x="920" y="683" type="curve" smooth="yes"/>
			<point x="920" y="270"/>
			<point x="801.0561797753" y="26"/>
		</contour>
		<contour>
			<point x="603" y="1450" type="curve" smooth="yes"/>
			<point x="291.7168141593" y="1450"/>
			<point x="78" y="1151"/>
			<point x="78" y="713" type="curve" smooth="yes"/>
			<point x="78" y="275"/>
			<point x="285.9713774597" y="-20"/>
			<point x="597" y="-20" type="curve" smooth="yes"/>
			<point x="908.2831858407" y="-20"/>
			<point x="1122" y="279"/>
			<point x="1122" y="717" type="curve" smooth="yes"/>
			<point x="1122" y="1155"/>
			<point x="914.0286225403" y="1450"/>
		</contour>
	</outline>
</glyph>
<glyph name="one" format="2">
	<unicode hex="0031"/>
	<advance width="1200"/>
	<outline>
		<contour>
			<point x="589" y="79" type="line"/>
			<point x="275" y="28" type="line"/>
			<point x="275" y="0" type="line"/>
			<point x="1082" y="0" type="line"/>
			<point x="1082" y="28" type="line"/>
			<point x="785" y="79" type="line"/>
			<point x="785" y="1450" type="line"/>
			<point x="754" y="1450" type="line"/>
			<point x="165" y="1151" type="line"/>
			<point x="174" y="1120" type="line"/>
			<point x="672" y="1256" type="line"/>
			<point x="589" y="1332" type="line"/>
		</contour>
	</outline>
</glyph>
<glyph name="colon" format="2">
	<unicode hex="003A"/>
	<advance width="534"/>
	<outline>
		<contour>
			<point x="267" y="259" type="curve" smooth="yes"/>
			<point x="185" y="259"/>
			<point x="126" y="198"/>
			<point x="126" y="120" type="curve" smooth="yes"/>
			<point x="126" y="42"/>
			<point x="185" y="-19"/>
			<point x="267" y="-19" type="curve" smooth="yes"/>
			<point x="349" y="-19"/>
			<point x="408" y="42"/>
			<point x="408" y="120" type="curve" smooth="yes"/>
			<point x="408" y="198"/>
			<point x="349" y="259"/>
		</contour>
		<contour>
			<point x="267" y="1043" type="curve" smooth="yes"/>
			<point x="185" y="1043"/>
			<point x="126" y="982"/>
			<point x="126" y="904" type="curve" smooth="yes"/>
			<point x="126" y="826"/>
			<point x="185" y="765"/>
			<point x="267" y="765" type="curve" smooth="yes"/>
			<point x="349" y="765"/>
			<point x="408" y="826"/>
			<point x="408" y="904" type="curve" smooth="yes"/>
			<point x="408" y="982"/>
			<point x="349" y="1043"/>
		</contour>
	</outline>
</glyph>
<glyph name="semicolon" format="2">
	<unicode hex="003B"/>
	<advance width="551"/>
	<outline>
		<contour>
			<point x="123" y="-296" type="curve"/>
			<point x="148" y="-321" type="line"/>
			<point x="343" y="-187"/>
			<point x="418" y="-50"/>
			<point x="418" y="85" type="curve" smooth="yes"/>
			<point x="418" y="189"/>
			<point x="359" y="247"/>
			<point x="276" y="247" type="curve" smooth="yes"/>
			<point x="192" y="247"/>
			<point x="138" y="195"/>
			<point x="138" y="117" type="curve" smooth="yes"/>
			<point x="138" y="81"/>
			<point x="281" y="53"/>
			<point x="281" y="-46" type="curve" smooth="yes"/>
			<point x="281" y="-140"/>
			<point x="227" y="-213"/>
		</contour>
		<contour>
			<point x="274" y="1043" type="curve" smooth="yes"/>
			<point x="192" y="1043"/>
			<point x="133" y="982"/>
			<point x="133" y="904" type="curve" smooth="yes"/>
			<point x="133" y="826"/>
			<point x="192" y="765"/>
			<point x="274" y="765" type="curve" smooth="yes"/>
			<point x="356" y="765"/>
			<point x="415" y="826"/>
			<point x="415" y="904" type="curve" smooth="yes"/>
			<point x="415" y="982"/>
			<point x="356" y="1043"/>
		</contour>
	</outline>
</glyph>
<glyph name="less" format="2">
  <advance width="1150"/>
  <unicode hex="003C"/>
  <outline>
    <contour>
      <point x="202.0" y="504.0" type="line"/>
      <point x="981.0" y="836.0" type="line"/>
      <point x="981.0" y="909.0" type="line"/>
      <point x="145.0" y="545.0" type="line"/>
      <point x="145.0" y="479.0" type="line"/>
      <point x="981.0" y="115.0" type="line"/>
      <point x="981.0" y="188.0" type="line"/>
      <point x="202.0" y="526.0" type="line"/>
    </contour>
  </outline>
</glyph>
<glyph name="greater" format="2">
  <advance width="1150"/>
  <unicode hex="003E"/>
  <outline>
    <contour>
      <point x="948.0" y="504.0" type="line"/>
      <point x="948.0" y="526.0" type="line"/>
      <point x="169.0" y="188.0" type="line"/>
      <point x="169.0" y="115.0" type="line"/>
      <point x="1005.0" y="479.0" type="line"/>
      <point x="1005.0" y="545.0" type="line"/>
      <point x="169.0" y="909.0" type="line"/>
      <point x="169.0" y="836.0" type="line"/>
    </contour>
  </outline>
</glyph>
<glyph name="question" format="2">
	<unicode hex="003F"/>
	<advance width="959"/>
	<outline>
		<contour>
			<point x="330" y="1450" type="curve" smooth="yes"/>
			<point x="135" y="1450"/>
			<point x="56" y="1389"/>
			<point x="56" y="1319" type="curve" smooth="yes"/>
			<point x="56" y="1265"/>
			<point x="104" y="1223"/>
			<point x="147" y="1223" type="curve" smooth="yes"/>
			<point x="170" y="1223"/>
			<point x="276" y="1366"/>
			<point x="467" y="1366" type="curve" smooth="yes"/>
			<point x="649" y="1366"/>
			<point x="760" y="1275"/>
			<point x="760" y="1098" type="curve" smooth="yes"/>
			<point x="760" y="937"/>
			<point x="666" y="831"/>
			<point x="325" y="843" type="curve"/>
			<point x="398" y="463" type="line"/>
			<point x="430" y="463" type="line"/>
			<point x="430" y="804" type="line"/>
			<point x="399" y="683" type="line"/>
			<point x="758" y="669"/>
			<point x="876" y="790"/>
			<point x="876" y="1010" type="curve" smooth="yes"/>
			<point x="876" y="1268"/>
			<point x="628" y="1450"/>
		</contour>
		<contour>
			<point x="418" y="259" type="curve" smooth="yes"/>
			<point x="336" y="259"/>
			<point x="277" y="198"/>
			<point x="277" y="120" type="curve" smooth="yes"/>
			<point x="277" y="42"/>
			<point x="336" y="-19"/>
			<point x="418" y="-19" type="curve" smooth="yes"/>
			<point x="500" y="-19"/>
			<point x="559" y="42"/>
			<point x="559" y="120" type="curve" smooth="yes"/>
			<point x="559" y="198"/>
			<point x="500" y="259"/>
		</contour>
	</outline>
</glyph>
<glyph name="at" format="2">
	<unicode hex="0040"/>
	<advance width="1802"/>
	<outline>
		<contour>
			<point x="1266" y="243" type="curve" smooth="yes"/>
			<point x="1555" y="243"/>
			<point x="1753" y="494"/>
			<point x="1753" y="817" type="curve" smooth="yes"/>
			<point x="1753" y="1179"/>
			<point x="1458" y="1454"/>
			<point x="1010" y="1454" type="curve" smooth="yes"/>
			<point x="478" y="1454"/>
			<point x="81" y="1051"/>
			<point x="81" y="534" type="curve" smooth="yes"/>
			<point x="81" y="50"/>
			<point x="437" y="-218"/>
			<point x="919" y="-218" type="curve" smooth="yes"/>
			<point x="1150" y="-218"/>
			<point x="1383" y="-145"/>
			<point x="1556" y="-24" type="curve"/>
			<point x="1540" y="3" type="line"/>
			<point x="1348" y="-121"/>
			<point x="1123" y="-170"/>
			<point x="946" y="-170" type="curve" smooth="yes"/>
			<point x="500" y="-170"/>
			<point x="196" y="93"/>
			<point x="196" y="544" type="curve" smooth="yes"/>
			<point x="196" y="1051"/>
			<point x="521" y="1411"/>
			<point x="1005" y="1411" type="curve" smooth="yes"/>
			<point x="1395" y="1411"/>
			<point x="1657" y="1139"/>
			<point x="1657" y="794" type="curve" smooth="yes"/>
			<point x="1657" y="468"/>
			<point x="1476" y="278"/>
			<point x="1307" y="278" type="curve" smooth="yes"/>
			<point x="1241" y="278"/>
			<point x="1198" y="315"/>
			<point x="1198" y="403" type="curve" smooth="yes"/>
			<point x="1198" y="445"/>
			<point x="1207" y="499"/>
			<point x="1228" y="567" type="curve" smooth="yes"/>
			<point x="1370" y="1039" type="line"/>
			<point x="1191" y="1039" type="line"/>
			<point x="1165" y="954" type="line"/>
			<point x="1060" y="626" type="line"/>
			<point x="929" y="420"/>
			<point x="849" y="363"/>
			<point x="782" y="363" type="curve" smooth="yes"/>
			<point x="730" y="363"/>
			<point x="709" y="397"/>
			<point x="709" y="472" type="curve" smooth="yes"/>
			<point x="709" y="658"/>
			<point x="884" y="993"/>
			<point x="1056" y="993" type="curve" smooth="yes"/>
			<point x="1114" y="993"/>
			<point x="1153" y="966"/>
			<point x="1192" y="892" type="curve"/>
			<point x="1204" y="910" type="line"/>
			<point x="1163" y="1013"/>
			<point x="1091" y="1058"/>
			<point x="1012" y="1058" type="curve" smooth="yes"/>
			<point x="771" y="1058"/>
			<point x="517" y="693"/>
			<point x="517" y="434" type="curve" smooth="yes"/>
			<point x="517" y="313"/>
			<point x="566" y="243"/>
			<point x="687" y="243" type="curve" smooth="yes"/>
			<point x="790" y="243"/>
			<point x="907" y="314"/>
			<point x="1087" y="619" type="curve"/>
			<point x="1066" y="621" type="line"/>
			<point x="1046" y="532" type="line" smooth="yes"/>
			<point x="1039" y="500"/>
			<point x="1034" y="469"/>
			<point x="1034" y="442" type="curve" smooth="yes"/>
			<point x="1034" y="312"/>
			<point x="1118" y="243"/>
		</contour>
	</outline>
</glyph>
<glyph name="A" format="2">
	<unicode hex="0041"/>
	<advance width="1454"/>
	<outline>
		<contour>
			<point x="344" y="555" type="line"/>
			<point x="1051" y="555" type="line"/>
			<point x="1051" y="615" type="line"/>
			<point x="344" y="615" type="line"/>
		</contour>
		<contour>
			<point x="1337" y="72" type="line"/>
			<point x="720" y="1450" type="line"/>
			<point x="682" y="1450" type="line"/>
			<point x="134" y="80" type="line"/>
			<point x="-19" y="29" type="line"/>
			<point x="-19" y="0" type="line"/>
			<point x="390" y="0" type="line"/>
			<point x="390" y="29" type="line"/>
			<point x="200" y="77" type="line"/>
			<point x="645" y="1202" type="line"/>
			<point x="620" y="1202" type="line"/>
			<point x="1120" y="70" type="line"/>
			<point x="938" y="29" type="line"/>
			<point x="938" y="0" type="line"/>
			<point x="1493" y="0" type="line"/>
			<point x="1493" y="29" type="line"/>
		</contour>
	</outline>
	<anchor name="UCtop" x="698" y="1430"/>
	<anchor name="bottom" x="717" y="0"/>
	<anchor name="right" x="1373" y="0"/>
</glyph>
<glyph name="B" format="2">
	<unicode hex="0042"/>
	<advance width="1314"/>
	<outline>
		<contour>
			<point x="265" y="1378" type="line"/>
			<point x="566" y="1378" type="line" smooth="yes"/>
			<point x="817" y="1378"/>
			<point x="923" y="1263"/>
			<point x="923" y="1087" type="curve" smooth="yes"/>
			<point x="923" y="886"/>
			<point x="815" y="787"/>
			<point x="647" y="787" type="curve" smooth="yes"/>
			<point x="265" y="787" type="line"/>
			<point x="292" y="735" type="line"/>
			<point x="661" y="735" type="line" smooth="yes"/>
			<point x="909" y="735"/>
			<point x="1019" y="597"/>
			<point x="1019" y="401" type="curve" smooth="yes"/>
			<point x="1019" y="159"/>
			<point x="873" y="52"/>
			<point x="634" y="52" type="curve" smooth="yes"/>
			<point x="293" y="52" type="line"/>
			<point x="364" y="0" type="line"/>
			<point x="652" y="0" type="line" smooth="yes"/>
			<point x="1080" y="0"/>
			<point x="1234" y="180"/>
			<point x="1234" y="403" type="curve" smooth="yes"/>
			<point x="1234" y="603"/>
			<point x="1064" y="760"/>
			<point x="777" y="783" type="curve"/>
			<point x="745" y="767" type="line"/>
			<point x="963" y="789"/>
			<point x="1122" y="908"/>
			<point x="1122" y="1104" type="curve" smooth="yes"/>
			<point x="1122" y="1293"/>
			<point x="995" y="1430"/>
			<point x="685" y="1430" type="curve" smooth="yes"/>
			<point x="363" y="1430" type="line"/>
		</contour>
		<contour>
			<point x="68" y="0" type="line"/>
			<point x="453" y="0" type="line"/>
			<point x="453" y="1430" type="line"/>
			<point x="68" y="1430" type="line"/>
			<point x="68" y="1401" type="line"/>
			<point x="247" y="1360" type="line"/>
			<point x="247" y="71" type="line"/>
			<point x="68" y="29" type="line"/>
		</contour>
	</outline>
	<anchor name="UCtop" x="651" y="1430"/>
	<anchor name="bottom" x="651" y="0"/>
</glyph>
<glyph name="C" format="2">
	<unicode hex="0043"/>
	<advance width="1417"/>
	<outline>
		<contour>
			<point x="878" y="16" type="curve" smooth="yes"/>
			<point x="574" y="16"/>
			<point x="309" y="236"/>
			<point x="309" y="748" type="curve" smooth="yes"/>
			<point x="309" y="1243"/>
			<point x="543" y="1404"/>
			<point x="799" y="1404" type="curve" smooth="yes"/>
			<point x="917" y="1404"/>
			<point x="1025" y="1367"/>
			<point x="1147" y="1285" type="curve"/>
			<point x="1107" y="1327" type="line"/>
			<point x="1302" y="992" type="line"/>
			<point x="1327" y="995" type="line"/>
			<point x="1237" y="1484" type="line"/>
			<point x="1223" y="1484" type="line"/>
			<point x="1114" y="1398" type="line"/>
			<point x="1167" y="1410" type="line"/>
			<point x="1055" y="1436"/>
			<point x="956" y="1450"/>
			<point x="845" y="1450" type="curve" smooth="yes"/>
			<point x="403" y="1450"/>
			<point x="93" y="1158"/>
			<point x="93" y="729" type="curve" smooth="yes"/>
			<point x="93" y="229"/>
			<point x="442" y="-20"/>
			<point x="881" y="-20" type="curve" smooth="yes"/>
			<point x="1020" y="-20"/>
			<point x="1128" y="-9"/>
			<point x="1272" y="36" type="curve"/>
			<point x="1350" y="391" type="line"/>
			<point x="1325" y="391" type="line"/>
			<point x="1150" y="104" type="line"/>
			<point x="1189" y="150" type="line"/>
			<point x="1084" y="54"/>
			<point x="979" y="16"/>
		</contour>
	</outline>
	<anchor name="UCtop" x="798" y="1430"/>
	<anchor name="bottom" x="798" y="0"/>
	<anchor name="right" x="1249" y="0"/>
</glyph>
<glyph name="D" format="2">
  <advance width="1547"/>
  <unicode hex="0044"/>
  <anchor x="781.0" y="1430.0" name="UCtop"/>
  <anchor x="781.0" y="0" name="bottom"/>
  <outline>
    <contour>
      <point x="1239.0" y="727.0" type="curve" smooth="yes"/>
      <point x="1239.0" y="248.7362962962963"/>
      <point x="1010.0" y="60.0"/>
      <point x="618.0" y="60.0" type="curve" smooth="yes"/>
      <point x="335.0" y="60.0" type="line"/>
      <point x="335.0" y="0.0" type="line"/>
      <point x="653.0" y="0.0" type="line" smooth="yes"/>
      <point x="1108.0" y="0.0"/>
      <point x="1452.0" y="253.0"/>
      <point x="1452.0" y="748.0" type="curve" smooth="yes"/>
      <point x="1452.0" y="1182.0"/>
      <point x="1156.0" y="1430.0"/>
      <point x="639.0" y="1430.0" type="curve" smooth="yes"/>
      <point x="335.0" y="1430.0" type="line"/>
      <point x="335.0" y="1370.0" type="line"/>
      <point x="582.0" y="1370.0" type="line" smooth="yes"/>
      <point x="1013.0" y="1370.0"/>
      <point x="1239.0" y="1155.6666666666665"/>
    </contour>
    <contour>
      <point x="68.0" y="0.0" type="line"/>
      <point x="453.0" y="0.0" type="line"/>
      <point x="453.0" y="1430.0" type="line"/>
      <point x="68.0" y="1430.0" type="line"/>
      <point x="68.0" y="1401.0" type="line"/>
      <point x="247.0" y="1360.0" type="line"/>
      <point x="247.0" y="71.0" type="line"/>
      <point x="68.0" y="29.0" type="line"/>
    </contour>
  </outline>
</glyph>
<glyph name="E" format="2">
	<unicode hex="0045"/>
	<advance width="1341"/>
	<outline>
		<contour>
			<point x="926" y="1039" type="line"/>
			<point x="904" y="1039" type="line"/>
			<point x="793" y="786" type="line"/>
			<point x="314" y="758" type="line"/>
			<point x="314" y="735" type="line"/>
			<point x="793" y="711" type="line"/>
			<point x="904" y="455" type="line"/>
			<point x="926" y="455" type="line"/>
			<point x="892" y="746" type="line"/>
		</contour>
		<contour>
			<point x="1236" y="1036" type="line"/>
			<point x="1169" y="1484" type="line"/>
			<point x="1161" y="1484" type="line"/>
			<point x="1028" y="1430" type="line"/>
			<point x="308" y="1430" type="line"/>
			<point x="308" y="1370" type="line"/>
			<point x="1163" y="1370" type="line"/>
			<point x="1010" y="1394" type="line"/>
			<point x="1211" y="1028" type="line"/>
		</contour>
		<contour>
			<point x="1028" y="35" type="line"/>
			<point x="1182" y="60" type="line"/>
			<point x="308" y="60" type="line"/>
			<point x="308" y="0" type="line"/>
			<point x="1050" y="0" type="line"/>
			<point x="1178" y="-54" type="line"/>
			<point x="1186" y="-54" type="line"/>
			<point x="1292" y="395" type="line"/>
			<point x="1267" y="402" type="line"/>
		</contour>
		<contour>
			<point x="68" y="0" type="line"/>
			<point x="453" y="0" type="line"/>
			<point x="453" y="1430" type="line"/>
			<point x="68" y="1430" type="line"/>
			<point x="68" y="1401" type="line"/>
			<point x="247" y="1360" type="line"/>
			<point x="247" y="71" type="line"/>
			<point x="68" y="29" type="line"/>
		</contour>
	</outline>
	<anchor name="UCtop" x="688" y="1430"/>
	<anchor name="right" x="1136" y="0"/>
	<anchor name="bottom" x="688" y="0"/>
</glyph>
<glyph name="F" format="2">
	<unicode hex="0046"/>
	<advance width="1223"/>
	<outline>
		<contour>
			<point x="942" y="1012" type="line"/>
			<point x="920" y="1012" type="line"/>
			<point x="809" y="759" type="line"/>
			<point x="304" y="731" type="line"/>
			<point x="304" y="708" type="line"/>
			<point x="809" y="684" type="line"/>
			<point x="920" y="428" type="line"/>
			<point x="942" y="428" type="line"/>
			<point x="908" y="719" type="line"/>
		</contour>
		<contour>
			<point x="1085" y="1484" type="line"/>
			<point x="956" y="1430" type="line"/>
			<point x="308" y="1430" type="line"/>
			<point x="308" y="1370" type="line"/>
			<point x="1089" y="1370" type="line"/>
			<point x="935" y="1395" type="line"/>
			<point x="1174" y="1028" type="line"/>
			<point x="1199" y="1035" type="line"/>
			<point x="1093" y="1484" type="line"/>
		</contour>
		<contour>
			<point x="453" y="1430" type="line"/>
			<point x="68" y="1430" type="line"/>
			<point x="68" y="1401" type="line"/>
			<point x="247" y="1360" type="line"/>
			<point x="247" y="71" type="line"/>
			<point x="68" y="29" type="line"/>
			<point x="68" y="0" type="line"/>
			<point x="632" y="0" type="line"/>
			<point x="632" y="29" type="line"/>
			<point x="453" y="71" type="line"/>
		</contour>
	</outline>
	<anchor name="UCtop" x="625" y="1430"/>
	<anchor name="bottom" x="350" y="0"/>
</glyph>
<glyph name="G" format="2">
	<unicode hex="0047"/>
	<advance width="1533"/>
	<outline>
		<contour>
			<point x="1326" y="104" type="line"/>
			<point x="1326" y="572" type="line"/>
			<point x="1461" y="609" type="line"/>
			<point x="1461" y="640" type="line"/>
			<point x="918" y="640" type="line"/>
			<point x="918" y="609" type="line"/>
			<point x="1137" y="566" type="line"/>
			<point x="1137" y="25" type="line"/>
			<point x="1162" y="91" type="line"/>
			<point x="1104" y="42"/>
			<point x="1006" y="16"/>
			<point x="898" y="16" type="curve" smooth="yes"/>
			<point x="583" y="16"/>
			<point x="309" y="236"/>
			<point x="309" y="748" type="curve" smooth="yes"/>
			<point x="309" y="1243"/>
			<point x="553" y="1404"/>
			<point x="819" y="1404" type="curve" smooth="yes"/>
			<point x="995" y="1404"/>
			<point x="1148" y="1318"/>
			<point x="1275" y="1199" type="curve"/>
			<point x="1095" y="1379" type="line"/>
			<point x="1327" y="992" type="line"/>
			<point x="1352" y="995" type="line"/>
			<point x="1262" y="1484" type="line"/>
			<point x="1248" y="1484" type="line"/>
			<point x="1132" y="1383" type="line"/>
			<point x="1261" y="1389" type="line"/>
			<point x="1163" y="1422"/>
			<point x="1027" y="1450"/>
			<point x="865" y="1450" type="curve" smooth="yes"/>
			<point x="412" y="1450"/>
			<point x="93" y="1158"/>
			<point x="93" y="729" type="curve" smooth="yes"/>
			<point x="93" y="229"/>
			<point x="452" y="-20"/>
			<point x="901" y="-20" type="curve" smooth="yes"/>
			<point x="1053" y="-20"/>
			<point x="1245" y="5"/>
			<point x="1449" y="78" type="curve"/>
			<point x="1449" y="104" type="line"/>
		</contour>
	</outline>
	<anchor name="UCtop" x="807" y="1430"/>
	<anchor name="bottom" x="807" y="0"/>
</glyph>
<glyph name="H" format="2">
	<unicode hex="0048"/>
	<advance width="1649"/>
	<outline>
		<contour>
			<point x="453" y="71" type="line"/>
			<point x="453" y="1360" type="line"/>
			<point x="632" y="1401" type="line"/>
			<point x="632" y="1430" type="line"/>
			<point x="68" y="1430" type="line"/>
			<point x="68" y="1401" type="line"/>
			<point x="247" y="1360" type="line"/>
			<point x="247" y="71" type="line"/>
			<point x="68" y="29" type="line"/>
			<point x="68" y="0" type="line"/>
			<point x="632" y="0" type="line"/>
			<point x="632" y="29" type="line"/>
		</contour>
		<contour>
			<point x="1402" y="71" type="line"/>
			<point x="1402" y="1360" type="line"/>
			<point x="1581" y="1401" type="line"/>
			<point x="1581" y="1430" type="line"/>
			<point x="1017" y="1430" type="line"/>
			<point x="1017" y="1401" type="line"/>
			<point x="1196" y="1360" type="line"/>
			<point x="1196" y="71" type="line"/>
			<point x="1017" y="29" type="line"/>
			<point x="1017" y="0" type="line"/>
			<point x="1581" y="0" type="line"/>
			<point x="1581" y="29" type="line"/>
		</contour>
		<contour>
			<point x="331" y="710" type="line"/>
			<point x="1315" y="710" type="line"/>
			<point x="1315" y="770" type="line"/>
			<point x="331" y="770" type="line"/>
		</contour>
	</outline>
	<anchor name="UCtop" x="824" y="1430"/>
	<anchor name="bottom" x="824" y="0"/>
</glyph>
<glyph name="I" format="2">
	<unicode hex="0049"/>
	<advance width="700"/>
	<outline>
		<contour>
			<point x="632" y="29" type="line"/>
			<point x="453" y="71" type="line"/>
			<point x="453" y="1360" type="line"/>
			<point x="632" y="1401" type="line"/>
			<point x="632" y="1430" type="line"/>
			<point x="68" y="1430" type="line"/>
			<point x="68" y="1401" type="line"/>
			<point x="247" y="1360" type="line"/>
			<point x="247" y="71" type="line"/>
			<point x="68" y="29" type="line"/>
			<point x="68" y="0" type="line"/>
			<point x="632" y="0" type="line"/>
		</contour>
	</outline>
	<anchor name="UCtop" x="350" y="1430"/>
	<anchor name="right" x="518" y="0"/>
	<anchor name="bottom" x="350" y="0"/>
</glyph>
<glyph name="J" format="2">
	<unicode hex="004A"/>
	<advance width="798"/>
	<outline>
		<contour>
			<point x="581" y="528" type="curve" smooth="yes"/>
			<point x="581" y="1360" type="line"/>
			<point x="760" y="1401" type="line"/>
			<point x="760" y="1430" type="line"/>
			<point x="196" y="1430" type="line"/>
			<point x="196" y="1401" type="line"/>
			<point x="375" y="1360" type="line"/>
			<point x="375" y="233" type="line" smooth="yes"/>
			<point x="375" y="126"/>
			<point x="346" y="92"/>
			<point x="275" y="92" type="curve" smooth="yes"/>
			<point x="189" y="92"/>
			<point x="127" y="172"/>
			<point x="94" y="172" type="curve" smooth="yes"/>
			<point x="57" y="172"/>
			<point x="19" y="132"/>
			<point x="19" y="84" type="curve" smooth="yes"/>
			<point x="19" y="20"/>
			<point x="54" y="-20"/>
			<point x="129" y="-20" type="curve" smooth="yes"/>
			<point x="327" y="-20"/>
			<point x="581" y="179"/>
		</contour>
	</outline>
	<anchor name="UCtop" x="478" y="1430"/>
	<anchor name="bottom" x="389" y="0"/>
</glyph>
<glyph name="K" format="2">
	<unicode hex="004B"/>
	<advance width="1515"/>
	<outline>
		<contour>
			<point x="1395" y="67" type="line"/>
			<point x="633" y="849" type="line"/>
			<point x="539" y="769" type="line"/>
			<point x="1245" y="1362" type="line"/>
			<point x="1418" y="1401" type="line"/>
			<point x="1418" y="1430" type="line"/>
			<point x="964" y="1430" type="line"/>
			<point x="964" y="1401" type="line"/>
			<point x="1154" y="1360" type="line"/>
			<point x="479" y="787" type="line"/>
			<point x="383" y="787" type="line"/>
			<point x="383" y="727" type="line"/>
			<point x="479" y="727" type="line"/>
			<point x="1120" y="68" type="line"/>
			<point x="939" y="29" type="line"/>
			<point x="939" y="0" type="line"/>
			<point x="1542" y="0" type="line"/>
			<point x="1542" y="29" type="line"/>
		</contour>
		<contour>
			<point x="453" y="1360" type="line"/>
			<point x="632" y="1401" type="line"/>
			<point x="632" y="1430" type="line"/>
			<point x="68" y="1430" type="line"/>
			<point x="68" y="1401" type="line"/>
			<point x="247" y="1360" type="line"/>
			<point x="247" y="71" type="line"/>
			<point x="68" y="29" type="line"/>
			<point x="68" y="0" type="line"/>
			<point x="632" y="0" type="line"/>
			<point x="632" y="29" type="line"/>
			<point x="453" y="71" type="line"/>
		</contour>
	</outline>
	<anchor name="UCtop" x="785" y="1430"/>
	<anchor name="bottom" x="763" y="0"/>
</glyph>
<glyph name="L" format="2">
	<unicode hex="004C"/>
	<advance width="1235"/>
	<outline>
		<contour>
			<point x="1106" y="-54" type="line"/>
			<point x="1212" y="395" type="line"/>
			<point x="1187" y="402" type="line"/>
			<point x="948" y="35" type="line"/>
			<point x="1102" y="60" type="line"/>
			<point x="308" y="60" type="line"/>
			<point x="308" y="0" type="line"/>
			<point x="970" y="0" type="line"/>
			<point x="1098" y="-54" type="line"/>
		</contour>
		<contour>
			<point x="453" y="1360" type="line"/>
			<point x="632" y="1401" type="line"/>
			<point x="632" y="1430" type="line"/>
			<point x="68" y="1430" type="line"/>
			<point x="68" y="1401" type="line"/>
			<point x="247" y="1360" type="line"/>
			<point x="247" y="71" type="line"/>
			<point x="68" y="29" type="line"/>
			<point x="68" y="0" type="line"/>
			<point x="453" y="0" type="line"/>
		</contour>
	</outline>
	<anchor name="UCtop" x="350" y="1430"/>
	<anchor name="right" x="692" y="1430"/>
	<anchor name="bottom" x="620" y="0"/>
	<anchor name="mid" x="980" y="773"/>
</glyph>
<glyph name="M" format="2">
	<unicode hex="004D"/>
	<advance width="2048"/>
	<outline>
		<contour>
			<point x="1841" y="71" type="line"/>
			<point x="1738" y="1360" type="line"/>
			<point x="1936" y="1401" type="line"/>
			<point x="1936" y="1430" type="line"/>
			<point x="1528" y="1430" type="line"/>
			<point x="1024" y="219" type="line"/>
			<point x="1062" y="219" type="line"/>
			<point x="503" y="1430" type="line"/>
			<point x="116" y="1430" type="line"/>
			<point x="116" y="1401" type="line"/>
			<point x="299" y="1336" type="line"/>
			<point x="216" y="71" type="line"/>
			<point x="37" y="29" type="line"/>
			<point x="37" y="0" type="line"/>
			<point x="478" y="0" type="line"/>
			<point x="478" y="29" type="line"/>
			<point x="279" y="71" type="line"/>
			<point x="359" y="1294" type="line"/>
			<point x="345" y="1291" type="line"/>
			<point x="951" y="-20" type="line"/>
			<point x="985" y="-20" type="line"/>
			<point x="1550" y="1325" type="line"/>
			<point x="1536" y="1327" type="line"/>
			<point x="1631" y="71" type="line"/>
			<point x="1452" y="29" type="line"/>
			<point x="1452" y="0" type="line"/>
			<point x="2020" y="0" type="line"/>
			<point x="2020" y="29" type="line"/>
		</contour>
	</outline>
	<anchor name="UCtop" x="1009" y="1430"/>
	<anchor name="bottom" x="977" y="0"/>
</glyph>
<glyph name="N" format="2">
	<unicode hex="004E"/>
	<advance width="1558"/>
	<outline>
		<contour>
			<point x="253" y="71" type="line"/>
			<point x="74" y="29" type="line"/>
			<point x="74" y="0" type="line"/>
			<point x="518" y="0" type="line"/>
			<point x="518" y="29" type="line"/>
			<point x="319" y="71" type="line"/>
			<point x="319" y="1360" type="line"/>
			<point x="291" y="1322" type="line"/>
			<point x="1284" y="-20" type="line"/>
			<point x="1322" y="-20" type="line"/>
			<point x="1322" y="1359" type="line"/>
			<point x="1501" y="1401" type="line"/>
			<point x="1501" y="1430" type="line"/>
			<point x="1057" y="1430" type="line"/>
			<point x="1057" y="1401" type="line"/>
			<point x="1256" y="1359" type="line"/>
			<point x="1256" y="70" type="line"/>
			<point x="1309" y="276" type="line"/>
			<point x="460" y="1430" type="line"/>
			<point x="54" y="1430" type="line"/>
			<point x="54" y="1401" type="line"/>
			<point x="253" y="1344" type="line"/>
		</contour>
	</outline>
	<anchor name="UCtop" x="809" y="1430"/>
	<anchor name="bottom" x="809" y="0"/>
</glyph>
<glyph name="O" format="2">
	<unicode hex="004F"/>
	<advance width="1599"/>
	<outline>
		<contour>
			<point x="799" y="1450" type="curve" smooth="yes"/>
			<point x="389" y="1450"/>
			<point x="94" y="1144.4151967436"/>
			<point x="94" y="714" type="curve" smooth="yes"/>
			<point x="94" y="282.587755102"/>
			<point x="390" y="-20"/>
			<point x="802" y="-20" type="curve" smooth="yes"/>
			<point x="1210" y="-20"/>
			<point x="1505" y="285.5859269283"/>
			<point x="1505" y="718" type="curve" smooth="yes"/>
			<point x="1505" y="1147.4133697135"/>
			<point x="1209" y="1450"/>
		</contour>
		<contour>
			<point x="808" y="28" type="curve" smooth="yes"/>
			<point x="512" y="28"/>
			<point x="304" y="289.6361111111"/>
			<point x="304" y="747" type="curve" smooth="yes"/>
			<point x="304" y="1149.3866057839"/>
			<point x="489" y="1403"/>
			<point x="791" y="1403" type="curve" smooth="yes"/>
			<point x="1085" y="1403"/>
			<point x="1294" y="1140.3647711512"/>
			<point x="1294" y="683" type="curve" smooth="yes"/>
			<point x="1294" y="281.612804878"/>
			<point x="1109" y="28"/>
		</contour>
	</outline>
	<anchor name="UCtop" x="800" y="1430"/>
	<anchor name="bottom" x="800" y="0"/>
	<anchor name="right" x="984" y="0"/>
	<anchor name="horn" x="1179" y="1430"/>
</glyph>
<glyph name="P" format="2">
	<unicode hex="0050"/>
	<advance width="1266"/>
	<outline>
		<contour>
			<point x="1010" y="1037" type="curve" smooth="yes"/>
			<point x="1010" y="819"/>
			<point x="857" y="705"/>
			<point x="655" y="705" type="curve" smooth="yes"/>
			<point x="321" y="705" type="line"/>
			<point x="321" y="645" type="line"/>
			<point x="703" y="645" type="line" smooth="yes"/>
			<point x="1065" y="645"/>
			<point x="1220" y="829"/>
			<point x="1220" y="1050" type="curve" smooth="yes"/>
			<point x="1220" y="1264"/>
			<point x="1072" y="1430"/>
			<point x="703" y="1430" type="curve" smooth="yes"/>
			<point x="321" y="1430" type="line"/>
			<point x="321" y="1370" type="line"/>
			<point x="525" y="1370" type="line" smooth="yes"/>
			<point x="887" y="1370"/>
			<point x="1010" y="1251"/>
		</contour>
		<contour>
			<point x="453" y="1430" type="line"/>
			<point x="68" y="1430" type="line"/>
			<point x="68" y="1401" type="line"/>
			<point x="247" y="1360" type="line"/>
			<point x="247" y="71" type="line"/>
			<point x="68" y="29" type="line"/>
			<point x="68" y="0" type="line"/>
			<point x="632" y="0" type="line"/>
			<point x="632" y="29" type="line"/>
			<point x="453" y="71" type="line"/>
		</contour>
	</outline>
	<anchor name="UCtop" x="664" y="1430"/>
	<anchor name="bottom" x="350" y="0"/>
</glyph>
<glyph name="Q" format="2">
	<unicode hex="0051"/>
	<advance width="1599"/>
	<outline>
		<contour>
			<point x="1002" y="-312" type="line" smooth="yes"/>
			<point x="1131" y="-400"/>
			<point x="1211" y="-465"/>
			<point x="1378" y="-465" type="curve" smooth="yes"/>
			<point x="1467" y="-465"/>
			<point x="1559" y="-449"/>
			<point x="1711" y="-402" type="curve"/>
			<point x="1711" y="-363" type="line"/>
			<point x="1584" y="-387"/>
			<point x="1470" y="-375"/>
			<point x="1217" y="-236" type="curve" smooth="yes"/>
			<point x="767" y="11" type="line"/>
			<point x="766" y="-2" type="line"/>
			<point x="1199" y="-51"/>
			<point x="1505" y="293"/>
			<point x="1505" y="718" type="curve" smooth="yes"/>
			<point x="1505" y="1147"/>
			<point x="1209" y="1450"/>
			<point x="799" y="1450" type="curve" smooth="yes"/>
			<point x="389" y="1450"/>
			<point x="94" y="1144"/>
			<point x="94" y="714" type="curve" smooth="yes"/>
			<point x="94" y="423"/>
			<point x="218" y="222"/>
			<point x="437" y="73" type="curve" smooth="yes"/>
		</contour>
		<contour>
			<point x="808" y="28" type="curve" smooth="yes"/>
			<point x="512" y="28"/>
			<point x="304" y="290"/>
			<point x="304" y="747" type="curve" smooth="yes"/>
			<point x="304" y="1149"/>
			<point x="489" y="1403"/>
			<point x="791" y="1403" type="curve" smooth="yes"/>
			<point x="1085" y="1403"/>
			<point x="1294" y="1140"/>
			<point x="1294" y="683" type="curve" smooth="yes"/>
			<point x="1294" y="282"/>
			<point x="1109" y="28"/>
		</contour>
	</outline>
	<anchor name="bottom" x="800" y="-445"/>
	<anchor name="UCtop" x="800" y="1430"/>
</glyph>
<glyph name="R" format="2">
	<unicode hex="0052"/>
	<advance width="1393"/>
	<outline>
		<contour>
			<point x="626" y="768" type="curve" smooth="yes"/>
			<point x="295" y="768" type="line"/>
			<point x="295" y="716" type="line"/>
			<point x="629" y="716" type="line" smooth="yes"/>
			<point x="718" y="716"/>
			<point x="757" y="682"/>
			<point x="830" y="532" type="curve" smooth="yes"/>
			<point x="1008" y="168" type="line" smooth="yes"/>
			<point x="1092" y="-4"/>
			<point x="1157" y="-22"/>
			<point x="1435" y="0" type="curve"/>
			<point x="1435" y="35" type="line"/>
			<point x="1323" y="34"/>
			<point x="1289" y="47"/>
			<point x="1205" y="218" type="curve" smooth="yes"/>
			<point x="1048" y="538" type="line" smooth="yes"/>
			<point x="976" y="685"/>
			<point x="908" y="738"/>
			<point x="725" y="740" type="curve"/>
			<point x="725" y="737" type="line"/>
			<point x="1013" y="753"/>
			<point x="1161" y="907"/>
			<point x="1161" y="1083" type="curve" smooth="yes"/>
			<point x="1161" y="1284"/>
			<point x="1027" y="1430"/>
			<point x="628" y="1430" type="curve" smooth="yes"/>
			<point x="295" y="1430" type="line"/>
			<point x="295" y="1378" type="line"/>
			<point x="559" y="1378" type="line" smooth="yes"/>
			<point x="846" y="1378"/>
			<point x="951" y="1265"/>
			<point x="951" y="1081" type="curve" smooth="yes"/>
			<point x="951" y="875"/>
			<point x="828" y="768"/>
		</contour>
		<contour>
			<point x="453" y="1430" type="line"/>
			<point x="68" y="1430" type="line"/>
			<point x="68" y="1401" type="line"/>
			<point x="247" y="1360" type="line"/>
			<point x="247" y="71" type="line"/>
			<point x="68" y="29" type="line"/>
			<point x="68" y="0" type="line"/>
			<point x="632" y="0" type="line"/>
			<point x="632" y="29" type="line"/>
			<point x="453" y="71" type="line"/>
		</contour>
	</outline>
	<anchor name="UCtop" x="652" y="1430"/>
	<anchor name="bottom" x="772" y="0"/>
</glyph>
<glyph name="S" format="2">
	<unicode hex="0053"/>
	<advance width="1122"/>
	<outline>
		<contour>
			<point x="919" y="1363" type="line"/>
			<point x="809" y="1424"/>
			<point x="709" y="1451"/>
			<point x="583" y="1451" type="curve" smooth="yes"/>
			<point x="306" y="1451"/>
			<point x="131" y="1303"/>
			<point x="131" y="1066" type="curve" smooth="yes"/>
			<point x="131" y="848"/>
			<point x="290" y="770"/>
			<point x="476" y="699" type="curve" smooth="yes"/>
			<point x="662" y="628"/>
			<point x="880" y="570"/>
			<point x="880" y="334" type="curve" smooth="yes"/>
			<point x="880" y="134"/>
			<point x="739" y="20"/>
			<point x="502" y="20" type="curve" smooth="yes"/>
			<point x="402" y="20"/>
			<point x="322" y="59"/>
			<point x="211" y="124" type="curve"/>
			<point x="364" y="20" type="line"/>
			<point x="110" y="423" type="line"/>
			<point x="81" y="423" type="line"/>
			<point x="167" y="43" type="line"/>
			<point x="279" y="-4"/>
			<point x="375" y="-21"/>
			<point x="511" y="-21" type="curve" smooth="yes"/>
			<point x="792" y="-21"/>
			<point x="1023" y="161"/>
			<point x="1023" y="424" type="curve" smooth="yes"/>
			<point x="1023" y="716"/>
			<point x="817" y="803"/>
			<point x="628" y="869" type="curve" smooth="yes"/>
			<point x="439" y="935"/>
			<point x="263" y="983"/>
			<point x="263" y="1171" type="curve" smooth="yes"/>
			<point x="263" y="1308"/>
			<point x="343" y="1399"/>
			<point x="518" y="1399" type="curve" smooth="yes"/>
			<point x="634" y="1399"/>
			<point x="743" y="1346"/>
			<point x="824" y="1274" type="curve"/>
			<point x="770" y="1343" type="line"/>
			<point x="950" y="1018" type="line"/>
			<point x="974" y="1022" type="line"/>
			<point x="915" y="1484" type="line"/>
			<point x="898" y="1484" type="line"/>
			<point x="792" y="1392" type="line"/>
		</contour>
	</outline>
	<anchor name="UCtop" x="552" y="1430"/>
	<anchor name="bottom" x="552" y="0"/>
</glyph>
<glyph name="T" format="2">
	<unicode hex="0054"/>
	<advance width="1442"/>
	<outline>
		<contour>
			<point x="618" y="1400" type="line"/>
			<point x="618" y="71" type="line"/>
			<point x="439" y="29" type="line"/>
			<point x="439" y="0" type="line"/>
			<point x="1003" y="0" type="line"/>
			<point x="1003" y="29" type="line"/>
			<point x="824" y="71" type="line"/>
			<point x="824" y="1400" type="line"/>
		</contour>
		<contour>
			<point x="1286" y="1370" type="line"/>
			<point x="1173" y="1389" type="line"/>
			<point x="1371" y="988" type="line"/>
			<point x="1400" y="995" type="line"/>
			<point x="1337" y="1503" type="line"/>
			<point x="1319" y="1503" type="line"/>
			<point x="1172" y="1414" type="line"/>
			<point x="1262" y="1430" type="line"/>
			<point x="180" y="1430" type="line"/>
			<point x="270" y="1414" type="line"/>
			<point x="123" y="1503" type="line"/>
			<point x="105" y="1503" type="line"/>
			<point x="42" y="995" type="line"/>
			<point x="71" y="988" type="line"/>
			<point x="269" y="1389" type="line"/>
			<point x="156" y="1370" type="line"/>
		</contour>
	</outline>
	<anchor name="UCtop" x="721" y="1430"/>
	<anchor name="bottom" x="721" y="0"/>
</glyph>
<glyph name="U" format="2">
	<unicode hex="0055"/>
	<advance width="1578"/>
	<outline>
		<contour>
			<point x="1296" y="560" type="line" smooth="yes"/>
			<point x="1296" y="248"/>
			<point x="1141" y="98"/>
			<point x="858" y="98" type="curve" smooth="yes"/>
			<point x="564" y="98"/>
			<point x="418" y="249"/>
			<point x="418" y="560" type="curve" smooth="yes"/>
			<point x="418" y="1360" type="line"/>
			<point x="597" y="1401" type="line"/>
			<point x="597" y="1430" type="line"/>
			<point x="33" y="1430" type="line"/>
			<point x="33" y="1401" type="line"/>
			<point x="212" y="1360" type="line"/>
			<point x="212" y="580" type="line" smooth="yes"/>
			<point x="212" y="184.6589018303"/>
			<point x="421" y="-20"/>
			<point x="797" y="-20" type="curve" smooth="yes"/>
			<point x="1157" y="-20"/>
			<point x="1362" y="183.6382978723"/>
			<point x="1362" y="543" type="curve" smooth="yes"/>
			<point x="1362" y="1359" type="line"/>
			<point x="1541" y="1401" type="line"/>
			<point x="1541" y="1430" type="line"/>
			<point x="1097" y="1430" type="line"/>
			<point x="1097" y="1401" type="line"/>
			<point x="1296" y="1359" type="line"/>
		</contour>
	</outline>
	<anchor name="UCtop" x="837" y="1430"/>
	<anchor name="right" x="981" y="0"/>
	<anchor name="bottom" x="837" y="0"/>
	<anchor name="horn" x="1421" y="1428"/>
</glyph>
<glyph name="V" format="2">
	<unicode hex="0056"/>
	<advance width="1413"/>
	<outline>
		<contour>
			<point x="113" y="1358" type="line"/>
			<point x="724" y="-20" type="line"/>
			<point x="762" y="-20" type="line"/>
			<point x="1276" y="1350" type="line"/>
			<point x="1429" y="1401" type="line"/>
			<point x="1429" y="1430" type="line"/>
			<point x="1020" y="1430" type="line"/>
			<point x="1020" y="1401" type="line"/>
			<point x="1210" y="1353" type="line"/>
			<point x="799" y="228" type="line"/>
			<point x="824" y="228" type="line"/>
			<point x="330" y="1360" type="line"/>
			<point x="512" y="1401" type="line"/>
			<point x="512" y="1430" type="line"/>
			<point x="-43" y="1430" type="line"/>
			<point x="-43" y="1401" type="line"/>
		</contour>
	</outline>
	<anchor name="UCtop" x="760" y="1430"/>
	<anchor name="bottom" x="743" y="0"/>
</glyph>
<glyph name="W" format="2">
	<unicode hex="0057"/>
	<advance width="2031"/>
	<outline>
		<contour>
			<point x="1062" y="1275" type="line"/>
			<point x="985" y="1222" type="line"/>
			<point x="1468" y="-20" type="line"/>
			<point x="1506" y="-20" type="line"/>
			<point x="1898" y="1350" type="line"/>
			<point x="2051" y="1401" type="line"/>
			<point x="2051" y="1430" type="line"/>
			<point x="1642" y="1430" type="line"/>
			<point x="1642" y="1401" type="line"/>
			<point x="1832" y="1353" type="line"/>
			<point x="1531" y="228" type="line"/>
			<point x="1572" y="228" type="line"/>
			<point x="1110" y="1450" type="line"/>
			<point x="1061" y="1450" type="line"/>
			<point x="623" y="228" type="line"/>
			<point x="675" y="228" type="line"/>
			<point x="341" y="1360" type="line"/>
			<point x="523" y="1401" type="line"/>
			<point x="523" y="1430" type="line"/>
			<point x="-29" y="1430" type="line"/>
			<point x="-29" y="1401" type="line"/>
			<point x="127" y="1358" type="line"/>
			<point x="548" y="-20" type="line"/>
			<point x="586" y="-20" type="line"/>
		</contour>
	</outline>
	<anchor name="UCtop" x="1080" y="1430"/>
	<anchor name="bottom" x="1080" y="0"/>
</glyph>
<glyph name="X" format="2">
	<unicode hex="0058"/>
	<advance width="1458"/>
	<outline>
		<contour>
			<point x="713" y="692" type="line"/>
			<point x="767" y="746" type="line"/>
			<point x="1244" y="1350" type="line"/>
			<point x="1397" y="1401" type="line"/>
			<point x="1397" y="1430" type="line"/>
			<point x="981" y="1430" type="line"/>
			<point x="981" y="1401" type="line"/>
			<point x="1171" y="1353" type="line"/>
			<point x="730" y="789" type="line"/>
			<point x="678" y="737" type="line"/>
			<point x="151" y="80" type="line"/>
			<point x="-2" y="29" type="line"/>
			<point x="-2" y="0" type="line"/>
			<point x="414" y="0" type="line"/>
			<point x="414" y="29" type="line"/>
			<point x="224" y="77" type="line"/>
		</contour>
		<contour>
			<point x="1090" y="70" type="line"/>
			<point x="908" y="29" type="line"/>
			<point x="908" y="0" type="line"/>
			<point x="1473" y="0" type="line"/>
			<point x="1473" y="29" type="line"/>
			<point x="1317" y="72" type="line"/>
			<point x="793" y="825" type="line"/>
			<point x="780" y="843" type="line"/>
			<point x="419" y="1360" type="line"/>
			<point x="601" y="1401" type="line"/>
			<point x="601" y="1430" type="line"/>
			<point x="36" y="1430" type="line"/>
			<point x="36" y="1401" type="line"/>
			<point x="192" y="1358" type="line"/>
			<point x="655" y="694" type="line"/>
			<point x="672" y="669" type="line"/>
		</contour>
	</outline>
	<anchor name="UCtop" x="766" y="1430"/>
	<anchor name="bottom" x="706" y="0"/>
</glyph>
<glyph name="Y" format="2">
	<unicode hex="0059"/>
	<advance width="1390"/>
	<outline>
		<contour>
			<point x="131" y="1358" type="line"/>
			<point x="611" y="657" type="line"/>
			<point x="611" y="71" type="line"/>
			<point x="432" y="29" type="line"/>
			<point x="432" y="0" type="line"/>
			<point x="996" y="0" type="line"/>
			<point x="996" y="29" type="line"/>
			<point x="817" y="71" type="line"/>
			<point x="817" y="655" type="line"/>
			<point x="1239" y="1350" type="line"/>
			<point x="1392" y="1401" type="line"/>
			<point x="1392" y="1430" type="line"/>
			<point x="987" y="1430" type="line"/>
			<point x="987" y="1401" type="line"/>
			<point x="1177" y="1353" type="line"/>
			<point x="778" y="685" type="line"/>
			<point x="816" y="685" type="line"/>
			<point x="356" y="1360" type="line"/>
			<point x="542" y="1401" type="line"/>
			<point x="542" y="1430" type="line"/>
			<point x="-25" y="1430" type="line"/>
			<point x="-25" y="1401" type="line"/>
		</contour>
	</outline>
	<anchor name="UCtop" x="733" y="1430"/>
	<anchor name="bottom" x="714" y="0"/>
</glyph>
<glyph name="Z" format="2">
	<unicode hex="005A"/>
	<advance width="1299"/>
	<outline>
		<contour>
			<point x="1190" y="1430" type="line"/>
			<point x="300" y="1430" type="line"/>
			<point x="155" y="1493" type="line"/>
			<point x="142" y="1493" type="line"/>
			<point x="63" y="1033" type="line"/>
			<point x="86" y="1028" type="line"/>
			<point x="301" y="1370" type="line"/>
			<point x="1118" y="1370" type="line"/>
			<point x="972" y="1407" type="line"/>
			<point x="101" y="11" type="line"/>
			<point x="101" y="0" type="line"/>
			<point x="1016" y="0" type="line"/>
			<point x="1153" y="-52" type="line"/>
			<point x="1170" y="-52" type="line"/>
			<point x="1245" y="398" type="line"/>
			<point x="1218" y="403" type="line"/>
			<point x="1001" y="60" type="line"/>
			<point x="278" y="60" type="line"/>
			<point x="321" y="26" type="line"/>
			<point x="1190" y="1418" type="line"/>
		</contour>
	</outline>
	<anchor name="UCtop" x="674" y="1430"/>
	<anchor name="bottom" x="654" y="0"/>
</glyph>
<glyph name="bracketleft" format="2">
  <advance width="583"/>
  <unicode hex="005B"/>
  <outline>
    <contour>
      <point x="191.0" y="-233.0" type="line"/>
      <point x="560.0" y="-233.0" type="line"/>
      <point x="560.0" y="-204.0" type="line"/>
      <point x="333.0" y="-180.0" type="line"/>
      <point x="333.0" y="1411.0" type="line"/>
      <point x="560.0" y="1435.0" type="line"/>
      <point x="560.0" y="1464.0" type="line"/>
      <point x="191.0" y="1464.0" type="line"/>
    </contour>
  </outline>
</glyph>
<glyph name="bracketright" format="2">
  <advance width="583"/>
  <unicode hex="005D"/>
  <outline>
    <contour>
      <point x="392.0" y="1464.0" type="line"/>
      <point x="23.0" y="1464.0" type="line"/>
      <point x="23.0" y="1435.0" type="line"/>
      <point x="250.0" y="1411.0" type="line"/>
      <point x="250.0" y="-180.0" type="line"/>
      <point x="23.0" y="-204.0" type="line"/>
      <point x="23.0" y="-233.0" type="line"/>
      <point x="392.0" y="-233.0" type="line"/>
    </contour>
  </outline>
</glyph>
<glyph name="asciicircum" format="2">
	<unicode hex="005E"/>
	<advance width="1150"/>
	<outline>
		<contour>
			<point x="566" y="1367" type="line"/>
			<point x="895" y="662" type="line"/>
			<point x="967" y="662" type="line"/>
			<point x="605" y="1430" type="line"/>
			<point x="543" y="1430" type="line"/>
			<point x="183" y="662" type="line"/>
			<point x="255" y="662" type="line"/>
			<point x="581" y="1367" type="line"/>
		</contour>
	</outline>
</glyph>
<glyph name="a" format="2">
	<unicode hex="0061"/>
	<advance width="1018"/>
	<outline>
		<contour>
			<point x="705" y="666" type="line"/>
			<point x="168" y="488"/>
			<point x="83" y="413"/>
			<point x="83" y="238" type="curve" smooth="yes"/>
			<point x="83" y="70"/>
			<point x="207" y="-20"/>
			<point x="373" y="-20" type="curve" smooth="yes"/>
			<point x="503" y="-20"/>
			<point x="605" y="74"/>
			<point x="639" y="203" type="curve"/>
			<point x="636" y="203" type="line"/>
			<point x="641" y="62"/>
			<point x="676" y="-20"/>
			<point x="795" y="-20" type="curve" smooth="yes"/>
			<point x="875" y="-20"/>
			<point x="944" y="-2"/>
			<point x="1043" y="115" type="curve"/>
			<point x="1043" y="142" type="line"/>
			<point x="995" y="109"/>
			<point x="951" y="95"/>
			<point x="906" y="95" type="curve" smooth="yes"/>
			<point x="857" y="95"/>
			<point x="823" y="120"/>
			<point x="823" y="186" type="curve" smooth="yes"/>
			<point x="823" y="779" type="line" smooth="yes"/>
			<point x="823" y="938"/>
			<point x="737" y="1044"/>
			<point x="512" y="1044" type="curve" smooth="yes"/>
			<point x="333" y="1044"/>
			<point x="91" y="922"/>
			<point x="91" y="810" type="curve" smooth="yes"/>
			<point x="91" y="768"/>
			<point x="122" y="750"/>
			<point x="170" y="750" type="curve" smooth="yes"/>
			<point x="207" y="750"/>
			<point x="247" y="763"/>
			<point x="264" y="784" type="curve" smooth="yes"/>
			<point x="290" y="816"/>
			<point x="305" y="906"/>
			<point x="312" y="980" type="curve"/>
			<point x="259" y="940" type="line"/>
			<point x="296" y="959"/>
			<point x="369" y="969"/>
			<point x="435" y="969" type="curve" smooth="yes"/>
			<point x="572" y="969"/>
			<point x="639" y="897"/>
			<point x="639" y="760" type="curve" smooth="yes"/>
			<point x="639" y="301" type="line" smooth="yes"/>
			<point x="639" y="175"/>
			<point x="561" y="106"/>
			<point x="446" y="106" type="curve" smooth="yes"/>
			<point x="350" y="106"/>
			<point x="274" y="164"/>
			<point x="274" y="279" type="curve" smooth="yes"/>
			<point x="274" y="420"/>
			<point x="340" y="506"/>
			<point x="716" y="624" type="curve"/>
		</contour>
	</outline>
	<anchor name="top" x="473" y="1024"/>
	<anchor name="right" x="1043" y="0"/>
	<anchor name="bottom" x="473" y="0"/>
</glyph>
<glyph name="b" format="2">
	<unicode hex="0062"/>
	<advance width="1164"/>
	<outline>
		<contour>
			<point x="200" y="61" type="line"/>
			<point x="297" y="5"/>
			<point x="425" y="-20"/>
			<point x="542" y="-20" type="curve" smooth="yes"/>
			<point x="863" y="-20"/>
			<point x="1088" y="195"/>
			<point x="1088" y="562" type="curve" smooth="yes"/>
			<point x="1088" y="851"/>
			<point x="932" y="1044"/>
			<point x="670" y="1044" type="curve" smooth="yes"/>
			<point x="560" y="1044"/>
			<point x="441" y="988"/>
			<point x="264" y="798" type="curve"/>
			<point x="279" y="778" type="line"/>
			<point x="368" y="873"/>
			<point x="463" y="907"/>
			<point x="576" y="907" type="curve" smooth="yes"/>
			<point x="787" y="907"/>
			<point x="892" y="768"/>
			<point x="892" y="482" type="curve" smooth="yes"/>
			<point x="892" y="189"/>
			<point x="780" y="28"/>
			<point x="584" y="28" type="curve" smooth="yes"/>
			<point x="443" y="28"/>
			<point x="334" y="122"/>
			<point x="334" y="253" type="curve" smooth="yes"/>
			<point x="334" y="1319" type="line"/>
			<point x="347" y="1484" type="line"/>
			<point x="336" y="1484" type="line"/>
			<point x="-6" y="1410" type="line"/>
			<point x="-6" y="1395" type="line"/>
			<point x="72" y="1347"/>
			<point x="124" y="1315"/>
			<point x="150" y="1299" type="curve"/>
			<point x="150" y="225" type="line"/>
			<point x="110" y="-28" type="line"/>
			<point x="123" y="-35" type="line"/>
			<point x="323" y="89" type="line"/>
		</contour>
	</outline>
	<anchor name="UCtop" x="621" y="1430"/>
	<anchor name="bottom" x="581" y="0"/>
</glyph>
<glyph name="c" format="2">
	<unicode hex="0063"/>
	<advance width="943"/>
	<outline>
		<contour>
			<point x="599" y="1044" type="curve" smooth="yes"/>
			<point x="298" y="1044"/>
			<point x="75" y="813"/>
			<point x="75" y="494" type="curve" smooth="yes"/>
			<point x="75" y="158"/>
			<point x="267" y="-20"/>
			<point x="518" y="-20" type="curve" smooth="yes"/>
			<point x="673" y="-20"/>
			<point x="789" y="48"/>
			<point x="908" y="247" type="curve"/>
			<point x="893" y="258" type="line"/>
			<point x="828" y="167"/>
			<point x="722" y="123"/>
			<point x="616" y="123" type="curve" smooth="yes"/>
			<point x="387" y="123"/>
			<point x="265" y="260"/>
			<point x="265" y="595" type="curve" smooth="yes"/>
			<point x="265" y="868"/>
			<point x="367" y="991"/>
			<point x="513" y="991" type="curve" smooth="yes"/>
			<point x="640" y="991"/>
			<point x="747" y="798"/>
			<point x="774" y="798" type="curve" smooth="yes"/>
			<point x="837" y="798"/>
			<point x="876" y="836"/>
			<point x="876" y="899" type="curve" smooth="yes"/>
			<point x="876" y="977"/>
			<point x="791" y="1044"/>
		</contour>
	</outline>
	<anchor name="top" x="529" y="1024"/>
	<anchor name="right" x="908" y="0"/>
	<anchor name="bottom" x="529" y="0"/>
</glyph>
<glyph name="e" format="2">
	<unicode hex="0065"/>
	<advance width="986"/>
	<outline>
		<contour>
			<point x="554" y="1044" type="curve" smooth="yes"/>
			<point x="251" y="1044"/>
			<point x="75" y="791"/>
			<point x="75" y="494" type="curve" smooth="yes"/>
			<point x="75" y="158"/>
			<point x="274" y="-20"/>
			<point x="535" y="-20" type="curve" smooth="yes"/>
			<point x="696" y="-20"/>
			<point x="816" y="48"/>
			<point x="940" y="247" type="curve"/>
			<point x="924" y="258" type="line"/>
			<point x="857" y="167"/>
			<point x="747" y="123"/>
			<point x="637" y="123" type="curve" smooth="yes"/>
			<point x="399" y="123"/>
			<point x="265" y="260"/>
			<point x="265" y="595" type="curve" smooth="yes"/>
			<point x="265" y="849"/>
			<point x="362" y="995"/>
			<point x="524" y="995" type="curve" smooth="yes"/>
			<point x="644" y="995"/>
			<point x="707" y="897"/>
			<point x="728" y="682" type="curve"/>
			<point x="806" y="722" type="line"/>
			<point x="254" y="722" type="line"/>
			<point x="254" y="664" type="line"/>
			<point x="916" y="664" type="line"/>
			<point x="898" y="912"/>
			<point x="764" y="1044"/>
		</contour>
	</outline>
	<anchor name="top" x="529" y="1024"/>
	<anchor name="right" x="940" y="0"/>
	<anchor name="bottom" x="529" y="0"/>
</glyph>
<glyph name="f" format="2">
	<unicode hex="0066"/>
	<advance width="712"/>
	<outline>
		<contour>
			<point x="253" y="916" type="line"/>
			<point x="690" y="916" type="line"/>
			<point x="706" y="1024" type="line"/>
			<point x="273" y="1024" type="line"/>
			<point x="224" y="1029" type="line"/>
			<point x="31" y="972" type="line"/>
			<point x="31" y="940" type="line"/>
			<point x="212" y="902" type="line"/>
		</contour>
		<contour>
			<point x="386" y="57" type="line"/>
			<point x="386" y="1186" type="line" smooth="yes"/>
			<point x="386" y="1339"/>
			<point x="433" y="1414"/>
			<point x="542" y="1414" type="curve" smooth="yes"/>
			<point x="669" y="1414"/>
			<point x="788" y="1267"/>
			<point x="815" y="1267" type="curve" smooth="yes"/>
			<point x="865" y="1267"/>
			<point x="900" y="1312"/>
			<point x="900" y="1360" type="curve" smooth="yes"/>
			<point x="900" y="1430"/>
			<point x="827" y="1484"/>
			<point x="679" y="1484" type="curve" smooth="yes"/>
			<point x="407" y="1484"/>
			<point x="196" y="1292"/>
			<point x="196" y="1015" type="curve" smooth="yes"/>
			<point x="196" y="57" type="line"/>
			<point x="53" y="27" type="line"/>
			<point x="53" y="0" type="line"/>
			<point x="549" y="0" type="line"/>
			<point x="549" y="27" type="line"/>
		</contour>
	</outline>
	<anchor name="UCtop" x="551" y="1430"/>
	<anchor name="bottom" x="291" y="0"/>
</glyph>
<glyph name="g" format="2">
	<unicode hex="0067"/>
	<advance width="1017"/>
	<outline>
		<contour>
			<point x="443" y="-465" type="curve" smooth="yes"/>
			<point x="801" y="-465"/>
			<point x="973" y="-301"/>
			<point x="973" y="-123" type="curve" smooth="yes"/>
			<point x="973" y="37"/>
			<point x="843" y="122"/>
			<point x="543" y="149" type="curve" smooth="yes"/>
			<point x="303" y="171"/>
			<point x="256" y="200"/>
			<point x="256" y="278" type="curve" smooth="yes"/>
			<point x="256" y="320"/>
			<point x="287" y="371"/>
			<point x="383" y="378" type="curve"/>
			<point x="369" y="402" type="line"/>
			<point x="212.7322485547" y="358.926196717"/>
			<point x="114" y="290.3798076923"/>
			<point x="114" y="189" type="curve" smooth="yes"/>
			<point x="114" y="78"/>
			<point x="173" y="1"/>
			<point x="419" y="-23" type="curve" smooth="yes"/>
			<point x="723" y="-45"/>
			<point x="829" y="-89"/>
			<point x="829" y="-209" type="curve" smooth="yes"/>
			<point x="829" y="-329.8502415459"/>
			<point x="714.2777777778" y="-421"/>
			<point x="479" y="-421" type="curve" smooth="yes"/>
			<point x="279.8535031847" y="-421"/>
			<point x="155" y="-342.1753554502"/>
			<point x="155" y="-205" type="curve" smooth="yes"/>
			<point x="155" y="-109"/>
			<point x="226" y="-25"/>
			<point x="456" y="10" type="curve"/>
			<point x="456" y="28" type="line"/>
			<point x="389" y="28" type="line"/>
			<point x="101" y="-34"/>
			<point x="7" y="-127"/>
			<point x="7" y="-228" type="curve" smooth="yes"/>
			<point x="7" y="-357"/>
			<point x="128" y="-465"/>
		</contour>
		<contour>
			<point x="456" y="364" type="curve" smooth="yes"/>
			<point x="679" y="364"/>
			<point x="842" y="507"/>
			<point x="842" y="703" type="curve" smooth="yes"/>
			<point x="842" y="900"/>
			<point x="679" y="1044"/>
			<point x="456" y="1044" type="curve" smooth="yes"/>
			<point x="242" y="1044"/>
			<point x="75" y="900"/>
			<point x="75" y="703" type="curve" smooth="yes"/>
			<point x="75" y="507"/>
			<point x="242" y="364"/>
		</contour>
		<contour>
			<point x="489" y="398" type="curve" smooth="yes"/>
			<point x="365" y="387"/>
			<point x="277" y="507"/>
			<point x="260" y="682" type="curve" smooth="yes"/>
			<point x="242" y="854"/>
			<point x="306" y="998"/>
			<point x="423" y="1010" type="curve" smooth="yes"/>
			<point x="552" y="1021"/>
			<point x="637" y="908"/>
			<point x="656" y="728" type="curve" smooth="yes"/>
			<point x="676" y="555"/>
			<point x="617" y="414"/>
		</contour>
		<contour>
			<point x="584" y="1005" type="line"/>
			<point x="816" y="986"/>
			<point x="865" y="879"/>
			<point x="923" y="879" type="curve" smooth="yes"/>
			<point x="970" y="879"/>
			<point x="1022" y="925"/>
			<point x="1022" y="1006" type="curve" smooth="yes"/>
			<point x="1022" y="1044"/>
			<point x="1006" y="1060"/>
			<point x="985" y="1060" type="curve" smooth="yes"/>
			<point x="950" y="1060"/>
			<point x="896" y="1009"/>
			<point x="543" y="1036" type="curve"/>
		</contour>
	</outline>
	<anchor name="top" x="465" y="1024"/>
	<anchor name="bottom" x="485" y="-445"/>
</glyph>
<glyph name="h" format="2">
	<unicode hex="0068"/>
	<advance width="1178"/>
	<outline>
		<contour>
			<point x="679" y="27" type="line"/>
			<point x="679" y="0" type="line"/>
			<point x="1150" y="0" type="line"/>
			<point x="1150" y="27" type="line"/>
			<point x="1007" y="57" type="line"/>
			<point x="1007" y="717" type="line" smooth="yes"/>
			<point x="1007" y="944"/>
			<point x="926" y="1044"/>
			<point x="730" y="1044" type="curve" smooth="yes"/>
			<point x="611" y="1044"/>
			<point x="531" y="1012"/>
			<point x="322" y="857" type="curve"/>
			<point x="335" y="836" type="line"/>
			<point x="397" y="866"/>
			<point x="499" y="902"/>
			<point x="604" y="902" type="curve" smooth="yes"/>
			<point x="755" y="902"/>
			<point x="823" y="834"/>
			<point x="823" y="700" type="curve" smooth="yes"/>
			<point x="823" y="57" type="line"/>
		</contour>
		<contour>
			<point x="502" y="0" type="line"/>
			<point x="502" y="27" type="line"/>
			<point x="359" y="57" type="line"/>
			<point x="359" y="860" type="line"/>
			<point x="359" y="1484" type="line"/>
			<point x="355" y="1484" type="line"/>
			<point x="12" y="1407" type="line"/>
			<point x="12" y="1389" type="line"/>
			<point x="90" y="1353.5889570552"/>
			<point x="149" y="1326.8036809816"/>
			<point x="175" y="1315" type="curve"/>
			<point x="175" y="57" type="line"/>
			<point x="32" y="27" type="line"/>
			<point x="32" y="0" type="line"/>
		</contour>
	</outline>
	<anchor name="UCtop" x="599" y="1430"/>
	<anchor name="bottom" x="591" y="0"/>
	<anchor name="center" x="346" y="1182"/>
</glyph>
<glyph name="i" format="2">
	<unicode hex="0069"/>
	<advance width="553"/>
	<outline>
		<contour>
			<point x="268" y="1202" type="curve" smooth="yes"/>
			<point x="352" y="1202"/>
			<point x="400" y="1270"/>
			<point x="400" y="1341" type="curve" smooth="yes"/>
			<point x="400" y="1411"/>
			<point x="352" y="1471"/>
			<point x="268" y="1471" type="curve" smooth="yes"/>
			<point x="184" y="1471"/>
			<point x="132" y="1411"/>
			<point x="132" y="1341" type="curve" smooth="yes"/>
			<point x="132" y="1270"/>
			<point x="184" y="1202"/>
		</contour>
		<contour>
			<point x="376" y="1055" type="line"/>
			<point x="372" y="1055" type="line"/>
			<point x="49" y="964" type="line"/>
			<point x="49" y="946" type="line"/>
			<point x="110" y="907.6083916084"/>
			<point x="170" y="869.8461538462"/>
			<point x="192" y="856" type="curve"/>
			<point x="192" y="57" type="line"/>
			<point x="49" y="27" type="line"/>
			<point x="49" y="0" type="line"/>
			<point x="519" y="0" type="line"/>
			<point x="519" y="27" type="line"/>
			<point x="376" y="57" type="line"/>
			<point x="376" y="860" type="line"/>
		</contour>
	</outline>
	<anchor name="top" x="278" y="1430"/>
	<anchor name="bottom" x="284" y="0"/>
	<anchor name="right" x="421" y="0"/>
</glyph>
<glyph name="j" format="2">
	<unicode hex="006A"/>
	<advance width="506"/>
	<outline>
		<contour>
			<point x="253" y="1202" type="curve" smooth="yes"/>
			<point x="337" y="1202"/>
			<point x="385" y="1270"/>
			<point x="385" y="1341" type="curve" smooth="yes"/>
			<point x="385" y="1411"/>
			<point x="337" y="1471"/>
			<point x="253" y="1471" type="curve" smooth="yes"/>
			<point x="169" y="1471"/>
			<point x="117" y="1411"/>
			<point x="117" y="1341" type="curve" smooth="yes"/>
			<point x="117" y="1270"/>
			<point x="169" y="1202"/>
		</contour>
		<contour>
			<point x="178" y="856" type="curve"/>
			<point x="178" y="12" type="line"/>
			<point x="178" y="-217"/>
			<point x="174" y="-244"/>
			<point x="-1" y="-446" type="curve"/>
			<point x="20" y="-465" type="line"/>
			<point x="350" y="-176"/>
			<point x="362" y="-140"/>
			<point x="362" y="64" type="curve" smooth="yes"/>
			<point x="362" y="860" type="line"/>
			<point x="362" y="1055" type="line"/>
			<point x="358" y="1055" type="line"/>
			<point x="35" y="964" type="line"/>
			<point x="35" y="946" type="line"/>
			<point x="96" y="907.6083916084"/>
			<point x="156" y="869.8461538462"/>
		</contour>
	</outline>
	<anchor name="top" x="255" y="1430"/>
	<anchor name="bottom" x="235" y="-445"/>
</glyph>
<glyph name="k" format="2">
	<unicode hex="006B"/>
	<advance width="1137"/>
	<outline>
		<contour>
			<point x="462" y="594" type="line"/>
			<point x="938" y="958" type="line"/>
			<point x="1085" y="991" type="line"/>
			<point x="1085" y="1024" type="line"/>
			<point x="701" y="1024" type="line"/>
			<point x="701" y="991" type="line"/>
			<point x="848" y="960" type="line"/>
			<point x="377" y="582" type="line"/>
			<point x="324" y="582" type="line"/>
			<point x="324" y="536" type="line"/>
			<point x="366" y="536" type="line"/>
			<point x="815" y="54" type="line"/>
			<point x="678" y="27" type="line"/>
			<point x="678" y="0" type="line"/>
			<point x="1158" y="0" type="line"/>
			<point x="1158" y="27" type="line"/>
			<point x="1045" y="56" type="line"/>
			<point x="504" y="637" type="line"/>
		</contour>
		<contour>
			<point x="359" y="57" type="line"/>
			<point x="359" y="1320" type="line"/>
			<point x="359" y="1484" type="line"/>
			<point x="355" y="1484" type="line"/>
			<point x="12" y="1407" type="line"/>
			<point x="12" y="1389" type="line"/>
			<point x="90" y="1353.5889570552"/>
			<point x="149" y="1326.8036809816"/>
			<point x="175" y="1315" type="curve"/>
			<point x="175" y="57" type="line"/>
			<point x="32" y="27" type="line"/>
			<point x="32" y="0" type="line"/>
			<point x="502" y="0" type="line"/>
			<point x="502" y="27" type="line"/>
		</contour>
	</outline>
	<anchor name="UCtop" x="576" y="1430"/>
	<anchor name="bottom" x="579" y="0"/>
</glyph>
<glyph name="l" format="2">
	<unicode hex="006C"/>
	<advance width="540"/>
	<outline>
		<contour>
			<point x="362" y="57" type="line"/>
			<point x="362" y="1310" type="line"/>
			<point x="362" y="1484" type="line"/>
			<point x="358" y="1484" type="line"/>
			<point x="15" y="1407" type="line"/>
			<point x="15" y="1389" type="line"/>
			<point x="93" y="1353.5889570552"/>
			<point x="152" y="1326.8036809816"/>
			<point x="178" y="1315" type="curve"/>
			<point x="178" y="57" type="line"/>
			<point x="35" y="27" type="line"/>
			<point x="35" y="0" type="line"/>
			<point x="505" y="0" type="line"/>
			<point x="505" y="27" type="line"/>
		</contour>
	</outline>
	<anchor name="UCtop" x="260" y="1430"/>
	<anchor name="right" x="362" y="1430"/>
	<anchor name="bottom" x="270" y="0"/>
	<anchor name="mid" x="586" y="582"/>
</glyph>
<glyph name="m" format="2">
	<unicode hex="006D"/>
	<advance width="1761"/>
	<outline>
		<contour>
			<point x="373" y="860" type="line"/>
			<point x="373" y="1055" type="line"/>
			<point x="369" y="1055" type="line"/>
			<point x="46" y="964" type="line"/>
			<point x="46" y="946" type="line"/>
			<point x="137" y="888.7272727273"/>
			<point x="167" y="869.8461538462"/>
			<point x="189" y="856" type="curve"/>
			<point x="189" y="57" type="line"/>
			<point x="46" y="27" type="line"/>
			<point x="46" y="0" type="line"/>
			<point x="516" y="0" type="line"/>
			<point x="516" y="27" type="line"/>
			<point x="373" y="57" type="line"/>
		</contour>
		<contour>
			<point x="981" y="736" type="line" smooth="yes"/>
			<point x="981" y="950"/>
			<point x="904" y="1044"/>
			<point x="720" y="1044" type="curve" smooth="yes"/>
			<point x="608" y="1044"/>
			<point x="533" y="1014"/>
			<point x="336" y="868" type="curve"/>
			<point x="348" y="841" type="line"/>
			<point x="406" y="870"/>
			<point x="500" y="902"/>
			<point x="595" y="902" type="curve" smooth="yes"/>
			<point x="734" y="902"/>
			<point x="797" y="839"/>
			<point x="797" y="716" type="curve" smooth="yes"/>
			<point x="797" y="57" type="line"/>
			<point x="653" y="27" type="line"/>
			<point x="653" y="0" type="line"/>
			<point x="1124" y="0" type="line"/>
			<point x="1124" y="27" type="line"/>
			<point x="981" y="57" type="line"/>
		</contour>
		<contour>
			<point x="1589" y="736" type="line" smooth="yes"/>
			<point x="1589" y="950"/>
			<point x="1512" y="1044"/>
			<point x="1328" y="1044" type="curve" smooth="yes"/>
			<point x="1216" y="1044"/>
			<point x="1141" y="1014"/>
			<point x="944" y="868" type="curve"/>
			<point x="956" y="841" type="line"/>
			<point x="1014" y="870"/>
			<point x="1108" y="902"/>
			<point x="1203" y="902" type="curve" smooth="yes"/>
			<point x="1342" y="902"/>
			<point x="1405" y="839"/>
			<point x="1405" y="716" type="curve" smooth="yes"/>
			<point x="1405" y="57" type="line"/>
			<point x="1261" y="27" type="line"/>
			<point x="1261" y="0" type="line"/>
			<point x="1732" y="0" type="line"/>
			<point x="1732" y="27" type="line"/>
			<point x="1589" y="57" type="line"/>
		</contour>
	</outline>
	<anchor name="top" x="889" y="1024"/>
	<anchor name="bottom" x="889" y="0"/>
</glyph>
<glyph name="n" format="2">
	<unicode hex="006E"/>
	<advance width="1192"/>
	<outline>
		<contour>
			<point x="373" y="860" type="line"/>
			<point x="373" y="1055" type="line"/>
			<point x="369" y="1055" type="line"/>
			<point x="46" y="964" type="line"/>
			<point x="46" y="946" type="line"/>
			<point x="137" y="888.7272727273"/>
			<point x="167" y="869.8461538462"/>
			<point x="189" y="856" type="curve"/>
			<point x="189" y="57" type="line"/>
			<point x="46" y="27" type="line"/>
			<point x="46" y="0" type="line"/>
			<point x="516" y="0" type="line"/>
			<point x="516" y="27" type="line"/>
			<point x="373" y="57" type="line"/>
		</contour>
		<contour>
			<point x="693" y="27" type="line"/>
			<point x="693" y="0" type="line"/>
			<point x="1164" y="0" type="line"/>
			<point x="1164" y="27" type="line"/>
			<point x="1021" y="57" type="line"/>
			<point x="1021" y="717" type="line" smooth="yes"/>
			<point x="1021" y="944"/>
			<point x="940" y="1044"/>
			<point x="744" y="1044" type="curve" smooth="yes"/>
			<point x="625" y="1044"/>
			<point x="545" y="1012"/>
			<point x="336" y="857" type="curve"/>
			<point x="349" y="836" type="line"/>
			<point x="411" y="866"/>
			<point x="513" y="902"/>
			<point x="618" y="902" type="curve" smooth="yes"/>
			<point x="769" y="902"/>
			<point x="837" y="834"/>
			<point x="837" y="700" type="curve" smooth="yes"/>
			<point x="837" y="57" type="line"/>
		</contour>
	</outline>
	<anchor name="top" x="605" y="1024"/>
	<anchor name="bottom" x="605" y="0"/>
</glyph>
<glyph name="o" format="2">
	<unicode hex="006F"/>
	<advance width="1138"/>
	<outline>
		<contour>
			<point x="566" y="24" type="curve" smooth="yes"/>
			<point x="376" y="24"/>
			<point x="276" y="192"/>
			<point x="276" y="513" type="curve" smooth="yes"/>
			<point x="276" y="833"/>
			<point x="378" y="1000"/>
			<point x="572" y="1000" type="curve" smooth="yes"/>
			<point x="762" y="1000"/>
			<point x="862" y="832"/>
			<point x="862" y="511" type="curve" smooth="yes"/>
			<point x="862" y="191"/>
			<point x="760" y="24"/>
		</contour>
		<contour>
			<point x="564" y="-20" type="curve" smooth="yes"/>
			<point x="836" y="-20"/>
			<point x="1065" y="198"/>
			<point x="1065" y="511" type="curve" smooth="yes"/>
			<point x="1065" y="824"/>
			<point x="852" y="1044"/>
			<point x="574" y="1044" type="curve" smooth="yes"/>
			<point x="296" y="1044"/>
			<point x="73" y="825"/>
			<point x="73" y="513" type="curve" smooth="yes"/>
			<point x="73" y="201"/>
			<point x="292" y="-20"/>
		</contour>
	</outline>
	<anchor name="top" x="569" y="1024"/>
	<anchor name="bottom" x="569" y="0"/>
	<anchor name="horn" x="754" y="1022"/>
	<anchor name="right" x="745" y="0"/>
</glyph>
<glyph name="p" format="2">
	<unicode hex="0070"/>
	<advance width="1190"/>
	<outline>
		<contour>
			<point x="918" y="482" type="curve" smooth="yes"/>
			<point x="918" y="189"/>
			<point x="806" y="28"/>
			<point x="610" y="28" type="curve" smooth="yes"/>
			<point x="469" y="28"/>
			<point x="360" y="122"/>
			<point x="360" y="253" type="curve"/>
			<point x="360" y="892" type="line"/>
			<point x="360" y="1055" type="line"/>
			<point x="356" y="1055" type="line"/>
			<point x="33" y="964" type="line"/>
			<point x="33" y="946" type="line"/>
			<point x="107" y="899.4265734266"/>
			<point x="150" y="872.3636363636"/>
			<point x="176" y="856" type="curve"/>
			<point x="176" y="-388" type="line"/>
			<point x="33" y="-418" type="line"/>
			<point x="33" y="-445" type="line"/>
			<point x="523" y="-445" type="line"/>
			<point x="523" y="-418" type="line"/>
			<point x="360" y="-388" type="line"/>
			<point x="360" y="61" type="line"/>
			<point x="226" y="61" type="line"/>
			<point x="323" y="5"/>
			<point x="451" y="-20"/>
			<point x="568" y="-20" type="curve" smooth="yes"/>
			<point x="889" y="-20"/>
			<point x="1114" y="195"/>
			<point x="1114" y="562" type="curve" smooth="yes"/>
			<point x="1114" y="851"/>
			<point x="958" y="1044"/>
			<point x="696" y="1044" type="curve" smooth="yes"/>
			<point x="586" y="1044"/>
			<point x="467" y="988"/>
			<point x="290" y="798" type="curve"/>
			<point x="305" y="778" type="line"/>
			<point x="394" y="873"/>
			<point x="489" y="907"/>
			<point x="602" y="907" type="curve" smooth="yes"/>
			<point x="813" y="907"/>
			<point x="918" y="768"/>
		</contour>
	</outline>
	<anchor name="top" x="593" y="1024"/>
	<anchor name="bottom" x="268" y="-445"/>
</glyph>
<glyph name="q" format="2">
	<unicode hex="0071"/>
	<advance width="1160"/>
	<outline>
		<contour>
			<point x="271" y="542" type="curve" smooth="yes"/>
			<point x="271" y="835"/>
			<point x="383" y="996"/>
			<point x="579" y="996" type="curve" smooth="yes"/>
			<point x="720" y="996"/>
			<point x="829" y="902"/>
			<point x="829" y="771" type="curve"/>
			<point x="829" y="-388" type="line"/>
			<point x="666" y="-418" type="line"/>
			<point x="666" y="-445" type="line"/>
			<point x="1156" y="-445" type="line"/>
			<point x="1156" y="-418" type="line"/>
			<point x="1013" y="-388" type="line"/>
			<point x="1013" y="823" type="line"/>
			<point x="1053" y="1036" type="line"/>
			<point x="1037" y="1044" type="line"/>
			<point x="840" y="939" type="line"/>
			<point x="963" y="963" type="line"/>
			<point x="866" y="1019"/>
			<point x="738" y="1044"/>
			<point x="621" y="1044" type="curve" smooth="yes"/>
			<point x="300" y="1044"/>
			<point x="75" y="829"/>
			<point x="75" y="462" type="curve" smooth="yes"/>
			<point x="75" y="173"/>
			<point x="241" y="-20"/>
			<point x="503" y="-20" type="curve" smooth="yes"/>
			<point x="613" y="-20"/>
			<point x="732" y="36"/>
			<point x="899" y="226" type="curve"/>
			<point x="884" y="246" type="line"/>
			<point x="795" y="151"/>
			<point x="700" y="117"/>
			<point x="587" y="117" type="curve" smooth="yes"/>
			<point x="376" y="117"/>
			<point x="271" y="256"/>
		</contour>
	</outline>
	<anchor name="top" x="585" y="1024"/>
	<anchor name="bottom" x="921" y="-445"/>
</glyph>
<glyph name="r" format="2">
	<unicode hex="0072"/>
	<advance width="799"/>
	<outline>
		<contour>
			<point x="686" y="1042" type="curve" smooth="yes"/>
			<point x="619" y="1042"/>
			<point x="562" y="1024"/>
			<point x="361" y="814" type="curve"/>
			<point x="361" y="770" type="line"/>
			<point x="414" y="819"/>
			<point x="461" y="852"/>
			<point x="519" y="852" type="curve" smooth="yes"/>
			<point x="581" y="852"/>
			<point x="622" y="830"/>
			<point x="667" y="830" type="curve" smooth="yes"/>
			<point x="733" y="830"/>
			<point x="782" y="877"/>
			<point x="782" y="948" type="curve" smooth="yes"/>
			<point x="782" y="1007"/>
			<point x="744" y="1042"/>
		</contour>
		<contour>
			<point x="373" y="860" type="line"/>
			<point x="373" y="1055" type="line"/>
			<point x="369" y="1055" type="line"/>
			<point x="46" y="964" type="line"/>
			<point x="46" y="946" type="line"/>
			<point x="120" y="899.4265734266"/>
			<point x="163" y="872.3636363636"/>
			<point x="189" y="856" type="curve"/>
			<point x="189" y="57" type="line"/>
			<point x="46" y="27" type="line"/>
			<point x="46" y="0" type="line"/>
			<point x="536" y="0" type="line"/>
			<point x="536" y="27" type="line"/>
			<point x="373" y="57" type="line"/>
		</contour>
	</outline>
	<anchor name="top" x="416" y="1024"/>
	<anchor name="bottom" x="281" y="0"/>
</glyph>
<glyph name="s" format="2">
	<unicode hex="0073"/>
	<advance width="838"/>
	<outline>
		<contour>
			<point x="464" y="1044" type="curve" smooth="yes"/>
			<point x="276" y="1044"/>
			<point x="112" y="946"/>
			<point x="112" y="768" type="curve" smooth="yes"/>
			<point x="112" y="635"/>
			<point x="170" y="538"/>
			<point x="364" y="465" type="curve" smooth="yes"/>
			<point x="558" y="392"/>
			<point x="613" y="326"/>
			<point x="613" y="225" type="curve" smooth="yes"/>
			<point x="613" y="91"/>
			<point x="505" y="26"/>
			<point x="393" y="26" type="curve" smooth="yes"/>
			<point x="330" y="26"/>
			<point x="270" y="45"/>
			<point x="218" y="83" type="curve"/>
			<point x="268" y="30" type="line"/>
			<point x="102" y="355" type="line"/>
			<point x="67" y="355" type="line"/>
			<point x="124" y="40" type="line"/>
			<point x="198" y="0"/>
			<point x="276" y="-20"/>
			<point x="378" y="-20" type="curve" smooth="yes"/>
			<point x="583" y="-20"/>
			<point x="758" y="111"/>
			<point x="758" y="301" type="curve" smooth="yes"/>
			<point x="758" y="439"/>
			<point x="703" y="542"/>
			<point x="494" y="623" type="curve" smooth="yes"/>
			<point x="284" y="704"/>
			<point x="256" y="762"/>
			<point x="256" y="844" type="curve" smooth="yes"/>
			<point x="256" y="945"/>
			<point x="323" y="1000"/>
			<point x="439" y="1000" type="curve" smooth="yes"/>
			<point x="526" y="1000"/>
			<point x="577" y="972"/>
			<point x="649" y="895" type="curve"/>
			<point x="571" y="985" type="line"/>
			<point x="700" y="712" type="line"/>
			<point x="731" y="712" type="line"/>
			<point x="700" y="986" type="line"/>
			<point x="622" y="1024"/>
			<point x="555" y="1044"/>
		</contour>
	</outline>
	<anchor name="top" x="420" y="1024"/>
	<anchor name="bottom" x="412" y="0"/>
</glyph>
<glyph name="t" format="2">
	<unicode hex="0074"/>
	<advance width="723"/>
	<outline>
		<contour>
			<point x="351" y="262" type="curve"/>
			<point x="351" y="988" type="line"/>
			<point x="351" y="1184" type="line"/>
			<point x="342" y="1184" type="line"/>
			<point x="191" y="1086"/>
			<point x="73.8979591837" y="1010"/>
			<point x="40" y="988" type="curve"/>
			<point x="40" y="974" type="line"/>
			<point x="167" y="896" type="line"/>
			<point x="167" y="238" type="line" smooth="yes"/>
			<point x="167" y="52"/>
			<point x="275" y="-21"/>
			<point x="389" y="-21" type="curve" smooth="yes"/>
			<point x="478" y="-21"/>
			<point x="538" y="10"/>
			<point x="724" y="120" type="curve"/>
			<point x="724" y="148" type="line"/>
			<point x="638" y="122"/>
			<point x="578" y="113"/>
			<point x="520" y="113" type="curve" smooth="yes"/>
			<point x="418" y="113"/>
			<point x="351" y="163"/>
		</contour>
		<contour>
			<point x="289" y="916" type="line"/>
			<point x="680" y="916" type="line"/>
			<point x="696" y="1024" type="line"/>
			<point x="289" y="1024" type="line"/>
		</contour>
	</outline>
	<anchor name="right" x="362" y="1531"/>
	<anchor name="bottom" x="412" y="0"/>
</glyph>
<glyph name="u" format="2">
	<unicode hex="0075"/>
	<advance width="1153"/>
	<outline>
		<contour>
			<point x="354" y="315" type="curve"/>
			<point x="354" y="943" type="line"/>
			<point x="364" y="1032" type="line"/>
			<point x="-8" y="1014" type="line"/>
			<point x="-8" y="975" type="line"/>
			<point x="170" y="943" type="line"/>
			<point x="170" y="308" type="line"/>
			<point x="170" y="81"/>
			<point x="252.2127659574" y="-20"/>
			<point x="446" y="-20" type="curve" smooth="yes"/>
			<point x="566" y="-20"/>
			<point x="645" y="12"/>
			<point x="855" y="168" type="curve"/>
			<point x="839" y="190" type="line"/>
			<point x="777" y="151"/>
			<point x="678" y="113"/>
			<point x="573" y="113" type="curve" smooth="yes"/>
			<point x="422" y="113"/>
			<point x="354" y="181"/>
		</contour>
		<contour>
			<point x="792" y="-26" type="line"/>
			<point x="797" y="-26" type="line"/>
			<point x="1135" y="15" type="line"/>
			<point x="1135" y="37" type="line"/>
			<point x="1093" y="53.9056603774"/>
			<point x="1000" y="91.3396226415"/>
			<point x="976" y="101" type="curve"/>
			<point x="976" y="943" type="line"/>
			<point x="986" y="1032" type="line"/>
			<point x="614" y="1014" type="line"/>
			<point x="614" y="975" type="line"/>
			<point x="792" y="943" type="line"/>
			<point x="792" y="164" type="line"/>
		</contour>
	</outline>
	<anchor name="top" x="544" y="1024"/>
	<anchor name="right" x="965" y="0"/>
	<anchor name="bottom" x="554" y="0"/>
	<anchor name="horn" x="927" y="1022"/>
</glyph>
<glyph name="v" format="2">
	<unicode hex="0076"/>
	<advance width="1132"/>
	<outline>
		<contour>
			<point x="1005" y="962" type="line"/>
			<point x="1124" y="991" type="line"/>
			<point x="1124" y="1024" type="line"/>
			<point x="782" y="1024" type="line"/>
			<point x="782" y="991" type="line"/>
			<point x="925" y="961" type="line"/>
			<point x="623" y="178" type="line"/>
			<point x="667" y="178" type="line"/>
			<point x="316" y="955" type="line"/>
			<point x="461" y="991" type="line"/>
			<point x="461" y="1024" type="line"/>
			<point x="-16" y="1024" type="line"/>
			<point x="-16" y="991" type="line"/>
			<point x="112" y="953" type="line"/>
			<point x="564" y="-26" type="line"/>
			<point x="590" y="-26" type="line"/>
		</contour>
	</outline>
	<anchor name="top" x="584" y="1024"/>
	<anchor name="bottom" x="574" y="0"/>
</glyph>
<glyph name="w" format="2">
	<unicode hex="0077"/>
	<advance width="1580"/>
	<outline>
		<contour>
			<point x="1364" y="961" type="line"/>
			<point x="1176" y="178" type="line"/>
			<point x="1225" y="231" type="line"/>
			<point x="839" y="1054" type="line"/>
			<point x="808" y="1054" type="line"/>
			<point x="498" y="178" type="line"/>
			<point x="544" y="216" type="line"/>
			<point x="322" y="955" type="line"/>
			<point x="467" y="991" type="line"/>
			<point x="467" y="1024" type="line"/>
			<point x="-4" y="1024" type="line"/>
			<point x="-4" y="991" type="line"/>
			<point x="124" y="953" type="line"/>
			<point x="432" y="-26" type="line"/>
			<point x="458" y="-26" type="line"/>
			<point x="800" y="799" type="line"/>
			<point x="741" y="799" type="line"/>
			<point x="1134" y="-26" type="line"/>
			<point x="1160" y="-26" type="line"/>
			<point x="1449" y="962" type="line"/>
			<point x="1578" y="991" type="line"/>
			<point x="1578" y="1024" type="line"/>
			<point x="1215" y="1024" type="line"/>
			<point x="1215" y="991" type="line"/>
		</contour>
	</outline>
	<anchor name="top" x="811" y="1024"/>
	<anchor name="bottom" x="811" y="0"/>
</glyph>
<glyph name="x" format="2">
  <advance width="1119"/>
  <unicode hex="0078"/>
  <anchor x="574.0" y="1024.0" name="top"/>
  <anchor x="564.0" y="0" name="bottom"/>
  <outline>
    <contour>
      <point x="982.0" y="67.0" type="line"/>
      <point x="622.0" y="592.0" type="line"/>
      <point x="616.0" y="601.0" type="line"/>
      <point x="373.0" y="957.0" type="line"/>
      <point x="514.0" y="991.0" type="line"/>
      <point x="514.0" y="1024.0" type="line"/>
      <point x="20.0" y="1024.0" type="line"/>
      <point x="20.0" y="991.0" type="line"/>
      <point x="162.0" y="951.0" type="line"/>
      <point x="495.0" y="464.0" type="line"/>
      <point x="503.0" y="452.0" type="line"/>
      <point x="767.0" y="66.0" type="line"/>
      <point x="620.0" y="33.0" type="line"/>
      <point x="620.0" y="0.0" type="line"/>
      <point x="1123.0" y="0.0" type="line"/>
      <point x="1123.0" y="33.0" type="line"/>
    </contour>
    <contour>
      <point x="562.0" y="501.0" type="line"/>
      <point x="576.0" y="501.0" type="line"/>
      <point x="958.0" y="963.0" type="line"/>
      <point x="1081.0" y="991.0" type="line"/>
      <point x="1081.0" y="1024.0" type="line"/>
      <point x="745.0" y="1024.0" type="line"/>
      <point x="745.0" y="991.0" type="line"/>
      <point x="878.0" y="963.0" type="line"/>
      <point x="554.0" y="551.0" type="line"/>
      <point x="541.0" y="551.0" type="line"/>
      <point x="139.0" y="61.0" type="line"/>
      <point x="6.0" y="33.0" type="line"/>
      <point x="6.0" y="0.0" type="line"/>
      <point x="345.0" y="0.0" type="line"/>
      <point x="345.0" y="33.0" type="line"/>
      <point x="222.0" y="61.0" type="line"/>
    </contour>
  </outline>
</glyph>
<glyph name="y" format="2">
	<unicode hex="0079"/>
	<advance width="1110"/>
	<outline>
		<contour>
			<point x="686" y="194" type="line"/>
			<point x="322" y="955" type="line"/>
			<point x="467" y="991" type="line"/>
			<point x="467" y="1024" type="line"/>
			<point x="-9" y="1024" type="line"/>
			<point x="-9" y="991" type="line"/>
			<point x="119" y="953" type="line"/>
			<point x="583" y="-26" type="line"/>
		</contour>
		<contour>
			<point x="242" y="-465" type="curve" smooth="yes"/>
			<point x="378" y="-465"/>
			<point x="475" y="-391"/>
			<point x="563" y="-155" type="curve" smooth="yes"/>
			<point x="978" y="962" type="line"/>
			<point x="1107" y="991" type="line"/>
			<point x="1107" y="1024" type="line"/>
			<point x="745" y="1024" type="line"/>
			<point x="745" y="991" type="line"/>
			<point x="894" y="961" type="line"/>
			<point x="640" y="171" type="line"/>
			<point x="598" y="67" type="line"/>
			<point x="516" y="-128" type="line" smooth="yes"/>
			<point x="455" y="-273"/>
			<point x="403" y="-303"/>
			<point x="314" y="-303" type="curve" smooth="yes"/>
			<point x="235" y="-303"/>
			<point x="187" y="-255"/>
			<point x="159" y="-255" type="curve" smooth="yes"/>
			<point x="130" y="-255"/>
			<point x="94" y="-282"/>
			<point x="94" y="-339" type="curve" smooth="yes"/>
			<point x="94" y="-421"/>
			<point x="157" y="-465"/>
		</contour>
	</outline>
	<anchor name="top" x="589" y="1024"/>
	<anchor name="bottom" x="738" y="-139"/>
</glyph>
<glyph name="z" format="2">
	<unicode hex="007A"/>
	<advance width="943"/>
	<outline>
		<contour>
			<point x="66" y="0" type="line"/>
			<point x="818" y="0" type="line"/>
			<point x="913" y="381" type="line"/>
			<point x="879" y="381" type="line"/>
			<point x="705" y="23" type="line"/>
			<point x="772" y="72" type="line"/>
			<point x="213" y="44" type="line"/>
			<point x="259" y="12" type="line"/>
			<point x="868" y="1006" type="line"/>
			<point x="868" y="1024" type="line"/>
			<point x="207" y="1024" type="line"/>
			<point x="137" y="1094" type="line"/>
			<point x="120" y="1094" type="line"/>
			<point x="60" y="673" type="line"/>
			<point x="92" y="673" type="line"/>
			<point x="217" y="994" type="line"/>
			<point x="157" y="957" type="line"/>
			<point x="711" y="976" type="line"/>
			<point x="676" y="1015" type="line"/>
			<point x="66" y="19" type="line"/>
		</contour>
	</outline>
	<anchor name="top" x="497" y="1024"/>
	<anchor name="bottom" x="477" y="0"/>
</glyph>
<glyph name="braceleft" format="2">
	<unicode hex="007B"/>
	<advance width="584"/>
	<outline>
		<contour>
			<point x="45" y="600" type="line"/>
			<point x="121" y="595" type="line" smooth="yes"/>
			<point x="223" y="587"/>
			<point x="256" y="532"/>
			<point x="256" y="451" type="curve" smooth="yes"/>
			<point x="256" y="294"/>
			<point x="181" y="167"/>
			<point x="181" y="45" type="curve" smooth="yes"/>
			<point x="181" y="-100"/>
			<point x="269" y="-225"/>
			<point x="454" y="-245" type="curve" smooth="yes"/>
			<point x="536" y="-253" type="line"/>
			<point x="542" y="-225" type="line"/>
			<point x="482" y="-216" type="line" smooth="yes"/>
			<point x="368" y="-200"/>
			<point x="325" y="-119"/>
			<point x="325" y="-4" type="curve" smooth="yes"/>
			<point x="325" y="111"/>
			<point x="371" y="237"/>
			<point x="371" y="385" type="curve" smooth="yes"/>
			<point x="371" y="504"/>
			<point x="305" y="603"/>
			<point x="165" y="625" type="curve"/>
			<point x="165" y="607" type="line"/>
			<point x="305" y="628"/>
			<point x="371" y="728"/>
			<point x="371" y="847" type="curve" smooth="yes"/>
			<point x="371" y="995"/>
			<point x="325" y="1121"/>
			<point x="325" y="1236" type="curve" smooth="yes"/>
			<point x="325" y="1350"/>
			<point x="368" y="1431"/>
			<point x="482" y="1448" type="curve" smooth="yes"/>
			<point x="542" y="1457" type="line"/>
			<point x="536" y="1484" type="line"/>
			<point x="454" y="1476" type="line" smooth="yes"/>
			<point x="269" y="1458"/>
			<point x="181" y="1331"/>
			<point x="181" y="1186" type="curve" smooth="yes"/>
			<point x="181" y="1065"/>
			<point x="256" y="938"/>
			<point x="256" y="780" type="curve" smooth="yes"/>
			<point x="256" y="699"/>
			<point x="223" y="645"/>
			<point x="121" y="637" type="curve" smooth="yes"/>
			<point x="45" y="632" type="line"/>
		</contour>
	</outline>
</glyph>
<glyph name="bar" format="2">
	<unicode hex="007C"/>
	<advance width="454"/>
	<outline>
		<contour>
			<point x="191" y="-465" type="line"/>
			<point x="263" y="-465" type="line"/>
			<point x="263" y="1535" type="line"/>
			<point x="191" y="1535" type="line"/>
		</contour>
	</outline>
</glyph>
<glyph name="braceright" format="2">
	<unicode hex="007D"/>
	<advance width="583"/>
	<outline>
		<contour>
			<point x="539" y="633" type="line"/>
			<point x="463" y="638" type="line" smooth="yes"/>
			<point x="361" y="646"/>
			<point x="328" y="701"/>
			<point x="328" y="782" type="curve" smooth="yes"/>
			<point x="328" y="939"/>
			<point x="403" y="1066"/>
			<point x="403" y="1188" type="curve" smooth="yes"/>
			<point x="403" y="1333"/>
			<point x="315" y="1458"/>
			<point x="130" y="1478" type="curve" smooth="yes"/>
			<point x="48" y="1486" type="line"/>
			<point x="42" y="1458" type="line"/>
			<point x="102" y="1449" type="line" smooth="yes"/>
			<point x="216" y="1433"/>
			<point x="259" y="1352"/>
			<point x="259" y="1237" type="curve" smooth="yes"/>
			<point x="259" y="1122"/>
			<point x="213" y="996"/>
			<point x="213" y="848" type="curve" smooth="yes"/>
			<point x="213" y="729"/>
			<point x="279" y="630"/>
			<point x="419" y="608" type="curve"/>
			<point x="419" y="626" type="line"/>
			<point x="279" y="605"/>
			<point x="213" y="505"/>
			<point x="213" y="386" type="curve" smooth="yes"/>
			<point x="213" y="238"/>
			<point x="259" y="112"/>
			<point x="259" y="-3" type="curve" smooth="yes"/>
			<point x="259" y="-117"/>
			<point x="216" y="-198"/>
			<point x="102" y="-215" type="curve" smooth="yes"/>
			<point x="42" y="-224" type="line"/>
			<point x="48" y="-251" type="line"/>
			<point x="130" y="-243" type="line" smooth="yes"/>
			<point x="315" y="-225"/>
			<point x="403" y="-98"/>
			<point x="403" y="47" type="curve" smooth="yes"/>
			<point x="403" y="168"/>
			<point x="328" y="295"/>
			<point x="328" y="453" type="curve" smooth="yes"/>
			<point x="328" y="534"/>
			<point x="361" y="588"/>
			<point x="463" y="596" type="curve" smooth="yes"/>
			<point x="539" y="601" type="line"/>
		</contour>
	</outline>
</glyph>
<glyph name="asciitilde" format="2">
	<unicode hex="007E"/>
	<advance width="1150"/>
	<outline>
		<contour>
			<point x="162" y="396" type="curve"/>
			<point x="230" y="396" type="line"/>
			<point x="243" y="512"/>
			<point x="283" y="568"/>
			<point x="388" y="568" type="curve" smooth="yes"/>
			<point x="533" y="568"/>
			<point x="584" y="388"/>
			<point x="761" y="388" type="curve" smooth="yes"/>
			<point x="874" y="388"/>
			<point x="980" y="440"/>
			<point x="988" y="628" type="curve"/>
			<point x="920" y="628" type="line"/>
			<point x="907" y="512"/>
			<point x="867" y="456"/>
			<point x="762" y="456" type="curve" smooth="yes"/>
			<point x="617" y="456"/>
			<point x="566" y="636"/>
			<point x="389" y="636" type="curve" smooth="yes"/>
			<point x="276" y="636"/>
			<point x="170" y="584"/>
		</contour>
	</outline>
</glyph>
<glyph name="exclamdown" format="2">
	<unicode hex="00A1"/>
	<advance width="476"/>
	<outline>
		<contour>
			<point x="99" y="-320" type="line" smooth="yes"/>
			<point x="99" y="-391"/>
			<point x="168" y="-426"/>
			<point x="237" y="-426" type="curve" smooth="yes"/>
			<point x="306" y="-426"/>
			<point x="376" y="-391"/>
			<point x="376" y="-320" type="curve" smooth="yes"/>
			<point x="376" y="-294" type="line" smooth="yes"/>
			<point x="376" y="-233"/>
			<point x="299" y="16"/>
			<point x="255" y="561" type="curve"/>
			<point x="222" y="561" type="line"/>
			<point x="178" y="16"/>
			<point x="99" y="-234"/>
			<point x="99" y="-294" type="curve" smooth="yes"/>
		</contour>
		<contour>
			<point x="237" y="765" type="curve" smooth="yes"/>
			<point x="319" y="765"/>
			<point x="378" y="826"/>
			<point x="378" y="904" type="curve" smooth="yes"/>
			<point x="378" y="982"/>
			<point x="319" y="1043"/>
			<point x="237" y="1043" type="curve" smooth="yes"/>
			<point x="155" y="1043"/>
			<point x="96" y="982"/>
			<point x="96" y="904" type="curve" smooth="yes"/>
			<point x="96" y="826"/>
			<point x="155" y="765"/>
		</contour>
	</outline>
</glyph>
<glyph name="currency" format="2">
	<unicode hex="00A4"/>
	<advance width="950"/>
	<outline>
		<contour>
			<point x="173" y="861" type="line"/>
			<point x="126" y="814" type="line"/>
			<point x="251" y="689" type="line"/>
			<point x="298" y="736" type="line"/>
		</contour>
		<contour>
			<point x="126" y="210" type="line"/>
			<point x="173" y="163" type="line"/>
			<point x="298" y="288" type="line"/>
			<point x="251" y="335" type="line"/>
		</contour>
		<contour>
			<point x="475" y="808" type="curve" smooth="yes"/>
			<point x="302" y="808"/>
			<point x="178" y="685"/>
			<point x="178" y="512" type="curve" smooth="yes"/>
			<point x="178" y="339"/>
			<point x="302" y="216"/>
			<point x="475" y="216" type="curve" smooth="yes"/>
			<point x="648" y="216"/>
			<point x="772" y="339"/>
			<point x="772" y="512" type="curve" smooth="yes"/>
			<point x="772" y="685"/>
			<point x="648" y="808"/>
		</contour>
		<contour>
			<point x="475" y="280" type="curve" smooth="yes"/>
			<point x="342" y="280"/>
			<point x="246" y="373"/>
			<point x="246" y="512" type="curve" smooth="yes"/>
			<point x="246" y="651"/>
			<point x="342" y="744"/>
			<point x="475" y="744" type="curve" smooth="yes"/>
			<point x="608" y="744"/>
			<point x="704" y="651"/>
			<point x="704" y="512" type="curve" smooth="yes"/>
			<point x="704" y="373"/>
			<point x="608" y="280"/>
		</contour>
		<contour>
			<point x="824" y="814" type="line"/>
			<point x="777" y="861" type="line"/>
			<point x="652" y="736" type="line"/>
			<point x="699" y="689" type="line"/>
		</contour>
		<contour>
			<point x="824" y="210" type="line"/>
			<point x="699" y="335" type="line"/>
			<point x="652" y="288" type="line"/>
			<point x="777" y="163" type="line"/>
		</contour>
	</outline>
</glyph>
<glyph name="brokenbar" format="2">
	<unicode hex="00A6"/>
	<advance width="454"/>
	<outline>
		<contour>
			<point x="263" y="725" type="line"/>
			<point x="263" y="1535" type="line"/>
			<point x="191" y="1535" type="line"/>
			<point x="191" y="725" type="line"/>
		</contour>
		<contour>
			<point x="191" y="-465" type="line"/>
			<point x="263" y="-465" type="line"/>
			<point x="263" y="345" type="line"/>
			<point x="191" y="345" type="line"/>
		</contour>
	</outline>
</glyph>
<glyph name="section" format="2">
	<unicode hex="00A7"/>
	<advance width="1147"/>
	<outline>
		<contour>
			<point x="486" y="-218" type="curve" smooth="yes"/>
			<point x="779" y="-218"/>
			<point x="943" y="-70"/>
			<point x="943" y="128" type="curve" smooth="yes"/>
			<point x="943" y="529"/>
			<point x="232" y="399"/>
			<point x="232" y="707" type="curve" smooth="yes"/>
			<point x="232" y="799"/>
			<point x="288" y="875"/>
			<point x="388" y="906" type="curve"/>
			<point x="365" y="923" type="line"/>
			<point x="177" y="868"/>
			<point x="85" y="759"/>
			<point x="85" y="615" type="curve" smooth="yes"/>
			<point x="85" y="194"/>
			<point x="786" y="329"/>
			<point x="786" y="32" type="curve" smooth="yes"/>
			<point x="786" y="-90"/>
			<point x="691" y="-172"/>
			<point x="539" y="-172" type="curve" smooth="yes"/>
			<point x="352" y="-172"/>
			<point x="292" y="20"/>
			<point x="250" y="20" type="curve" smooth="yes"/>
			<point x="185" y="20"/>
			<point x="150" y="-21"/>
			<point x="150" y="-78" type="curve" smooth="yes"/>
			<point x="150" y="-171"/>
			<point x="258" y="-218"/>
		</contour>
		<contour>
			<point x="913" y="566" type="curve" smooth="yes"/>
			<point x="913" y="471"/>
			<point x="849" y="388"/>
			<point x="744" y="365" type="curve"/>
			<point x="767" y="345" type="line"/>
			<point x="952" y="388"/>
			<point x="1058" y="514"/>
			<point x="1058" y="661" type="curve" smooth="yes"/>
			<point x="1058" y="1084"/>
			<point x="363" y="940"/>
			<point x="363" y="1227" type="curve" smooth="yes"/>
			<point x="363" y="1327"/>
			<point x="431" y="1405"/>
			<point x="586" y="1405" type="curve" smooth="yes"/>
			<point x="775" y="1405"/>
			<point x="834" y="1211"/>
			<point x="873" y="1211" type="curve" smooth="yes"/>
			<point x="931" y="1211"/>
			<point x="967" y="1249"/>
			<point x="967" y="1303" type="curve" smooth="yes"/>
			<point x="967" y="1386"/>
			<point x="869" y="1450"/>
			<point x="640" y="1450" type="curve" smooth="yes"/>
			<point x="355" y="1450"/>
			<point x="204" y="1315"/>
			<point x="204" y="1129" type="curve" smooth="yes"/>
			<point x="204" y="746"/>
			<point x="913" y="873"/>
		</contour>
	</outline>
</glyph>
<glyph name="copyright" format="2">
	<unicode hex="00A9"/>
	<advance width="1721"/>
	<outline>
		<contour>
			<point x="859" y="1450" type="curve" smooth="yes"/>
			<point x="425" y="1450"/>
			<point x="114" y="1145.6540540541"/>
			<point x="114" y="714" type="curve" smooth="yes"/>
			<point x="114" y="283.3468834688"/>
			<point x="425" y="-20"/>
			<point x="859" y="-20" type="curve" smooth="yes"/>
			<point x="1295" y="-20"/>
			<point x="1607" y="283.3468834688"/>
			<point x="1607" y="714" type="curve" smooth="yes"/>
			<point x="1607" y="1145.6540540541"/>
			<point x="1295" y="1450"/>
		</contour>
		<contour>
			<point x="859" y="1401" type="curve" smooth="yes"/>
			<point x="1254" y="1401"/>
			<point x="1545" y="1117.6497829233"/>
			<point x="1545" y="714" type="curve" smooth="yes"/>
			<point x="1545" y="311.347826087"/>
			<point x="1254" y="28"/>
			<point x="859" y="28" type="curve" smooth="yes"/>
			<point x="465" y="28"/>
			<point x="176" y="311.347826087"/>
			<point x="176" y="714" type="curve" smooth="yes"/>
			<point x="176" y="1117.6497829233"/>
			<point x="465" y="1401"/>
		</contour>
		<contour>
			<point x="965" y="309" type="curve" smooth="yes"/>
			<point x="783" y="309"/>
			<point x="640" y="471"/>
			<point x="640" y="760" type="curve" smooth="yes"/>
			<point x="640" y="1011"/>
			<point x="752" y="1123"/>
			<point x="907" y="1123" type="curve" smooth="yes"/>
			<point x="981" y="1123"/>
			<point x="1048" y="1098"/>
			<point x="1115" y="1048" type="curve"/>
			<point x="1058" y="1107" type="line"/>
			<point x="1202" y="856" type="line"/>
			<point x="1221" y="860" type="line"/>
			<point x="1166" y="1193" type="line"/>
			<point x="1157" y="1193" type="line"/>
			<point x="1082" y="1126" type="line"/>
			<point x="1143" y="1132" type="line"/>
			<point x="1071" y="1157"/>
			<point x="1009" y="1170"/>
			<point x="935" y="1170" type="curve" smooth="yes"/>
			<point x="640" y="1170"/>
			<point x="442" y="988"/>
			<point x="442" y="722" type="curve" smooth="yes"/>
			<point x="442" y="427"/>
			<point x="645" y="268"/>
			<point x="934" y="268" type="curve" smooth="yes"/>
			<point x="1030" y="268"/>
			<point x="1110" y="283"/>
			<point x="1184" y="308" type="curve"/>
			<point x="1241" y="529" type="line"/>
			<point x="1221" y="529" type="line"/>
			<point x="1079" y="315" type="line"/>
			<point x="1137" y="358" type="line"/>
			<point x="1086" y="326"/>
			<point x="1026" y="309"/>
		</contour>
	</outline>
</glyph>
<glyph name="ordfeminine" format="2">
	<unicode hex="00AA"/>
	<advance width="902"/>
	<outline>
		<contour>
			<point x="135" y="570" type="line"/>
			<point x="777" y="570" type="line"/>
			<point x="777" y="629" type="line"/>
			<point x="135" y="629" type="line"/>
		</contour>
		<contour>
			<point x="541" y="1182" type="curve"/>
			<point x="543" y="1214" type="line"/>
			<point x="184" y="1112"/>
			<point x="141" y="1058"/>
			<point x="141" y="957" type="curve" smooth="yes"/>
			<point x="141" y="853"/>
			<point x="209" y="791"/>
			<point x="330" y="791" type="curve" smooth="yes"/>
			<point x="429" y="791"/>
			<point x="505" y="845"/>
			<point x="532" y="971" type="curve"/>
			<point x="520" y="975" type="line"/>
			<point x="517" y="831"/>
			<point x="555" y="790"/>
			<point x="646" y="790" type="curve" smooth="yes"/>
			<point x="707" y="790"/>
			<point x="751" y="810"/>
			<point x="801" y="849" type="curve"/>
			<point x="801" y="875" type="line"/>
			<point x="773" y="861"/>
			<point x="757" y="858"/>
			<point x="733" y="858" type="curve" smooth="yes"/>
			<point x="705" y="858"/>
			<point x="684" y="872"/>
			<point x="684" y="918" type="curve" smooth="yes"/>
			<point x="684" y="1252" type="line" smooth="yes"/>
			<point x="684" y="1373"/>
			<point x="628" y="1450"/>
			<point x="453" y="1450" type="curve" smooth="yes"/>
			<point x="316" y="1450"/>
			<point x="144" y="1368"/>
			<point x="144" y="1302" type="curve" smooth="yes"/>
			<point x="144" y="1283"/>
			<point x="159" y="1268"/>
			<point x="196" y="1268" type="curve" smooth="yes"/>
			<point x="223" y="1268"/>
			<point x="248" y="1278"/>
			<point x="260" y="1293" type="curve" smooth="yes"/>
			<point x="273" y="1309"/>
			<point x="280" y="1335"/>
			<point x="290" y="1408" type="curve"/>
			<point x="254" y="1373" type="line"/>
			<point x="301" y="1389"/>
			<point x="343" y="1396"/>
			<point x="393" y="1396" type="curve" smooth="yes"/>
			<point x="483" y="1396"/>
			<point x="519" y="1345"/>
			<point x="519" y="1263" type="curve" smooth="yes"/>
			<point x="519" y="1000" type="line" smooth="yes"/>
			<point x="519" y="919"/>
			<point x="464" y="876"/>
			<point x="399" y="876" type="curve" smooth="yes"/>
			<point x="339" y="876"/>
			<point x="301" y="916"/>
			<point x="301" y="988" type="curve" smooth="yes"/>
			<point x="301" y="1065"/>
			<point x="323" y="1111"/>
		</contour>
	</outline>
</glyph>
<glyph name="logicalnot" format="2">
  <advance width="1150"/>
  <unicode hex="00AC"/>
  <outline>
    <contour>
      <point x="163.0" y="742.0" type="line"/>
      <point x="163.0" y="675.0" type="line"/>
      <point x="985.0" y="675.0" type="line"/>
      <point x="985.0" y="742.0" type="line"/>
    </contour>
    <contour>
      <point x="985.0" y="704.0" type="line"/>
      <point x="918.0" y="704.0" type="line"/>
      <point x="918.0" y="268.0" type="line"/>
      <point x="985.0" y="268.0" type="line"/>
    </contour>
  </outline>
</glyph>
<glyph name="registered" format="2">
	<unicode hex="00AE"/>
	<advance width="1085"/>
	<outline>
		<contour>
			<point x="540" y="1450" type="curve" smooth="yes"/>
			<point x="290" y="1450"/>
			<point x="111" y="1273"/>
			<point x="111" y="1024" type="curve" smooth="yes"/>
			<point x="111" y="776"/>
			<point x="290" y="596"/>
			<point x="540" y="596" type="curve" smooth="yes"/>
			<point x="792" y="596"/>
			<point x="974" y="776"/>
			<point x="974" y="1024" type="curve" smooth="yes"/>
			<point x="974" y="1273"/>
			<point x="792" y="1450"/>
		</contour>
		<contour>
			<point x="540" y="1404" type="curve" smooth="yes"/>
			<point x="761" y="1404"/>
			<point x="921" y="1249"/>
			<point x="921" y="1024" type="curve" smooth="yes"/>
			<point x="921" y="801"/>
			<point x="761" y="643"/>
			<point x="540" y="643" type="curve" smooth="yes"/>
			<point x="321" y="643"/>
			<point x="164" y="801"/>
			<point x="164" y="1024" type="curve" smooth="yes"/>
			<point x="164" y="1249"/>
			<point x="321" y="1404"/>
		</contour>
		<contour>
			<point x="453" y="1052" type="line"/>
			<point x="453" y="1022" type="line"/>
			<point x="547" y="1022" type="line" smooth="yes"/>
			<point x="581" y="1022"/>
			<point x="595" y="1012"/>
			<point x="609" y="973" type="curve" smooth="yes"/>
			<point x="636" y="891" type="line" smooth="yes"/>
			<point x="660" y="819"/>
			<point x="672" y="809"/>
			<point x="780" y="817" type="curve"/>
			<point x="780" y="838" type="line"/>
			<point x="751" y="838"/>
			<point x="740" y="843"/>
			<point x="727" y="881" type="curve" smooth="yes"/>
			<point x="698" y="962" type="line" smooth="yes"/>
			<point x="681" y="1018"/>
			<point x="656" y="1038"/>
			<point x="596" y="1040" type="curve"/>
			<point x="596" y="1039" type="line"/>
			<point x="675" y="1043"/>
			<point x="718" y="1087"/>
			<point x="718" y="1143" type="curve" smooth="yes"/>
			<point x="718" y="1200"/>
			<point x="680" y="1244"/>
			<point x="572" y="1244" type="curve" smooth="yes"/>
			<point x="453" y="1244" type="line"/>
			<point x="453" y="1214" type="line"/>
			<point x="523" y="1214" type="line" smooth="yes"/>
			<point x="601" y="1214"/>
			<point x="631" y="1189"/>
			<point x="631" y="1137" type="curve" smooth="yes"/>
			<point x="631" y="1080"/>
			<point x="598" y="1052"/>
			<point x="542" y="1052" type="curve" smooth="yes"/>
		</contour>
		<contour>
			<point x="403" y="1215" type="line"/>
			<point x="403" y="848" type="line"/>
			<point x="342" y="833" type="line"/>
			<point x="342" y="818" type="line"/>
			<point x="552" y="818" type="line"/>
			<point x="552" y="833" type="line"/>
			<point x="491" y="848" type="line"/>
			<point x="491" y="1244" type="line"/>
			<point x="342" y="1244" type="line"/>
			<point x="342" y="1229" type="line"/>
		</contour>
	</outline>
</glyph>
<glyph name="degree" format="2">
	<unicode hex="00B0"/>
	<advance width="749"/>
	<outline>
		<contour>
			<point x="374" y="1444" type="curve" smooth="yes"/>
			<point x="202" y="1444"/>
			<point x="78" y="1323"/>
			<point x="78" y="1150" type="curve" smooth="yes"/>
			<point x="78" y="977"/>
			<point x="202" y="856"/>
			<point x="374" y="856" type="curve" smooth="yes"/>
			<point x="547" y="856"/>
			<point x="671" y="977"/>
			<point x="671" y="1150" type="curve" smooth="yes"/>
			<point x="671" y="1323"/>
			<point x="547" y="1444"/>
		</contour>
		<contour>
			<point x="374" y="915" type="curve" smooth="yes"/>
			<point x="240" y="915"/>
			<point x="143" y="1009"/>
			<point x="143" y="1150" type="curve" smooth="yes"/>
			<point x="143" y="1291"/>
			<point x="240" y="1385"/>
			<point x="374" y="1385" type="curve" smooth="yes"/>
			<point x="509" y="1385"/>
			<point x="605" y="1291"/>
			<point x="605" y="1150" type="curve" smooth="yes"/>
			<point x="605" y="1009"/>
			<point x="509" y="915"/>
		</contour>
	</outline>
</glyph>
<glyph name="plusminus" format="2">
	<unicode hex="00B1"/>
	<advance width="1150"/>
	<outline>
		<contour>
			<point x="542" y="1024" type="line"/>
			<point x="542" y="202" type="line"/>
			<point x="608" y="202" type="line"/>
			<point x="608" y="1024" type="line"/>
		</contour>
		<contour>
			<point x="164" y="646" type="line"/>
			<point x="164" y="580" type="line"/>
			<point x="986" y="580" type="line"/>
			<point x="986" y="646" type="line"/>
		</contour>
		<contour>
			<point x="164" y="66" type="line"/>
			<point x="164" y="0" type="line"/>
			<point x="986" y="0" type="line"/>
			<point x="986" y="66" type="line"/>
		</contour>
	</outline>
</glyph>
<glyph name="uni00B2" format="2">
	<unicode hex="00B2"/>
	<advance width="703"/>
	<outline>
		<contour>
			<point x="465" y="722" type="line"/>
			<point x="594" y="799" type="line"/>
			<point x="201" y="799" type="line"/>
			<point x="190" y="766" type="line"/>
			<point x="346" y="919" type="line" smooth="yes"/>
			<point x="537" y="1107"/>
			<point x="578" y="1165"/>
			<point x="578" y="1257" type="curve" smooth="yes"/>
			<point x="578" y="1359"/>
			<point x="496" y="1444"/>
			<point x="351" y="1444" type="curve" smooth="yes"/>
			<point x="194" y="1444"/>
			<point x="84" y="1342"/>
			<point x="43" y="1165" type="curve"/>
			<point x="72" y="1160" type="line"/>
			<point x="109" y="1282"/>
			<point x="181" y="1325"/>
			<point x="265" y="1325" type="curve" smooth="yes"/>
			<point x="355" y="1325"/>
			<point x="411" y="1273"/>
			<point x="411" y="1185" type="curve" smooth="yes"/>
			<point x="411" y="1110"/>
			<point x="372" y="1024"/>
			<point x="242" y="879" type="curve" smooth="yes"/>
			<point x="68" y="674" type="line"/>
			<point x="68" y="662" type="line"/>
			<point x="520" y="662" type="line"/>
			<point x="573" y="632" type="line"/>
			<point x="584" y="632" type="line"/>
			<point x="654" y="915" type="line"/>
			<point x="641" y="915" type="line"/>
		</contour>
	</outline>
</glyph>
<glyph name="uni00B3" format="2">
  <advance width="650"/>
  <unicode hex="00B3"/>
  <outline>
    <contour>
      <point x="218.0" y="648.0" type="curve" smooth="yes"/>
      <point x="438.0" y="648.0"/>
      <point x="588.0" y="763.0"/>
      <point x="588.0" y="923.0" type="curve" smooth="yes"/>
      <point x="588.0" y="1045.0"/>
      <point x="503.0" y="1124.0"/>
      <point x="340.0" y="1105.0" type="curve"/>
      <point x="339.0" y="1095.0" type="line"/>
      <point x="469.0" y="1134.0"/>
      <point x="525.0" y="1203.0"/>
      <point x="525.0" y="1283.0" type="curve" smooth="yes"/>
      <point x="525.0" y="1375.0"/>
      <point x="467.0" y="1444.0"/>
      <point x="336.0" y="1444.0" type="curve" smooth="yes"/>
      <point x="193.0" y="1444.0"/>
      <point x="104.0" y="1360.0"/>
      <point x="69.0" y="1223.0" type="curve"/>
      <point x="99.0" y="1214.0" type="line"/>
      <point x="126.0" y="1300.0"/>
      <point x="184.0" y="1343.0"/>
      <point x="269.0" y="1343.0" type="curve" smooth="yes"/>
      <point x="343.0" y="1343.0"/>
      <point x="383.0" y="1303.0"/>
      <point x="383.0" y="1237.0" type="curve" smooth="yes"/>
      <point x="383.0" y="1166.0"/>
      <point x="333.0" y="1110.0"/>
      <point x="190.0" y="1061.0" type="curve"/>
      <point x="199.0" y="1026.0" type="line"/>
      <point x="235.0" y="1036.0" type="line" smooth="yes"/>
      <point x="372.0" y="1073.0"/>
      <point x="429.0" y="1013.0"/>
      <point x="429.0" y="900.0" type="curve" smooth="yes"/>
      <point x="429.0" y="770.0"/>
      <point x="362.0" y="690.0"/>
      <point x="265.0" y="690.0" type="curve" smooth="yes"/>
      <point x="187.0" y="690.0"/>
      <point x="128.0" y="793.0"/>
      <point x="106.0" y="793.0" type="curve" smooth="yes"/>
      <point x="75.0" y="793.0"/>
      <point x="51.0" y="767.0"/>
      <point x="51.0" y="734.0" type="curve" smooth="yes"/>
      <point x="51.0" y="689.0"/>
      <point x="89.0" y="648.0"/>
    </contour>
  </outline>
</glyph>
<glyph name="uni00B5" format="2">
  <advance width="1249"/>
  <unicode hex="00B5"/>
  <outline>
    <contour>
      <point x="199.0" y="1024.0" type="line"/>
      <point x="199.0" y="-456.0" type="line"/>
      <point x="209.0" y="-456.0" type="line"/>
      <point x="391.0" y="-440.0" type="line"/>
      <point x="240.0" y="195.0" type="line"/>
      <point x="232.0" y="195.0" type="line"/>
      <point x="238.0" y="41.0"/>
      <point x="344.0" y="-20.0"/>
      <point x="475.0" y="-20.0" type="curve" smooth="yes"/>
      <point x="595.0" y="-20.0"/>
      <point x="674.0" y="12.0"/>
      <point x="884.0" y="168.0" type="curve"/>
      <point x="868.0" y="190.0" type="line"/>
      <point x="806.0" y="151.0"/>
      <point x="707.0" y="113.0"/>
      <point x="602.0" y="113.0" type="curve" smooth="yes"/>
      <point x="451.0" y="113.0"/>
      <point x="383.0" y="181.0"/>
      <point x="383.0" y="315.0" type="curve"/>
      <point x="383.0" y="1024.0" type="line"/>
    </contour>
    <contour>
      <point x="1005.0" y="186.0" type="curve" smooth="yes"/>
      <point x="1005.0" y="1024.0" type="line"/>
      <point x="821.0" y="1024.0" type="line"/>
      <point x="821.0" y="203.0" type="line" smooth="yes"/>
      <point x="821.0" y="62.0"/>
      <point x="858.0" y="-20.0"/>
      <point x="977.0" y="-20.0" type="curve" smooth="yes"/>
      <point x="1057.0" y="-20.0"/>
      <point x="1126.0" y="-2.0"/>
      <point x="1225.0" y="115.0" type="curve"/>
      <point x="1225.0" y="142.0" type="line"/>
      <point x="1177.0" y="109.0"/>
      <point x="1133.0" y="95.0"/>
      <point x="1088.0" y="95.0" type="curve" smooth="yes"/>
      <point x="1039.0" y="95.0"/>
      <point x="1005.0" y="120.0"/>
    </contour>
  </outline>
</glyph>
<glyph name="paragraph" format="2">
	<unicode hex="00B6"/>
	<advance width="1204"/>
	<outline>
		<contour>
			<point x="702" y="1430" type="line"/>
			<point x="459" y="1430" type="line" smooth="yes"/>
			<point x="168" y="1430"/>
			<point x="56" y="1269"/>
			<point x="56" y="1074" type="curve" smooth="yes"/>
			<point x="56" y="875"/>
			<point x="170" y="724"/>
			<point x="458" y="724" type="curve" smooth="yes"/>
			<point x="702" y="724" type="line"/>
		</contour>
		<contour>
			<point x="718" y="-218" type="line"/>
			<point x="718" y="1372" type="line"/>
			<point x="901" y="1372" type="line"/>
			<point x="901" y="1430" type="line"/>
			<point x="652" y="1430" type="line"/>
			<point x="652" y="-218" type="line"/>
		</contour>
		<contour>
			<point x="948" y="-218" type="line"/>
			<point x="948" y="1374" type="line"/>
			<point x="1133" y="1408" type="line"/>
			<point x="1133" y="1430" type="line"/>
			<point x="882" y="1430" type="line"/>
			<point x="882" y="-218" type="line"/>
		</contour>
	</outline>
</glyph>
<glyph name="uni00B9" format="2">
	<unicode hex="00B9"/>
	<advance width="551"/>
	<outline>
		<contour>
			<point x="234" y="714" type="line"/>
			<point x="87" y="683" type="line"/>
			<point x="87" y="662" type="line"/>
			<point x="519" y="662" type="line"/>
			<point x="519" y="683" type="line"/>
			<point x="386" y="714" type="line"/>
			<point x="386" y="1444" type="line"/>
			<point x="362" y="1444" type="line"/>
			<point x="31" y="1276" type="line"/>
			<point x="38" y="1253" type="line"/>
			<point x="319" y="1320" type="line"/>
			<point x="234" y="1345" type="line"/>
		</contour>
	</outline>
</glyph>
<glyph name="ordmasculine" format="2">
	<unicode hex="00BA"/>
	<advance width="942"/>
	<outline>
		<contour>
			<point x="150" y="570" type="line"/>
			<point x="792" y="570" type="line"/>
			<point x="792" y="629" type="line"/>
			<point x="150" y="629" type="line"/>
		</contour>
		<contour>
			<point x="472" y="829" type="curve" smooth="yes"/>
			<point x="354" y="829"/>
			<point x="293" y="941.495049505"/>
			<point x="293" y="1128" type="curve" smooth="yes"/>
			<point x="293" y="1309.4355400697"/>
			<point x="355" y="1411"/>
			<point x="470" y="1411" type="curve" smooth="yes"/>
			<point x="587" y="1411"/>
			<point x="649" y="1298.504950495"/>
			<point x="649" y="1112" type="curve" smooth="yes"/>
			<point x="649" y="929.5783972125"/>
			<point x="586" y="829"/>
		</contour>
		<contour>
			<point x="465" y="790" type="curve" smooth="yes"/>
			<point x="667" y="790"/>
			<point x="820" y="920.4424778761"/>
			<point x="820" y="1125" type="curve" smooth="yes"/>
			<point x="820" y="1322.5683890578"/>
			<point x="674" y="1450"/>
			<point x="476" y="1450" type="curve" smooth="yes"/>
			<point x="274" y="1450"/>
			<point x="122" y="1318.5693215339"/>
			<point x="122" y="1115" type="curve" smooth="yes"/>
			<point x="122" y="917.4316109422"/>
			<point x="270" y="790"/>
		</contour>
	</outline>
</glyph>
<glyph name="guillemotright" format="2">
	<unicode hex="00BB"/>
	<advance width="960"/>
	<outline>
		<contour>
			<point x="366" y="448" type="line"/>
			<point x="366" y="597" type="line"/>
			<point x="95" y="107" type="line"/>
			<point x="112" y="93" type="line"/>
			<point x="516" y="515" type="line"/>
			<point x="516" y="530" type="line"/>
			<point x="112" y="952" type="line"/>
			<point x="95" y="938" type="line"/>
		</contour>
		<contour>
			<point x="726" y="448" type="line"/>
			<point x="726" y="597" type="line"/>
			<point x="455" y="107" type="line"/>
			<point x="472" y="93" type="line"/>
			<point x="876" y="515" type="line"/>
			<point x="876" y="530" type="line"/>
			<point x="472" y="952" type="line"/>
			<point x="455" y="938" type="line"/>
		</contour>
	</outline>
</glyph>
<glyph name="questiondown" format="2">
	<unicode hex="00BF"/>
	<advance width="944"/>
	<outline>
		<contour>
			<point x="620" y="-427" type="curve" smooth="yes"/>
			<point x="815" y="-427"/>
			<point x="894" y="-366"/>
			<point x="894" y="-296" type="curve" smooth="yes"/>
			<point x="894" y="-242"/>
			<point x="846" y="-200"/>
			<point x="803" y="-200" type="curve" smooth="yes"/>
			<point x="780" y="-200"/>
			<point x="674" y="-343"/>
			<point x="483" y="-343" type="curve" smooth="yes"/>
			<point x="301" y="-343"/>
			<point x="190" y="-252"/>
			<point x="190" y="-75" type="curve" smooth="yes"/>
			<point x="190" y="86"/>
			<point x="284" y="192"/>
			<point x="625" y="180" type="curve"/>
			<point x="552" y="560" type="line"/>
			<point x="520" y="560" type="line"/>
			<point x="520" y="219" type="line"/>
			<point x="551" y="340" type="line"/>
			<point x="192" y="354"/>
			<point x="74" y="233"/>
			<point x="74" y="13" type="curve" smooth="yes"/>
			<point x="74" y="-245"/>
			<point x="322" y="-427"/>
		</contour>
		<contour>
			<point x="532" y="764" type="curve" smooth="yes"/>
			<point x="614" y="764"/>
			<point x="673" y="825"/>
			<point x="673" y="903" type="curve" smooth="yes"/>
			<point x="673" y="981"/>
			<point x="614" y="1042"/>
			<point x="532" y="1042" type="curve" smooth="yes"/>
			<point x="450" y="1042"/>
			<point x="391" y="981"/>
			<point x="391" y="903" type="curve" smooth="yes"/>
			<point x="391" y="825"/>
			<point x="450" y="764"/>
		</contour>
	</outline>
</glyph>
<glyph name="AE" format="2">
	<unicode hex="00C6"/>
	<advance width="2089"/>
	<outline>
		<contour>
			<point x="485" y="555" type="line"/>
			<point x="1057" y="555" type="line"/>
			<point x="1057" y="615" type="line"/>
			<point x="485" y="615" type="line"/>
		</contour>
		<contour>
			<point x="968" y="1430" type="line"/>
			<point x="133" y="55" type="line"/>
			<point x="-41" y="20" type="line"/>
			<point x="-41" y="0" type="line"/>
			<point x="379" y="0" type="line"/>
			<point x="379" y="20" type="line"/>
			<point x="199" y="54" type="line"/>
			<point x="1008" y="1389" type="line"/>
			<point x="1008" y="1430" type="line"/>
		</contour>
		<contour>
			<point x="772" y="1409" type="line"/>
			<point x="954" y="1375" type="line"/>
			<point x="975" y="1430" type="line"/>
			<point x="772" y="1430" type="line"/>
		</contour>
		<contour>
			<point x="1674" y="1039" type="line"/>
			<point x="1652" y="1039" type="line"/>
			<point x="1541" y="786" type="line"/>
			<point x="1062" y="758" type="line"/>
			<point x="1062" y="735" type="line"/>
			<point x="1541" y="711" type="line"/>
			<point x="1652" y="455" type="line"/>
			<point x="1674" y="455" type="line"/>
			<point x="1640" y="746" type="line"/>
		</contour>
		<contour>
			<point x="1984" y="1036" type="line"/>
			<point x="1917" y="1484" type="line"/>
			<point x="1909" y="1484" type="line"/>
			<point x="1776" y="1430" type="line"/>
			<point x="1056" y="1430" type="line"/>
			<point x="1056" y="1370" type="line"/>
			<point x="1911" y="1370" type="line"/>
			<point x="1758" y="1394" type="line"/>
			<point x="1959" y="1028" type="line"/>
		</contour>
		<contour>
			<point x="1776" y="35" type="line"/>
			<point x="1930" y="60" type="line"/>
			<point x="1056" y="60" type="line"/>
			<point x="1056" y="0" type="line"/>
			<point x="1798" y="0" type="line"/>
			<point x="1926" y="-54" type="line"/>
			<point x="1934" y="-54" type="line"/>
			<point x="2040" y="395" type="line"/>
			<point x="2015" y="402" type="line"/>
		</contour>
		<contour>
			<point x="816" y="0" type="line"/>
			<point x="1201" y="0" type="line"/>
			<point x="1201" y="1430" type="line"/>
			<point x="995" y="1430" type="line"/>
			<point x="995" y="71" type="line"/>
			<point x="816" y="29" type="line"/>
		</contour>
	</outline>
	<anchor name="UCtop" x="1098" y="1430"/>
	<anchor name="bottom" x="1098" y="0"/>
</glyph>
<glyph name="Ccedilla" format="2">
	<unicode hex="00C7"/>
	<advance width="1417"/>
	<outline>
		<contour>
			<point x="878" y="16" type="curve" smooth="yes"/>
			<point x="574" y="16"/>
			<point x="309" y="236"/>
			<point x="309" y="748" type="curve" smooth="yes"/>
			<point x="309" y="1243"/>
			<point x="543" y="1404"/>
			<point x="799" y="1404" type="curve" smooth="yes"/>
			<point x="917" y="1404"/>
			<point x="1025" y="1367"/>
			<point x="1147" y="1285" type="curve"/>
			<point x="1107" y="1327" type="line"/>
			<point x="1302" y="992" type="line"/>
			<point x="1327" y="995" type="line"/>
			<point x="1237" y="1484" type="line"/>
			<point x="1223" y="1484" type="line"/>
			<point x="1114" y="1398" type="line"/>
			<point x="1167" y="1410" type="line"/>
			<point x="1055" y="1436"/>
			<point x="956" y="1450"/>
			<point x="845" y="1450" type="curve" smooth="yes"/>
			<point x="403" y="1450"/>
			<point x="93" y="1158"/>
			<point x="93" y="729" type="curve" smooth="yes"/>
			<point x="93" y="229"/>
			<point x="442" y="-20"/>
			<point x="881" y="-20" type="curve" smooth="yes"/>
			<point x="1020" y="-20"/>
			<point x="1128" y="-9"/>
			<point x="1272" y="36" type="curve"/>
			<point x="1350" y="391" type="line"/>
			<point x="1325" y="391" type="line"/>
			<point x="1150" y="104" type="line"/>
			<point x="1189" y="150" type="line"/>
			<point x="1084" y="54"/>
			<point x="979" y="16"/>
		</contour>
		<contour>
			<point x="699" y="-465" type="curve" smooth="yes"/>
			<point x="835" y="-465"/>
			<point x="953" y="-383"/>
			<point x="953" y="-270" type="curve" smooth="yes"/>
			<point x="953" y="-206"/>
			<point x="916" y="-146"/>
			<point x="739" y="-98" type="curve"/>
			<point x="714" y="-168" type="line"/>
			<point x="837" y="0" type="line"/>
			<point x="795" y="0" type="line"/>
			<point x="650" y="-197" type="line"/>
			<point x="650" y="-202" type="line"/>
			<point x="818" y="-240"/>
			<point x="854" y="-286"/>
			<point x="854" y="-335" type="curve" smooth="yes"/>
			<point x="854" y="-387"/>
			<point x="810" y="-423"/>
			<point x="757" y="-423" type="curve" smooth="yes"/>
			<point x="688" y="-423"/>
			<point x="638" y="-347"/>
			<point x="622" y="-347" type="curve" smooth="yes"/>
			<point x="593" y="-347"/>
			<point x="578" y="-371"/>
			<point x="578" y="-396" type="curve" smooth="yes"/>
			<point x="578" y="-435"/>
			<point x="610" y="-465"/>
		</contour>
	</outline>
</glyph>
<glyph name="multiply" format="2">
	<unicode hex="00D7"/>
	<advance width="1150"/>
	<outline>
		<contour>
			<point x="226" y="210" type="line"/>
			<point x="273" y="163" type="line"/>
			<point x="924" y="814" type="line"/>
			<point x="877" y="861" type="line"/>
		</contour>
		<contour>
			<point x="226" y="814" type="line"/>
			<point x="877" y="163" type="line"/>
			<point x="924" y="210" type="line"/>
			<point x="273" y="861" type="line"/>
		</contour>
	</outline>
</glyph>
<glyph name="Oslash" format="2">
	<unicode hex="00D8"/>
	<advance width="1631"/>
	<outline>
		<contour>
			<point x="382" y="281" type="line"/>
			<point x="322" y="229" type="line"/>
			<point x="110" y="0" type="line"/>
			<point x="204" y="0" type="line"/>
			<point x="372" y="181" type="line"/>
			<point x="427" y="229" type="line"/>
			<point x="1250" y="1149" type="line"/>
			<point x="1309" y="1201" type="line"/>
			<point x="1522" y="1430" type="line"/>
			<point x="1429" y="1430" type="line"/>
			<point x="1261" y="1249" type="line"/>
			<point x="1206" y="1201" type="line"/>
		</contour>
		<contour>
			<point x="816" y="1450" type="curve" smooth="yes"/>
			<point x="406" y="1450"/>
			<point x="111" y="1144"/>
			<point x="111" y="714" type="curve" smooth="yes"/>
			<point x="111" y="283"/>
			<point x="407" y="-20"/>
			<point x="819" y="-20" type="curve" smooth="yes"/>
			<point x="1227" y="-20"/>
			<point x="1522" y="286"/>
			<point x="1522" y="718" type="curve" smooth="yes"/>
			<point x="1522" y="1147"/>
			<point x="1226" y="1450"/>
		</contour>
		<contour>
			<point x="825" y="28" type="curve" smooth="yes"/>
			<point x="529" y="28"/>
			<point x="321" y="290"/>
			<point x="321" y="747" type="curve" smooth="yes"/>
			<point x="321" y="1149"/>
			<point x="506" y="1403"/>
			<point x="808" y="1403" type="curve" smooth="yes"/>
			<point x="1102" y="1403"/>
			<point x="1311" y="1140"/>
			<point x="1311" y="683" type="curve" smooth="yes"/>
			<point x="1311" y="282"/>
			<point x="1126" y="28"/>
		</contour>
	</outline>
	<anchor name="UCtop" x="816" y="1430"/>
	<anchor name="bottom" x="816" y="0"/>
</glyph>
<glyph name="Thorn" format="2">
	<unicode hex="00DE"/>
	<advance width="1296"/>
	<outline>
		<contour>
			<point x="1010" y="731" type="curve" smooth="yes"/>
			<point x="1010" y="513"/>
			<point x="857" y="399"/>
			<point x="655" y="399" type="curve" smooth="yes"/>
			<point x="321" y="399" type="line"/>
			<point x="321" y="339" type="line"/>
			<point x="703" y="339" type="line" smooth="yes"/>
			<point x="1065" y="339"/>
			<point x="1220" y="523"/>
			<point x="1220" y="744" type="curve" smooth="yes"/>
			<point x="1220" y="958"/>
			<point x="1072" y="1124"/>
			<point x="703" y="1124" type="curve" smooth="yes"/>
			<point x="321" y="1124" type="line"/>
			<point x="321" y="1064" type="line"/>
			<point x="525" y="1064" type="line" smooth="yes"/>
			<point x="887" y="1064"/>
			<point x="1010" y="945"/>
		</contour>
		<contour>
			<point x="632" y="29" type="line"/>
			<point x="453" y="71" type="line"/>
			<point x="453" y="1360" type="line"/>
			<point x="632" y="1401" type="line"/>
			<point x="632" y="1430" type="line"/>
			<point x="68" y="1430" type="line"/>
			<point x="68" y="1401" type="line"/>
			<point x="247" y="1360" type="line"/>
			<point x="247" y="71" type="line"/>
			<point x="68" y="29" type="line"/>
			<point x="68" y="0" type="line"/>
			<point x="632" y="0" type="line"/>
		</contour>
	</outline>
</glyph>
<glyph name="germandbls" format="2">
	<unicode hex="00DF"/>
	<advance width="1266"/>
	<outline>
		<contour>
			<point x="196" y="998" type="curve" smooth="yes"/>
			<point x="196" y="57" type="line"/>
			<point x="53" y="27" type="line"/>
			<point x="53" y="0" type="line"/>
			<point x="549" y="0" type="line"/>
			<point x="549" y="27" type="line"/>
			<point x="386" y="57" type="line"/>
			<point x="386" y="1080" type="line" smooth="yes"/>
			<point x="386" y="1310"/>
			<point x="491" y="1437"/>
			<point x="682" y="1437" type="curve" smooth="yes"/>
			<point x="860" y="1437"/>
			<point x="939" y="1323"/>
			<point x="939" y="1228" type="curve" smooth="yes"/>
			<point x="939" y="982"/>
			<point x="619" y="950"/>
			<point x="619" y="715" type="curve" smooth="yes"/>
			<point x="619" y="419"/>
			<point x="1090" y="492"/>
			<point x="1090" y="240" type="curve" smooth="yes"/>
			<point x="1090" y="118"/>
			<point x="1011" y="26"/>
			<point x="884" y="26" type="curve" smooth="yes"/>
			<point x="827" y="26"/>
			<point x="777" y="40"/>
			<point x="740" y="61" type="curve"/>
			<point x="771" y="23" type="line"/>
			<point x="620" y="321" type="line"/>
			<point x="591" y="321" type="line"/>
			<point x="647" y="21" type="line"/>
			<point x="714" y="-8"/>
			<point x="784" y="-20"/>
			<point x="875" y="-20" type="curve" smooth="yes"/>
			<point x="1080" y="-20"/>
			<point x="1225" y="121"/>
			<point x="1225" y="314" type="curve" smooth="yes"/>
			<point x="1225" y="684"/>
			<point x="760" y="619"/>
			<point x="760" y="828" type="curve" smooth="yes"/>
			<point x="760" y="1011"/>
			<point x="1078" y="1021"/>
			<point x="1078" y="1250" type="curve" smooth="yes"/>
			<point x="1078" y="1367"/>
			<point x="973" y="1484"/>
			<point x="711" y="1484" type="curve" smooth="yes"/>
			<point x="435" y="1484"/>
			<point x="196" y="1310"/>
		</contour>
		<contour>
			<point x="224" y="1029" type="line"/>
			<point x="31" y="972" type="line"/>
			<point x="31" y="940" type="line"/>
			<point x="212" y="902" type="line"/>
		</contour>
	</outline>
</glyph>
<glyph name="ae" format="2">
	<unicode hex="00E6"/>
	<advance width="1544"/>
	<outline>
		<contour>
			<point x="435" y="969" type="curve" smooth="yes"/>
			<point x="572" y="969"/>
			<point x="639" y="897"/>
			<point x="639" y="760" type="curve" smooth="yes"/>
			<point x="639" y="301" type="line" smooth="yes"/>
			<point x="639" y="175"/>
			<point x="561" y="106"/>
			<point x="446" y="106" type="curve" smooth="yes"/>
			<point x="350" y="106"/>
			<point x="274" y="164"/>
			<point x="274" y="279" type="curve" smooth="yes"/>
			<point x="274" y="420"/>
			<point x="340" y="506"/>
			<point x="716" y="624" type="curve"/>
			<point x="705" y="666" type="line"/>
			<point x="168" y="488"/>
			<point x="83" y="413"/>
			<point x="83" y="238" type="curve" smooth="yes"/>
			<point x="83" y="70"/>
			<point x="207" y="-20"/>
			<point x="373" y="-20" type="curve" smooth="yes"/>
			<point x="552" y="-20"/>
			<point x="654" y="96"/>
			<point x="664" y="302" type="curve"/>
			<point x="652" y="302" type="line"/>
			<point x="679" y="89"/>
			<point x="864" y="-20"/>
			<point x="1093" y="-20" type="curve" smooth="yes"/>
			<point x="1254" y="-20"/>
			<point x="1374" y="48"/>
			<point x="1498" y="247" type="curve"/>
			<point x="1482" y="258" type="line"/>
			<point x="1415" y="167"/>
			<point x="1305" y="123"/>
			<point x="1195" y="123" type="curve" smooth="yes"/>
			<point x="957" y="123"/>
			<point x="823" y="260"/>
			<point x="823" y="595" type="curve" smooth="yes"/>
			<point x="823" y="849"/>
			<point x="920" y="995"/>
			<point x="1082" y="995" type="curve" smooth="yes"/>
			<point x="1202" y="995"/>
			<point x="1265" y="882"/>
			<point x="1286" y="646" type="curve"/>
			<point x="1364" y="684" type="line"/>
			<point x="812" y="684" type="line"/>
			<point x="812" y="626" type="line"/>
			<point x="1474" y="626" type="line"/>
			<point x="1456" y="899"/>
			<point x="1322" y="1044"/>
			<point x="1112" y="1044" type="curve" smooth="yes"/>
			<point x="946.2545454545" y="1044"/>
			<point x="821.1455930417" y="960.6814707434"/>
			<point x="741" y="837" type="curve"/>
			<point x="833" y="837" type="line"/>
			<point x="812.9769311238" y="963.1453339199"/>
			<point x="717.983713355" y="1044"/>
			<point x="512" y="1044" type="curve" smooth="yes"/>
			<point x="333" y="1044"/>
			<point x="91" y="922"/>
			<point x="91" y="810" type="curve" smooth="yes"/>
			<point x="91" y="768"/>
			<point x="122" y="750"/>
			<point x="170" y="750" type="curve" smooth="yes"/>
			<point x="207" y="750"/>
			<point x="247" y="763"/>
			<point x="264" y="784" type="curve" smooth="yes"/>
			<point x="290" y="816"/>
			<point x="305" y="906"/>
			<point x="312" y="980" type="curve"/>
			<point x="259" y="940" type="line"/>
			<point x="296" y="959"/>
			<point x="369" y="969"/>
		</contour>
	</outline>
	<anchor name="top" x="731" y="1024"/>
	<anchor name="bottom" x="731" y="0"/>
</glyph>
<glyph name="ccedilla" format="2">
	<unicode hex="00E7"/>
	<advance width="943"/>
	<outline>
		<contour>
			<point x="599" y="1044" type="curve" smooth="yes"/>
			<point x="298" y="1044"/>
			<point x="75" y="813"/>
			<point x="75" y="494" type="curve" smooth="yes"/>
			<point x="75" y="158"/>
			<point x="267" y="-20"/>
			<point x="518" y="-20" type="curve" smooth="yes"/>
			<point x="673" y="-20"/>
			<point x="789" y="48"/>
			<point x="908" y="247" type="curve"/>
			<point x="893" y="258" type="line"/>
			<point x="828" y="167"/>
			<point x="722" y="123"/>
			<point x="616" y="123" type="curve" smooth="yes"/>
			<point x="387" y="123"/>
			<point x="265" y="260"/>
			<point x="265" y="595" type="curve" smooth="yes"/>
			<point x="265" y="868"/>
			<point x="367" y="991"/>
			<point x="513" y="991" type="curve" smooth="yes"/>
			<point x="640" y="991"/>
			<point x="747" y="798"/>
			<point x="774" y="798" type="curve" smooth="yes"/>
			<point x="837" y="798"/>
			<point x="876" y="836"/>
			<point x="876" y="899" type="curve" smooth="yes"/>
			<point x="876" y="977"/>
			<point x="791" y="1044"/>
		</contour>
		<contour>
			<point x="430" y="-465" type="curve" smooth="yes"/>
			<point x="566" y="-465"/>
			<point x="684" y="-383"/>
			<point x="684" y="-270" type="curve" smooth="yes"/>
			<point x="684" y="-206"/>
			<point x="647" y="-146"/>
			<point x="470" y="-98" type="curve"/>
			<point x="445" y="-168" type="line"/>
			<point x="583" y="21" type="line"/>
			<point x="541" y="21" type="line"/>
			<point x="381" y="-197" type="line"/>
			<point x="381" y="-202" type="line"/>
			<point x="549" y="-240"/>
			<point x="585" y="-286"/>
			<point x="585" y="-335" type="curve" smooth="yes"/>
			<point x="585" y="-387"/>
			<point x="541" y="-423"/>
			<point x="488" y="-423" type="curve" smooth="yes"/>
			<point x="419" y="-423"/>
			<point x="369" y="-347"/>
			<point x="353" y="-347" type="curve" smooth="yes"/>
			<point x="324" y="-347"/>
			<point x="309" y="-371"/>
			<point x="309" y="-396" type="curve" smooth="yes"/>
			<point x="309" y="-435"/>
			<point x="341" y="-465"/>
		</contour>
	</outline>
</glyph>
<glyph name="eth" format="2">
  <advance width="1175"/>
  <unicode hex="00F0"/>
  <outline>
    <contour>
      <point x="573.0" y="-20.0" type="curve" smooth="yes"/>
      <point x="863.0" y="-20.0"/>
      <point x="1084.0" y="186.0"/>
      <point x="1084.0" y="585.0" type="curve" smooth="yes"/>
      <point x="1084.0" y="975.0"/>
      <point x="924.0" y="1369.0"/>
      <point x="246.0" y="1483.0" type="curve"/>
      <point x="231.0" y="1453.0" type="line"/>
      <point x="741.0" y="1319.0"/>
      <point x="857.0" y="1097.0"/>
      <point x="888.0" y="721.0" type="curve"/>
      <point x="933.0" y="712.0" type="line"/>
      <point x="884.0" y="928.0"/>
      <point x="724.0" y="1012.0"/>
      <point x="573.0" y="1012.0" type="curve" smooth="yes"/>
      <point x="294.0" y="1012.0"/>
      <point x="74.0" y="807.0"/>
      <point x="74.0" y="486.0" type="curve" smooth="yes"/>
      <point x="74.0" y="177.0"/>
      <point x="293.0" y="-20.0"/>
    </contour>
    <contour>
      <point x="580.0" y="24.0" type="curve" smooth="yes"/>
      <point x="390.0" y="24.0"/>
      <point x="277.0" y="206.0"/>
      <point x="277.0" y="501.0" type="curve" smooth="yes"/>
      <point x="277.0" y="796.0"/>
      <point x="391.0" y="969.0"/>
      <point x="578.0" y="969.0" type="curve" smooth="yes"/>
      <point x="769.0" y="969.0"/>
      <point x="882.0" y="785.0"/>
      <point x="882.0" y="488.0" type="curve" smooth="yes"/>
      <point x="882.0" y="195.0"/>
      <point x="768.0" y="24.0"/>
    </contour>
    <contour>
      <point x="439.0" y="1101.0" type="line"/>
      <point x="872.0" y="1457.0" type="line"/>
      <point x="840.0" y="1495.0" type="line"/>
      <point x="406.0" y="1140.0" type="line"/>
    </contour>
  </outline>
</glyph>
<glyph name="divide" format="2">
	<unicode hex="00F7"/>
	<advance width="1150"/>
	<outline>
		<contour>
			<point x="575" y="257" type="curve" smooth="yes"/>
			<point x="516" y="257"/>
			<point x="472" y="210"/>
			<point x="472" y="154" type="curve" smooth="yes"/>
			<point x="472" y="98"/>
			<point x="516" y="52"/>
			<point x="575" y="52" type="curve" smooth="yes"/>
			<point x="634" y="52"/>
			<point x="678" y="98"/>
			<point x="678" y="154" type="curve" smooth="yes"/>
			<point x="678" y="210"/>
			<point x="634" y="257"/>
		</contour>
		<contour>
			<point x="575" y="972" type="curve" smooth="yes"/>
			<point x="516" y="972"/>
			<point x="472" y="926"/>
			<point x="472" y="870" type="curve" smooth="yes"/>
			<point x="472" y="814"/>
			<point x="516" y="768"/>
			<point x="575" y="768" type="curve" smooth="yes"/>
			<point x="634" y="768"/>
			<point x="678" y="814"/>
			<point x="678" y="870" type="curve" smooth="yes"/>
			<point x="678" y="926"/>
			<point x="634" y="972"/>
		</contour>
		<contour>
			<point x="164" y="545" type="line"/>
			<point x="164" y="479" type="line"/>
			<point x="986" y="479" type="line"/>
			<point x="986" y="545" type="line"/>
		</contour>
	</outline>
</glyph>
<glyph name="oslash" format="2">
	<unicode hex="00F8"/>
	<advance width="1168"/>
	<outline>
		<contour>
			<point x="88" y="0" type="line"/>
			<point x="175" y="0" type="line"/>
			<point x="283" y="120" type="line"/>
			<point x="310" y="142" type="line"/>
			<point x="890" y="818" type="line"/>
			<point x="925" y="850" type="line"/>
			<point x="1080" y="1024" type="line"/>
			<point x="994" y="1024" type="line"/>
			<point x="887" y="904" type="line"/>
			<point x="850" y="869" type="line"/>
			<point x="269" y="194" type="line"/>
			<point x="245" y="176" type="line"/>
		</contour>
		<contour>
			<point x="581" y="24" type="curve" smooth="yes"/>
			<point x="391" y="24"/>
			<point x="291" y="192"/>
			<point x="291" y="513" type="curve" smooth="yes"/>
			<point x="291" y="833"/>
			<point x="393" y="1000"/>
			<point x="587" y="1000" type="curve" smooth="yes"/>
			<point x="777" y="1000"/>
			<point x="877" y="832"/>
			<point x="877" y="511" type="curve" smooth="yes"/>
			<point x="877" y="191"/>
			<point x="775" y="24"/>
		</contour>
		<contour>
			<point x="579" y="-20" type="curve" smooth="yes"/>
			<point x="851" y="-20"/>
			<point x="1080" y="198"/>
			<point x="1080" y="511" type="curve" smooth="yes"/>
			<point x="1080" y="824"/>
			<point x="867" y="1044"/>
			<point x="589" y="1044" type="curve" smooth="yes"/>
			<point x="311" y="1044"/>
			<point x="88" y="825"/>
			<point x="88" y="513" type="curve" smooth="yes"/>
			<point x="88" y="201"/>
			<point x="307" y="-20"/>
		</contour>
	</outline>
	<anchor name="top" x="584" y="1024"/>
	<anchor name="bottom" x="584" y="0"/>
</glyph>
<glyph name="thorn" format="2">
	<unicode hex="00FE"/>
	<advance width="1158"/>
	<outline>
		<contour>
			<point x="144" y="1315" type="curve"/>
			<point x="144" y="-388" type="line"/>
			<point x="1" y="-418" type="line"/>
			<point x="1" y="-445" type="line"/>
			<point x="491" y="-445" type="line"/>
			<point x="491" y="-418" type="line"/>
			<point x="328" y="-388" type="line"/>
			<point x="328" y="61" type="line"/>
			<point x="194" y="61" type="line"/>
			<point x="291" y="5"/>
			<point x="419" y="-20"/>
			<point x="536" y="-20" type="curve" smooth="yes"/>
			<point x="857" y="-20"/>
			<point x="1082" y="195"/>
			<point x="1082" y="562" type="curve" smooth="yes"/>
			<point x="1082" y="851"/>
			<point x="926" y="1044"/>
			<point x="664" y="1044" type="curve" smooth="yes"/>
			<point x="554" y="1044"/>
			<point x="435" y="988"/>
			<point x="258" y="798" type="curve"/>
			<point x="273" y="778" type="line"/>
			<point x="362" y="873"/>
			<point x="457" y="907"/>
			<point x="570" y="907" type="curve" smooth="yes"/>
			<point x="781" y="907"/>
			<point x="886" y="768"/>
			<point x="886" y="482" type="curve" smooth="yes"/>
			<point x="886" y="189"/>
			<point x="774" y="28"/>
			<point x="578" y="28" type="curve" smooth="yes"/>
			<point x="437" y="28"/>
			<point x="328" y="122"/>
			<point x="328" y="253" type="curve"/>
			<point x="328" y="1310" type="line"/>
			<point x="328" y="1484" type="line"/>
			<point x="324" y="1484" type="line"/>
			<point x="-19" y="1407" type="line"/>
			<point x="-19" y="1389" type="line"/>
			<point x="59" y="1353.5889570552"/>
			<point x="118" y="1326.8036809816"/>
		</contour>
	</outline>
</glyph>
<glyph name="Aogonek" format="2">
	<unicode hex="0104"/>
	<advance width="1454"/>
	<outline>
		<contour>
			<point x="344" y="555" type="line"/>
			<point x="1051" y="555" type="line"/>
			<point x="1051" y="615" type="line"/>
			<point x="344" y="615" type="line"/>
		</contour>
		<contour>
			<point x="1337" y="72" type="line"/>
			<point x="720" y="1450" type="line"/>
			<point x="682" y="1450" type="line"/>
			<point x="134" y="80" type="line"/>
			<point x="-19" y="29" type="line"/>
			<point x="-19" y="0" type="line"/>
			<point x="390" y="0" type="line"/>
			<point x="390" y="29" type="line"/>
			<point x="200" y="77" type="line"/>
			<point x="645" y="1202" type="line"/>
			<point x="620" y="1202" type="line"/>
			<point x="1120" y="70" type="line"/>
			<point x="938" y="29" type="line"/>
			<point x="938" y="0" type="line"/>
			<point x="1493" y="0" type="line"/>
			<point x="1493" y="29" type="line"/>
		</contour>
		<contour>
			<point x="1228" y="-61" type="curve" smooth="yes"/>
			<point x="1296" y="76" type="line"/>
			<point x="1272" y="76" type="line"/>
			<point x="1149" y="-96" type="line" smooth="yes"/>
			<point x="1059" y="-222"/>
			<point x="1043" y="-279"/>
			<point x="1043" y="-335" type="curve" smooth="yes"/>
			<point x="1043" y="-406"/>
			<point x="1092" y="-465"/>
			<point x="1192" y="-465" type="curve" smooth="yes"/>
			<point x="1260" y="-465"/>
			<point x="1306" y="-439"/>
			<point x="1396" y="-337" type="curve"/>
			<point x="1385" y="-321" type="line"/>
			<point x="1333" y="-363"/>
			<point x="1298" y="-370"/>
			<point x="1265" y="-370" type="curve" smooth="yes"/>
			<point x="1200" y="-370"/>
			<point x="1163" y="-337"/>
			<point x="1163" y="-281" type="curve" smooth="yes"/>
			<point x="1163" y="-228"/>
			<point x="1183" y="-151"/>
		</contour>
	</outline>
</glyph>
<glyph name="aogonek" format="2">
	<unicode hex="0105"/>
	<advance width="1018"/>
	<outline>
		<contour>
			<point x="1043" y="115" type="line"/>
			<point x="1043" y="142" type="line"/>
			<point x="995" y="109"/>
			<point x="951" y="95"/>
			<point x="906" y="95" type="curve" smooth="yes"/>
			<point x="857" y="95"/>
			<point x="823" y="120"/>
			<point x="823" y="186" type="curve" smooth="yes"/>
			<point x="823" y="779" type="line" smooth="yes"/>
			<point x="823" y="938"/>
			<point x="737" y="1044"/>
			<point x="512" y="1044" type="curve" smooth="yes"/>
			<point x="333" y="1044"/>
			<point x="91" y="922"/>
			<point x="91" y="810" type="curve" smooth="yes"/>
			<point x="91" y="768"/>
			<point x="122" y="750"/>
			<point x="170" y="750" type="curve" smooth="yes"/>
			<point x="207" y="750"/>
			<point x="247" y="763"/>
			<point x="264" y="784" type="curve" smooth="yes"/>
			<point x="290" y="816"/>
			<point x="305" y="906"/>
			<point x="312" y="980" type="curve"/>
			<point x="259" y="940" type="line"/>
			<point x="296" y="959"/>
			<point x="369" y="969"/>
			<point x="435" y="969" type="curve" smooth="yes"/>
			<point x="572" y="969"/>
			<point x="639" y="897"/>
			<point x="639" y="760" type="curve" smooth="yes"/>
			<point x="639" y="301" type="line" smooth="yes"/>
			<point x="639" y="175"/>
			<point x="561" y="106"/>
			<point x="446" y="106" type="curve" smooth="yes"/>
			<point x="350" y="106"/>
			<point x="274" y="164"/>
			<point x="274" y="279" type="curve" smooth="yes"/>
			<point x="274" y="420"/>
			<point x="340" y="506"/>
			<point x="716" y="624" type="curve"/>
			<point x="705" y="666" type="line"/>
			<point x="168" y="488"/>
			<point x="83" y="413"/>
			<point x="83" y="238" type="curve" smooth="yes"/>
			<point x="83" y="70"/>
			<point x="207" y="-20"/>
			<point x="373" y="-20" type="curve" smooth="yes"/>
			<point x="503" y="-20"/>
			<point x="605" y="74"/>
			<point x="639" y="203" type="curve"/>
			<point x="636" y="203" type="line"/>
			<point x="641" y="62"/>
			<point x="676" y="-20"/>
			<point x="795" y="-20" type="curve" smooth="yes"/>
			<point x="853" y="-20"/>
			<point x="905" y="-11"/>
			<point x="967" y="39" type="curve"/>
			<point x="960" y="46" type="line"/>
			<point x="861" y="-70" type="line" smooth="yes"/>
			<point x="742" y="-203"/>
			<point x="718" y="-265"/>
			<point x="718" y="-326" type="curve" smooth="yes"/>
			<point x="718" y="-402"/>
			<point x="762" y="-465"/>
			<point x="862" y="-465" type="curve" smooth="yes"/>
			<point x="930" y="-465"/>
			<point x="976" y="-439"/>
			<point x="1066" y="-337" type="curve"/>
			<point x="1055" y="-321" type="line"/>
			<point x="1003" y="-363"/>
			<point x="968" y="-370"/>
			<point x="935" y="-370" type="curve" smooth="yes"/>
			<point x="873" y="-370"/>
			<point x="838" y="-326"/>
			<point x="838" y="-268" type="curve" smooth="yes"/>
			<point x="838" y="-215"/>
			<point x="853" y="-156"/>
			<point x="941" y="-30" type="curve" smooth="yes"/>
		</contour>
	</outline>
</glyph>
<glyph name="Dcroat" format="2">
	<unicode hex="0110"/>
	<advance width="1551"/>
	<outline>
		<contour>
			<point x="72" y="715" type="line"/>
			<point x="785" y="715" type="line"/>
			<point x="785" y="779" type="line"/>
			<point x="72" y="779" type="line"/>
		</contour>
		<contour>
			<point x="1243" y="727" type="curve" smooth="yes"/>
			<point x="1243" y="249"/>
			<point x="1014" y="60"/>
			<point x="622" y="60" type="curve" smooth="yes"/>
			<point x="339" y="60" type="line"/>
			<point x="339" y="0" type="line"/>
			<point x="657" y="0" type="line" smooth="yes"/>
			<point x="1112" y="0"/>
			<point x="1456" y="253"/>
			<point x="1456" y="748" type="curve" smooth="yes"/>
			<point x="1456" y="1182"/>
			<point x="1160" y="1430"/>
			<point x="643" y="1430" type="curve" smooth="yes"/>
			<point x="339" y="1430" type="line"/>
			<point x="339" y="1370" type="line"/>
			<point x="586" y="1370" type="line" smooth="yes"/>
			<point x="1017" y="1370"/>
			<point x="1243" y="1156"/>
		</contour>
		<contour>
			<point x="72" y="0" type="line"/>
			<point x="457" y="0" type="line"/>
			<point x="457" y="1430" type="line"/>
			<point x="72" y="1430" type="line"/>
			<point x="72" y="1401" type="line"/>
			<point x="251" y="1360" type="line"/>
			<point x="251" y="71" type="line"/>
			<point x="72" y="29" type="line"/>
		</contour>
	</outline>
</glyph>
<glyph name="dcroat" format="2">
	<unicode hex="0111"/>
	<advance width="1189"/>
	<outline>
		<contour>
			<point x="829" y="771" type="curve" smooth="yes"/>
			<point x="829" y="114" type="line"/>
			<point x="829" y="-26" type="line"/>
			<point x="834" y="-26" type="line"/>
			<point x="1172" y="15" type="line"/>
			<point x="1172" y="37" type="line"/>
			<point x="1130" y="53.9056603774"/>
			<point x="1037" y="91.3396226415"/>
			<point x="1013" y="101" type="curve"/>
			<point x="1013" y="1329" type="line"/>
			<point x="1027" y="1484" type="line"/>
			<point x="1024" y="1484" type="line"/>
			<point x="666" y="1407" type="line"/>
			<point x="666" y="1389" type="line"/>
			<point x="723" y="1363.1226993865"/>
			<point x="805" y="1325.8957055215"/>
			<point x="829" y="1315" type="curve"/>
			<point x="829" y="935" type="line"/>
			<point x="963" y="963" type="line"/>
			<point x="866" y="1019"/>
			<point x="738" y="1044"/>
			<point x="621" y="1044" type="curve" smooth="yes"/>
			<point x="300" y="1044"/>
			<point x="75" y="829"/>
			<point x="75" y="462" type="curve" smooth="yes"/>
			<point x="75" y="173"/>
			<point x="241" y="-20"/>
			<point x="503" y="-20" type="curve" smooth="yes"/>
			<point x="613" y="-20"/>
			<point x="732" y="36"/>
			<point x="899" y="226" type="curve"/>
			<point x="884" y="246" type="line"/>
			<point x="795" y="151"/>
			<point x="700" y="117"/>
			<point x="587" y="117" type="curve" smooth="yes"/>
			<point x="376" y="117"/>
			<point x="271" y="256"/>
			<point x="271" y="542" type="curve" smooth="yes"/>
			<point x="271" y="835"/>
			<point x="383" y="996"/>
			<point x="579" y="996" type="curve" smooth="yes"/>
			<point x="720" y="996"/>
			<point x="829" y="902"/>
		</contour>
		<contour>
			<point x="477" y="1150" type="line"/>
			<point x="1207" y="1150" type="line"/>
			<point x="1207" y="1214" type="line"/>
			<point x="477" y="1214" type="line"/>
		</contour>
	</outline>
</glyph>
<glyph name="Eogonek" format="2">
	<unicode hex="0118"/>
	<advance width="1341"/>
	<outline>
		<contour>
			<point x="926" y="1039" type="line"/>
			<point x="904" y="1039" type="line"/>
			<point x="793" y="786" type="line"/>
			<point x="314" y="758" type="line"/>
			<point x="314" y="735" type="line"/>
			<point x="793" y="711" type="line"/>
			<point x="904" y="455" type="line"/>
			<point x="926" y="455" type="line"/>
			<point x="892" y="746" type="line"/>
		</contour>
		<contour>
			<point x="1236" y="1036" type="line"/>
			<point x="1169" y="1484" type="line"/>
			<point x="1161" y="1484" type="line"/>
			<point x="1028" y="1430" type="line"/>
			<point x="308" y="1430" type="line"/>
			<point x="308" y="1370" type="line"/>
			<point x="1163" y="1370" type="line"/>
			<point x="1010" y="1394" type="line"/>
			<point x="1211" y="1028" type="line"/>
		</contour>
		<contour>
			<point x="1028" y="35" type="line"/>
			<point x="1182" y="60" type="line"/>
			<point x="308" y="60" type="line"/>
			<point x="308" y="0" type="line"/>
			<point x="1050" y="0" type="line"/>
			<point x="1178" y="-54" type="line"/>
			<point x="1186" y="-54" type="line"/>
			<point x="1292" y="395" type="line"/>
			<point x="1267" y="402" type="line"/>
		</contour>
		<contour>
			<point x="68" y="0" type="line"/>
			<point x="453" y="0" type="line"/>
			<point x="453" y="1430" type="line"/>
			<point x="68" y="1430" type="line"/>
			<point x="68" y="1401" type="line"/>
			<point x="247" y="1360" type="line"/>
			<point x="247" y="71" type="line"/>
			<point x="68" y="29" type="line"/>
		</contour>
		<contour>
			<point x="1035" y="-61" type="curve" smooth="yes"/>
			<point x="1136" y="76" type="line"/>
			<point x="1112" y="76" type="line"/>
			<point x="954" y="-97" type="line" smooth="yes"/>
			<point x="835" y="-221"/>
			<point x="811" y="-279"/>
			<point x="811" y="-335" type="curve" smooth="yes"/>
			<point x="811" y="-406"/>
			<point x="855" y="-465"/>
			<point x="955" y="-465" type="curve" smooth="yes"/>
			<point x="1023" y="-465"/>
			<point x="1069" y="-439"/>
			<point x="1159" y="-337" type="curve"/>
			<point x="1148" y="-321" type="line"/>
			<point x="1096" y="-363"/>
			<point x="1061" y="-370"/>
			<point x="1028" y="-370" type="curve" smooth="yes"/>
			<point x="966" y="-370"/>
			<point x="931" y="-335"/>
			<point x="931" y="-281" type="curve" smooth="yes"/>
			<point x="931" y="-232"/>
			<point x="947" y="-178"/>
		</contour>
	</outline>
</glyph>
<glyph name="eogonek" format="2">
	<unicode hex="0119"/>
	<advance width="987"/>
	<outline>
		<contour>
			<point x="940" y="247" type="line"/>
			<point x="924" y="258" type="line"/>
			<point x="857" y="167"/>
			<point x="747" y="123"/>
			<point x="637" y="123" type="curve" smooth="yes"/>
			<point x="399" y="123"/>
			<point x="265" y="260"/>
			<point x="265" y="595" type="curve" smooth="yes"/>
			<point x="265" y="849"/>
			<point x="362" y="995"/>
			<point x="524" y="995" type="curve" smooth="yes"/>
			<point x="644" y="995"/>
			<point x="707" y="897"/>
			<point x="728" y="682" type="curve"/>
			<point x="806" y="722" type="line"/>
			<point x="254" y="722" type="line"/>
			<point x="254" y="664" type="line"/>
			<point x="916" y="664" type="line"/>
			<point x="898" y="912"/>
			<point x="764" y="1044"/>
			<point x="554" y="1044" type="curve" smooth="yes"/>
			<point x="251" y="1044"/>
			<point x="75" y="791"/>
			<point x="75" y="494" type="curve" smooth="yes"/>
			<point x="75" y="158"/>
			<point x="274" y="-20"/>
			<point x="535" y="-20" type="curve" smooth="yes"/>
			<point x="649" y="-20"/>
			<point x="742" y="14"/>
			<point x="831" y="104" type="curve"/>
			<point x="824" y="111" type="line"/>
			<point x="760" y="18" type="line" smooth="yes"/>
			<point x="645" y="-148"/>
			<point x="593" y="-233"/>
			<point x="593" y="-319" type="curve" smooth="yes"/>
			<point x="593" y="-408"/>
			<point x="653" y="-465"/>
			<point x="750" y="-465" type="curve" smooth="yes"/>
			<point x="827" y="-465"/>
			<point x="873" y="-439"/>
			<point x="963" y="-337" type="curve"/>
			<point x="952" y="-321" type="line"/>
			<point x="900" y="-363"/>
			<point x="865" y="-370"/>
			<point x="832" y="-370" type="curve" smooth="yes"/>
			<point x="754" y="-370"/>
			<point x="715" y="-323"/>
			<point x="715" y="-248" type="curve" smooth="yes"/>
			<point x="715" y="-176"/>
			<point x="745" y="-85"/>
			<point x="835" y="68" type="curve" smooth="yes"/>
		</contour>
	</outline>
</glyph>
<glyph name="Hbar" format="2">
	<unicode hex="0126"/>
	<advance width="1653"/>
	<outline>
		<contour>
			<point x="455" y="71" type="line"/>
			<point x="455" y="1360" type="line"/>
			<point x="634" y="1401" type="line"/>
			<point x="634" y="1430" type="line"/>
			<point x="70" y="1430" type="line"/>
			<point x="70" y="1401" type="line"/>
			<point x="249" y="1360" type="line"/>
			<point x="249" y="71" type="line"/>
			<point x="70" y="29" type="line"/>
			<point x="70" y="0" type="line"/>
			<point x="634" y="0" type="line"/>
			<point x="634" y="29" type="line"/>
		</contour>
		<contour>
			<point x="1404" y="71" type="line"/>
			<point x="1404" y="1360" type="line"/>
			<point x="1583" y="1401" type="line"/>
			<point x="1583" y="1430" type="line"/>
			<point x="1019" y="1430" type="line"/>
			<point x="1019" y="1401" type="line"/>
			<point x="1198" y="1360" type="line"/>
			<point x="1198" y="71" type="line"/>
			<point x="1019" y="29" type="line"/>
			<point x="1019" y="0" type="line"/>
			<point x="1583" y="0" type="line"/>
			<point x="1583" y="29" type="line"/>
		</contour>
		<contour>
			<point x="70" y="1056" type="line"/>
			<point x="1583" y="1056" type="line"/>
			<point x="1583" y="1120" type="line"/>
			<point x="70" y="1120" type="line"/>
		</contour>
		<contour>
			<point x="333" y="710" type="line"/>
			<point x="1317" y="710" type="line"/>
			<point x="1317" y="770" type="line"/>
			<point x="333" y="770" type="line"/>
		</contour>
	</outline>
</glyph>
<glyph name="Iogonek" format="2">
	<unicode hex="012E"/>
	<advance width="700"/>
	<outline>
		<contour>
			<point x="632" y="29" type="line"/>
			<point x="453" y="71" type="line"/>
			<point x="453" y="1360" type="line"/>
			<point x="632" y="1401" type="line"/>
			<point x="632" y="1430" type="line"/>
			<point x="68" y="1430" type="line"/>
			<point x="68" y="1401" type="line"/>
			<point x="247" y="1360" type="line"/>
			<point x="247" y="71" type="line"/>
			<point x="68" y="29" type="line"/>
			<point x="68" y="0" type="line"/>
			<point x="632" y="0" type="line"/>
		</contour>
		<contour>
			<point x="360" y="-61" type="curve" smooth="yes"/>
			<point x="414" y="76" type="line"/>
			<point x="390" y="76" type="line"/>
			<point x="289" y="-97" type="line" smooth="yes"/>
			<point x="203" y="-244"/>
			<point x="188" y="-288"/>
			<point x="188" y="-335" type="curve" smooth="yes"/>
			<point x="188" y="-406"/>
			<point x="237" y="-465"/>
			<point x="337" y="-465" type="curve" smooth="yes"/>
			<point x="405" y="-465"/>
			<point x="451" y="-439"/>
			<point x="541" y="-337" type="curve"/>
			<point x="530" y="-321" type="line"/>
			<point x="478" y="-363"/>
			<point x="443" y="-370"/>
			<point x="410" y="-370" type="curve" smooth="yes"/>
			<point x="348" y="-370"/>
			<point x="308" y="-335"/>
			<point x="308" y="-274" type="curve" smooth="yes"/>
			<point x="308" y="-232"/>
			<point x="312" y="-182"/>
		</contour>
	</outline>
</glyph>
<glyph name="iogonek" format="2">
	<unicode hex="012F"/>
	<advance width="553"/>
	<outline>
		<contour>
			<point x="268" y="1202" type="curve" smooth="yes"/>
			<point x="352" y="1202"/>
			<point x="400" y="1270"/>
			<point x="400" y="1341" type="curve" smooth="yes"/>
			<point x="400" y="1411"/>
			<point x="352" y="1471"/>
			<point x="268" y="1471" type="curve" smooth="yes"/>
			<point x="184" y="1471"/>
			<point x="132" y="1411"/>
			<point x="132" y="1341" type="curve" smooth="yes"/>
			<point x="132" y="1270"/>
			<point x="184" y="1202"/>
		</contour>
		<contour>
			<point x="376" y="1055" type="line"/>
			<point x="372" y="1055" type="line"/>
			<point x="49" y="964" type="line"/>
			<point x="49" y="946" type="line"/>
			<point x="110" y="907.6083916084"/>
			<point x="170" y="869.8461538462"/>
			<point x="192" y="856" type="curve"/>
			<point x="192" y="57" type="line"/>
			<point x="49" y="27" type="line"/>
			<point x="49" y="0" type="line"/>
			<point x="519" y="0" type="line"/>
			<point x="519" y="27" type="line"/>
			<point x="376" y="57" type="line"/>
			<point x="376" y="860" type="line"/>
		</contour>
		<contour>
			<point x="276" y="-59" type="curve" smooth="yes"/>
			<point x="336" y="76" type="line"/>
			<point x="312" y="76" type="line"/>
			<point x="204" y="-95" type="line" smooth="yes"/>
			<point x="121" y="-226"/>
			<point x="96" y="-279"/>
			<point x="96" y="-335" type="curve" smooth="yes"/>
			<point x="96" y="-406"/>
			<point x="140" y="-465"/>
			<point x="240" y="-465" type="curve" smooth="yes"/>
			<point x="308" y="-465"/>
			<point x="354" y="-439"/>
			<point x="444" y="-337" type="curve"/>
			<point x="433" y="-321" type="line"/>
			<point x="381" y="-363"/>
			<point x="346" y="-370"/>
			<point x="313" y="-370" type="curve" smooth="yes"/>
			<point x="251" y="-370"/>
			<point x="216" y="-335"/>
			<point x="216" y="-281" type="curve" smooth="yes"/>
			<point x="216" y="-232"/>
			<point x="222" y="-180"/>
		</contour>
	</outline>
</glyph>
<glyph name="dotlessi" format="2">
	<unicode hex="0131"/>
	<advance width="553"/>
	<outline>
		<contour>
			<point x="376" y="1055" type="line"/>
			<point x="372" y="1055" type="line"/>
			<point x="49" y="964" type="line"/>
			<point x="49" y="946" type="line"/>
			<point x="110" y="907.6083916084"/>
			<point x="170" y="869.8461538462"/>
			<point x="192" y="856" type="curve"/>
			<point x="192" y="57" type="line"/>
			<point x="49" y="27" type="line"/>
			<point x="49" y="0" type="line"/>
			<point x="519" y="0" type="line"/>
			<point x="519" y="27" type="line"/>
			<point x="376" y="57" type="line"/>
			<point x="376" y="860" type="line"/>
		</contour>
	</outline>
	<anchor name="top" x="264" y="1024"/>
	<anchor name="right" x="454" y="0"/>
	<anchor name="bottom" x="284" y="0"/>
</glyph>
<glyph name="kgreenlandic" format="2">
	<unicode hex="0138"/>
	<advance width="1152"/>
	<outline>
		<contour>
			<point x="380" y="506" type="line"/>
			<point x="829" y="54" type="line"/>
			<point x="692" y="27" type="line"/>
			<point x="692" y="0" type="line"/>
			<point x="1172" y="0" type="line"/>
			<point x="1172" y="27" type="line"/>
			<point x="1059" y="56" type="line"/>
			<point x="518" y="607" type="line"/>
			<point x="476" y="564" type="line"/>
			<point x="952" y="958" type="line"/>
			<point x="1099" y="991" type="line"/>
			<point x="1099" y="1024" type="line"/>
			<point x="715" y="1024" type="line"/>
			<point x="715" y="991" type="line"/>
			<point x="862" y="960" type="line"/>
			<point x="391" y="552" type="line"/>
			<point x="338" y="552" type="line"/>
			<point x="338" y="506" type="line"/>
		</contour>
		<contour>
			<point x="373" y="1055" type="line"/>
			<point x="369" y="1055" type="line"/>
			<point x="46" y="964" type="line"/>
			<point x="46" y="946" type="line"/>
			<point x="107" y="907.6083916084"/>
			<point x="167" y="869.8461538462"/>
			<point x="189" y="856" type="curve"/>
			<point x="189" y="57" type="line"/>
			<point x="46" y="27" type="line"/>
			<point x="46" y="0" type="line"/>
			<point x="516" y="0" type="line"/>
			<point x="516" y="27" type="line"/>
			<point x="373" y="57" type="line"/>
			<point x="373" y="860" type="line"/>
		</contour>
	</outline>
</glyph>
<glyph name="Lslash" format="2">
  <advance width="1259"/>
  <unicode hex="0141"/>
  <outline>
    <contour>
      <point x="321.0" y="639.0" type="line"/>
      <point x="416.0" y="663.0" type="line"/>
      <point x="808.0" y="875.0" type="line"/>
      <point x="808.0" y="946.0" type="line"/>
      <point x="416.0" y="734.0" type="line"/>
      <point x="321.0" y="711.0" type="line"/>
      <point x="92.0" y="587.0" type="line"/>
      <point x="92.0" y="515.0" type="line"/>
    </contour>
    <contour>
      <point x="1130.0" y="-54.0" type="line"/>
      <point x="1236.0" y="395.0" type="line"/>
      <point x="1211.0" y="402.0" type="line"/>
      <point x="972.0" y="35.0" type="line"/>
      <point x="1126.0" y="60.0" type="line"/>
      <point x="332.0" y="60.0" type="line"/>
      <point x="332.0" y="0.0" type="line"/>
      <point x="994.0" y="0.0" type="line"/>
      <point x="1122.0" y="-54.0" type="line"/>
    </contour>
    <contour>
      <point x="477.0" y="1360.0" type="line"/>
      <point x="656.0" y="1401.0" type="line"/>
      <point x="656.0" y="1430.0" type="line"/>
      <point x="92.0" y="1430.0" type="line"/>
      <point x="92.0" y="1401.0" type="line"/>
      <point x="271.0" y="1360.0" type="line"/>
      <point x="271.0" y="71.0" type="line"/>
      <point x="92.0" y="29.0" type="line"/>
      <point x="92.0" y="0.0" type="line"/>
      <point x="477.0" y="0.0" type="line"/>
    </contour>
  </outline>
</glyph>
<glyph name="lslash" format="2">
  <advance width="597"/>
  <unicode hex="0142"/>
  <outline>
    <contour>
      <point x="266.0" y="652.0" type="line"/>
      <point x="325.0" y="663.0" type="line"/>
      <point x="553.0" y="837.0" type="line"/>
      <point x="553.0" y="919.0" type="line"/>
      <point x="325.0" y="745.0" type="line"/>
      <point x="266.0" y="734.0" type="line"/>
      <point x="51.0" y="571.0" type="line"/>
      <point x="51.0" y="489.0" type="line"/>
    </contour>
    <contour>
      <point x="392.0" y="57.0" type="line"/>
      <point x="392.0" y="1310.0" type="line"/>
      <point x="392.0" y="1484.0" type="line"/>
      <point x="388.0" y="1484.0" type="line"/>
      <point x="45.0" y="1407.0" type="line"/>
      <point x="45.0" y="1389.0" type="line"/>
      <point x="123.0" y="1353.5889570552147"/>
      <point x="182.0" y="1326.803680981595"/>
      <point x="208.0" y="1315.0" type="curve"/>
      <point x="208.0" y="57.0" type="line"/>
      <point x="65.0" y="27.0" type="line"/>
      <point x="65.0" y="0.0" type="line"/>
      <point x="535.0" y="0.0" type="line"/>
      <point x="535.0" y="27.0" type="line"/>
    </contour>
  </outline>
</glyph>
<glyph name="Eng" format="2">
	<unicode hex="014A"/>
	<advance width="1558"/>
	<outline>
		<contour>
			<point x="1309" y="276" type="line"/>
			<point x="460" y="1430" type="line"/>
			<point x="54" y="1430" type="line"/>
			<point x="54" y="1401" type="line"/>
			<point x="253" y="1344" type="line"/>
			<point x="253" y="71" type="line"/>
			<point x="74" y="29" type="line"/>
			<point x="74" y="0" type="line"/>
			<point x="518" y="0" type="line"/>
			<point x="518" y="29" type="line"/>
			<point x="319" y="71" type="line"/>
			<point x="319" y="1360" type="line"/>
			<point x="291" y="1322" type="line"/>
			<point x="1284" y="-20" type="line"/>
		</contour>
		<contour>
			<point x="1322" y="29" type="curve" smooth="yes"/>
			<point x="1322" y="1359" type="line"/>
			<point x="1501" y="1401" type="line"/>
			<point x="1501" y="1430" type="line"/>
			<point x="1057" y="1430" type="line"/>
			<point x="1057" y="1401" type="line"/>
			<point x="1256" y="1359" type="line"/>
			<point x="1256" y="12" type="line" smooth="yes"/>
			<point x="1256" y="-238"/>
			<point x="1157" y="-312"/>
			<point x="1049" y="-312" type="curve" smooth="yes"/>
			<point x="967" y="-312"/>
			<point x="898" y="-255"/>
			<point x="882" y="-255" type="curve" smooth="yes"/>
			<point x="851" y="-255"/>
			<point x="812" y="-284"/>
			<point x="812" y="-340" type="curve" smooth="yes"/>
			<point x="812" y="-403"/>
			<point x="854" y="-465"/>
			<point x="968" y="-465" type="curve" smooth="yes"/>
			<point x="1161" y="-465"/>
			<point x="1322" y="-321"/>
		</contour>
	</outline>
</glyph>
<glyph name="eng" format="2">
	<unicode hex="014B"/>
	<advance width="1151"/>
	<outline>
		<contour>
			<point x="373" y="860" type="line"/>
			<point x="373" y="1055" type="line"/>
			<point x="369" y="1055" type="line"/>
			<point x="46" y="964" type="line"/>
			<point x="46" y="946" type="line"/>
			<point x="137" y="888.7272727273"/>
			<point x="167" y="869.8461538462"/>
			<point x="189" y="856" type="curve"/>
			<point x="189" y="57" type="line"/>
			<point x="46" y="27" type="line"/>
			<point x="46" y="0" type="line"/>
			<point x="516" y="0" type="line"/>
			<point x="516" y="27" type="line"/>
			<point x="373" y="57" type="line"/>
		</contour>
		<contour>
			<point x="837" y="12" type="line" smooth="yes"/>
			<point x="837" y="-217"/>
			<point x="833" y="-244"/>
			<point x="658" y="-446" type="curve"/>
			<point x="679" y="-465" type="line"/>
			<point x="1009" y="-176"/>
			<point x="1021" y="-140"/>
			<point x="1021" y="64" type="curve" smooth="yes"/>
			<point x="1021" y="717" type="line" smooth="yes"/>
			<point x="1021" y="944"/>
			<point x="940" y="1044"/>
			<point x="744" y="1044" type="curve" smooth="yes"/>
			<point x="625" y="1044"/>
			<point x="545" y="1012"/>
			<point x="336" y="857" type="curve"/>
			<point x="349" y="836" type="line"/>
			<point x="411" y="866"/>
			<point x="513" y="902"/>
			<point x="618" y="902" type="curve" smooth="yes"/>
			<point x="769" y="902"/>
			<point x="837" y="834"/>
			<point x="837" y="700" type="curve" smooth="yes"/>
		</contour>
	</outline>
</glyph>
<glyph name="OE" format="2">
	<unicode hex="0152"/>
	<advance width="2188"/>
	<outline>
		<contour>
			<point x="1773" y="1039" type="line"/>
			<point x="1751" y="1039" type="line"/>
			<point x="1640" y="786" type="line"/>
			<point x="1161" y="758" type="line"/>
			<point x="1161" y="735" type="line"/>
			<point x="1640" y="711" type="line"/>
			<point x="1751" y="455" type="line"/>
			<point x="1773" y="455" type="line"/>
			<point x="1739" y="746" type="line"/>
		</contour>
		<contour>
			<point x="1094" y="1430" type="line"/>
			<point x="1094" y="0" type="line"/>
			<point x="1300" y="0" type="line"/>
			<point x="1300" y="1430" type="line"/>
		</contour>
		<contour>
			<point x="908" y="0" type="curve" smooth="yes"/>
			<point x="1897" y="0" type="line"/>
			<point x="2025" y="-54" type="line"/>
			<point x="2033" y="-54" type="line"/>
			<point x="2139" y="395" type="line"/>
			<point x="2114" y="402" type="line"/>
			<point x="1875" y="35" type="line"/>
			<point x="2029" y="60" type="line"/>
			<point x="965" y="60" type="line" smooth="yes"/>
			<point x="534" y="60"/>
			<point x="308" y="274"/>
			<point x="308" y="703" type="curve" smooth="yes"/>
			<point x="308" y="1181"/>
			<point x="537" y="1370"/>
			<point x="929" y="1370" type="curve" smooth="yes"/>
			<point x="2010" y="1370" type="line"/>
			<point x="1857" y="1394" type="line"/>
			<point x="2058" y="1028" type="line"/>
			<point x="2083" y="1036" type="line"/>
			<point x="2016" y="1484" type="line"/>
			<point x="2008" y="1484" type="line"/>
			<point x="1875" y="1430" type="line"/>
			<point x="894" y="1430" type="line" smooth="yes"/>
			<point x="439" y="1430"/>
			<point x="95" y="1177"/>
			<point x="95" y="682" type="curve" smooth="yes"/>
			<point x="95" y="248"/>
			<point x="391" y="0"/>
		</contour>
	</outline>
</glyph>
<glyph name="oe" format="2">
	<unicode hex="0153"/>
	<advance width="1784"/>
	<outline>
		<contour>
			<point x="566" y="24" type="curve"/>
			<point x="376" y="24"/>
			<point x="276" y="192"/>
			<point x="276" y="513" type="curve" smooth="yes"/>
			<point x="276" y="833"/>
			<point x="378" y="1000"/>
			<point x="572" y="1000" type="curve"/>
			<point x="762" y="1000"/>
			<point x="862" y="832"/>
			<point x="862" y="511" type="curve" smooth="yes"/>
			<point x="862" y="191"/>
			<point x="760" y="24"/>
		</contour>
		<contour>
			<point x="1005" y="252" type="curve"/>
			<point x="916" y="252" type="line"/>
			<point x="988" y="73"/>
			<point x="1144" y="-20"/>
			<point x="1333" y="-20" type="curve" smooth="yes"/>
			<point x="1494" y="-20"/>
			<point x="1614" y="48"/>
			<point x="1738" y="247" type="curve"/>
			<point x="1722" y="258" type="line"/>
			<point x="1655" y="167"/>
			<point x="1545" y="123"/>
			<point x="1435" y="123" type="curve" smooth="yes"/>
			<point x="1197" y="123"/>
			<point x="1063" y="260"/>
			<point x="1063" y="595" type="curve" smooth="yes"/>
			<point x="1063" y="849"/>
			<point x="1160" y="995"/>
			<point x="1322" y="995" type="curve" smooth="yes"/>
			<point x="1442" y="995"/>
			<point x="1505" y="897"/>
			<point x="1526" y="682" type="curve"/>
			<point x="1604" y="722" type="line"/>
			<point x="1052" y="722" type="line"/>
			<point x="1052" y="664" type="line"/>
			<point x="1714" y="664" type="line"/>
			<point x="1696" y="912"/>
			<point x="1562" y="1044"/>
			<point x="1352" y="1044" type="curve" smooth="yes"/>
			<point x="1154" y="1044"/>
			<point x="1011" y="936"/>
			<point x="935" y="779" type="curve"/>
			<point x="1004" y="779" type="line"/>
			<point x="922" y="942"/>
			<point x="763" y="1044"/>
			<point x="574" y="1044" type="curve" smooth="yes"/>
			<point x="296" y="1044"/>
			<point x="73" y="825"/>
			<point x="73" y="513" type="curve" smooth="yes"/>
			<point x="73" y="201"/>
			<point x="292" y="-20"/>
			<point x="564" y="-20" type="curve" smooth="yes"/>
			<point x="752" y="-20"/>
			<point x="919" y="84"/>
		</contour>
	</outline>
	<anchor name="top" x="963" y="1024"/>
	<anchor name="bottom" x="963" y="0"/>
</glyph>
<glyph name="Scedilla" format="2">
	<unicode hex="015E"/>
	<advance width="1122"/>
	<outline>
		<contour>
			<point x="919" y="1363" type="line"/>
			<point x="809" y="1424"/>
			<point x="709" y="1451"/>
			<point x="583" y="1451" type="curve" smooth="yes"/>
			<point x="306" y="1451"/>
			<point x="131" y="1303"/>
			<point x="131" y="1066" type="curve" smooth="yes"/>
			<point x="131" y="848"/>
			<point x="290" y="770"/>
			<point x="476" y="699" type="curve" smooth="yes"/>
			<point x="662" y="628"/>
			<point x="880" y="570"/>
			<point x="880" y="334" type="curve" smooth="yes"/>
			<point x="880" y="134"/>
			<point x="739" y="20"/>
			<point x="502" y="20" type="curve" smooth="yes"/>
			<point x="402" y="20"/>
			<point x="322" y="59"/>
			<point x="211" y="124" type="curve"/>
			<point x="364" y="20" type="line"/>
			<point x="110" y="423" type="line"/>
			<point x="81" y="423" type="line"/>
			<point x="167" y="43" type="line"/>
			<point x="279" y="-4"/>
			<point x="375" y="-21"/>
			<point x="511" y="-21" type="curve" smooth="yes"/>
			<point x="792" y="-21"/>
			<point x="1023" y="161"/>
			<point x="1023" y="424" type="curve" smooth="yes"/>
			<point x="1023" y="716"/>
			<point x="817" y="803"/>
			<point x="628" y="869" type="curve" smooth="yes"/>
			<point x="439" y="935"/>
			<point x="263" y="983"/>
			<point x="263" y="1171" type="curve" smooth="yes"/>
			<point x="263" y="1308"/>
			<point x="343" y="1399"/>
			<point x="518" y="1399" type="curve" smooth="yes"/>
			<point x="634" y="1399"/>
			<point x="743" y="1346"/>
			<point x="824" y="1274" type="curve"/>
			<point x="770" y="1343" type="line"/>
			<point x="950" y="1018" type="line"/>
			<point x="974" y="1022" type="line"/>
			<point x="915" y="1484" type="line"/>
			<point x="898" y="1484" type="line"/>
			<point x="792" y="1392" type="line"/>
		</contour>
		<contour>
			<point x="453" y="-465" type="curve" smooth="yes"/>
			<point x="589" y="-465"/>
			<point x="707" y="-383"/>
			<point x="707" y="-270" type="curve" smooth="yes"/>
			<point x="707" y="-206"/>
			<point x="670" y="-146"/>
			<point x="493" y="-98" type="curve"/>
			<point x="468" y="-168" type="line"/>
			<point x="606" y="21" type="line"/>
			<point x="564" y="21" type="line"/>
			<point x="404" y="-197" type="line"/>
			<point x="404" y="-202" type="line"/>
			<point x="572" y="-240"/>
			<point x="608" y="-286"/>
			<point x="608" y="-335" type="curve" smooth="yes"/>
			<point x="608" y="-387"/>
			<point x="564" y="-423"/>
			<point x="511" y="-423" type="curve" smooth="yes"/>
			<point x="442" y="-423"/>
			<point x="392" y="-347"/>
			<point x="376" y="-347" type="curve" smooth="yes"/>
			<point x="347" y="-347"/>
			<point x="332" y="-371"/>
			<point x="332" y="-396" type="curve" smooth="yes"/>
			<point x="332" y="-435"/>
			<point x="364" y="-465"/>
		</contour>
	</outline>
</glyph>
<glyph name="scedilla" format="2">
	<unicode hex="015F"/>
	<advance width="838"/>
	<outline>
		<contour>
			<point x="464" y="1044" type="curve" smooth="yes"/>
			<point x="276" y="1044"/>
			<point x="112" y="946"/>
			<point x="112" y="768" type="curve" smooth="yes"/>
			<point x="112" y="635"/>
			<point x="170" y="538"/>
			<point x="364" y="465" type="curve" smooth="yes"/>
			<point x="558" y="392"/>
			<point x="613" y="326"/>
			<point x="613" y="225" type="curve" smooth="yes"/>
			<point x="613" y="91"/>
			<point x="505" y="26"/>
			<point x="393" y="26" type="curve" smooth="yes"/>
			<point x="330" y="26"/>
			<point x="270" y="45"/>
			<point x="218" y="83" type="curve"/>
			<point x="268" y="30" type="line"/>
			<point x="102" y="355" type="line"/>
			<point x="67" y="355" type="line"/>
			<point x="124" y="40" type="line"/>
			<point x="198" y="0"/>
			<point x="276" y="-20"/>
			<point x="378" y="-20" type="curve" smooth="yes"/>
			<point x="583" y="-20"/>
			<point x="758" y="111"/>
			<point x="758" y="301" type="curve" smooth="yes"/>
			<point x="758" y="439"/>
			<point x="703" y="542"/>
			<point x="494" y="623" type="curve" smooth="yes"/>
			<point x="284" y="704"/>
			<point x="256" y="762"/>
			<point x="256" y="844" type="curve" smooth="yes"/>
			<point x="256" y="945"/>
			<point x="323" y="1000"/>
			<point x="439" y="1000" type="curve" smooth="yes"/>
			<point x="526" y="1000"/>
			<point x="577" y="972"/>
			<point x="649" y="895" type="curve"/>
			<point x="571" y="985" type="line"/>
			<point x="700" y="712" type="line"/>
			<point x="731" y="712" type="line"/>
			<point x="700" y="986" type="line"/>
			<point x="622" y="1024"/>
			<point x="555" y="1044"/>
		</contour>
		<contour>
			<point x="313" y="-465" type="curve" smooth="yes"/>
			<point x="449" y="-465"/>
			<point x="567" y="-383"/>
			<point x="567" y="-270" type="curve" smooth="yes"/>
			<point x="567" y="-206"/>
			<point x="530" y="-146"/>
			<point x="353" y="-98" type="curve"/>
			<point x="328" y="-168" type="line"/>
			<point x="466" y="21" type="line"/>
			<point x="424" y="21" type="line"/>
			<point x="264" y="-197" type="line"/>
			<point x="264" y="-202" type="line"/>
			<point x="432" y="-240"/>
			<point x="468" y="-286"/>
			<point x="468" y="-335" type="curve" smooth="yes"/>
			<point x="468" y="-387"/>
			<point x="424" y="-423"/>
			<point x="371" y="-423" type="curve" smooth="yes"/>
			<point x="302" y="-423"/>
			<point x="252" y="-347"/>
			<point x="236" y="-347" type="curve" smooth="yes"/>
			<point x="207" y="-347"/>
			<point x="192" y="-371"/>
			<point x="192" y="-396" type="curve" smooth="yes"/>
			<point x="192" y="-435"/>
			<point x="224" y="-465"/>
		</contour>
	</outline>
</glyph>
<glyph name="uni0162" format="2">
	<unicode hex="0162"/>
	<advance width="1442"/>
	<outline>
		<contour>
			<point x="618" y="1400" type="line"/>
			<point x="618" y="71" type="line"/>
			<point x="439" y="29" type="line"/>
			<point x="439" y="0" type="line"/>
			<point x="1003" y="0" type="line"/>
			<point x="1003" y="29" type="line"/>
			<point x="824" y="71" type="line"/>
			<point x="824" y="1400" type="line"/>
		</contour>
		<contour>
			<point x="1286" y="1370" type="line"/>
			<point x="1173" y="1389" type="line"/>
			<point x="1371" y="988" type="line"/>
			<point x="1400" y="995" type="line"/>
			<point x="1337" y="1503" type="line"/>
			<point x="1319" y="1503" type="line"/>
			<point x="1172" y="1414" type="line"/>
			<point x="1262" y="1430" type="line"/>
			<point x="180" y="1430" type="line"/>
			<point x="270" y="1414" type="line"/>
			<point x="123" y="1503" type="line"/>
			<point x="105" y="1503" type="line"/>
			<point x="42" y="995" type="line"/>
			<point x="71" y="988" type="line"/>
			<point x="269" y="1389" type="line"/>
			<point x="156" y="1370" type="line"/>
		</contour>
		<contour>
			<point x="622" y="-465" type="curve" smooth="yes"/>
			<point x="758" y="-465"/>
			<point x="876" y="-383"/>
			<point x="876" y="-270" type="curve" smooth="yes"/>
			<point x="876" y="-206"/>
			<point x="839" y="-146"/>
			<point x="662" y="-98" type="curve"/>
			<point x="637" y="-168" type="line"/>
			<point x="775" y="21" type="line"/>
			<point x="733" y="21" type="line"/>
			<point x="573" y="-197" type="line"/>
			<point x="573" y="-202" type="line"/>
			<point x="741" y="-240"/>
			<point x="777" y="-286"/>
			<point x="777" y="-335" type="curve" smooth="yes"/>
			<point x="777" y="-387"/>
			<point x="733" y="-423"/>
			<point x="680" y="-423" type="curve" smooth="yes"/>
			<point x="611" y="-423"/>
			<point x="561" y="-347"/>
			<point x="545" y="-347" type="curve" smooth="yes"/>
			<point x="516" y="-347"/>
			<point x="501" y="-371"/>
			<point x="501" y="-396" type="curve" smooth="yes"/>
			<point x="501" y="-435"/>
			<point x="533" y="-465"/>
		</contour>
	</outline>
</glyph>
<glyph name="uni0163" format="2">
	<unicode hex="0163"/>
	<advance width="723"/>
	<outline>
		<contour>
			<point x="351" y="262" type="curve"/>
			<point x="351" y="988" type="line"/>
			<point x="351" y="1184" type="line"/>
			<point x="342" y="1184" type="line"/>
			<point x="191" y="1086"/>
			<point x="73.8979591837" y="1010"/>
			<point x="40" y="988" type="curve"/>
			<point x="40" y="974" type="line"/>
			<point x="167" y="896" type="line"/>
			<point x="167" y="238" type="line" smooth="yes"/>
			<point x="167" y="52"/>
			<point x="275" y="-21"/>
			<point x="389" y="-21" type="curve" smooth="yes"/>
			<point x="478" y="-21"/>
			<point x="538" y="10"/>
			<point x="724" y="120" type="curve"/>
			<point x="724" y="148" type="line"/>
			<point x="638" y="122"/>
			<point x="578" y="113"/>
			<point x="520" y="113" type="curve" smooth="yes"/>
			<point x="418" y="113"/>
			<point x="351" y="163"/>
		</contour>
		<contour>
			<point x="289" y="916" type="line"/>
			<point x="680" y="916" type="line"/>
			<point x="696" y="1024" type="line"/>
			<point x="289" y="1024" type="line"/>
		</contour>
		<contour>
			<point x="313" y="-465" type="curve" smooth="yes"/>
			<point x="449" y="-465"/>
			<point x="567" y="-383"/>
			<point x="567" y="-270" type="curve" smooth="yes"/>
			<point x="567" y="-206"/>
			<point x="530" y="-146"/>
			<point x="353" y="-98" type="curve"/>
			<point x="328" y="-168" type="line"/>
			<point x="466" y="21" type="line"/>
			<point x="424" y="21" type="line"/>
			<point x="264" y="-197" type="line"/>
			<point x="264" y="-202" type="line"/>
			<point x="432" y="-240"/>
			<point x="468" y="-286"/>
			<point x="468" y="-335" type="curve" smooth="yes"/>
			<point x="468" y="-387"/>
			<point x="424" y="-423"/>
			<point x="371" y="-423" type="curve" smooth="yes"/>
			<point x="302" y="-423"/>
			<point x="252" y="-347"/>
			<point x="236" y="-347" type="curve" smooth="yes"/>
			<point x="207" y="-347"/>
			<point x="192" y="-371"/>
			<point x="192" y="-396" type="curve" smooth="yes"/>
			<point x="192" y="-435"/>
			<point x="224" y="-465"/>
		</contour>
	</outline>
</glyph>
<glyph name="tbar" format="2">
	<unicode hex="0167"/>
	<advance width="727"/>
	<outline>
		<contour>
			<point x="43" y="529" type="line"/>
			<point x="643" y="529" type="line"/>
			<point x="643" y="593" type="line"/>
			<point x="43" y="593" type="line"/>
		</contour>
		<contour>
			<point x="353" y="262" type="curve"/>
			<point x="353" y="988" type="line"/>
			<point x="353" y="1184" type="line"/>
			<point x="344" y="1184" type="line"/>
			<point x="193" y="1086"/>
			<point x="75.8979591837" y="1010"/>
			<point x="42" y="988" type="curve"/>
			<point x="42" y="974" type="line"/>
			<point x="169" y="896" type="line"/>
			<point x="169" y="238" type="line" smooth="yes"/>
			<point x="169" y="52"/>
			<point x="277" y="-21"/>
			<point x="391" y="-21" type="curve" smooth="yes"/>
			<point x="480" y="-21"/>
			<point x="540" y="10"/>
			<point x="726" y="120" type="curve"/>
			<point x="726" y="148" type="line"/>
			<point x="640" y="122"/>
			<point x="580" y="113"/>
			<point x="522" y="113" type="curve" smooth="yes"/>
			<point x="420" y="113"/>
			<point x="353" y="163"/>
		</contour>
		<contour>
			<point x="291" y="916" type="line"/>
			<point x="682" y="916" type="line"/>
			<point x="698" y="1024" type="line"/>
			<point x="291" y="1024" type="line"/>
		</contour>
	</outline>
</glyph>
<glyph name="Uogonek" format="2">
	<unicode hex="0172"/>
	<advance width="1578"/>
	<outline>
		<contour>
			<point x="1296" y="560" type="line" smooth="yes"/>
			<point x="1296" y="248"/>
			<point x="1141" y="98"/>
			<point x="858" y="98" type="curve" smooth="yes"/>
			<point x="564" y="98"/>
			<point x="418" y="249"/>
			<point x="418" y="560" type="curve" smooth="yes"/>
			<point x="418" y="1360" type="line"/>
			<point x="597" y="1401" type="line"/>
			<point x="597" y="1430" type="line"/>
			<point x="33" y="1430" type="line"/>
			<point x="33" y="1401" type="line"/>
			<point x="212" y="1360" type="line"/>
			<point x="212" y="580" type="line" smooth="yes"/>
			<point x="212" y="185"/>
			<point x="421" y="-20"/>
			<point x="797" y="-20" type="curve" smooth="yes"/>
			<point x="1157" y="-20"/>
			<point x="1362" y="184"/>
			<point x="1362" y="543" type="curve" smooth="yes"/>
			<point x="1362" y="1359" type="line"/>
			<point x="1541" y="1401" type="line"/>
			<point x="1541" y="1430" type="line"/>
			<point x="1097" y="1430" type="line"/>
			<point x="1097" y="1401" type="line"/>
			<point x="1296" y="1359" type="line"/>
		</contour>
		<contour>
			<point x="880" y="-61" type="curve" smooth="yes"/>
			<point x="981" y="76" type="line"/>
			<point x="957" y="76" type="line"/>
			<point x="799" y="-97" type="line" smooth="yes"/>
			<point x="680" y="-221"/>
			<point x="656" y="-279"/>
			<point x="656" y="-335" type="curve" smooth="yes"/>
			<point x="656" y="-406"/>
			<point x="700" y="-465"/>
			<point x="800" y="-465" type="curve" smooth="yes"/>
			<point x="868" y="-465"/>
			<point x="914" y="-439"/>
			<point x="1004" y="-337" type="curve"/>
			<point x="993" y="-321" type="line"/>
			<point x="941" y="-363"/>
			<point x="906" y="-370"/>
			<point x="873" y="-370" type="curve" smooth="yes"/>
			<point x="811" y="-370"/>
			<point x="776" y="-335"/>
			<point x="776" y="-281" type="curve" smooth="yes"/>
			<point x="776" y="-232"/>
			<point x="792" y="-178"/>
		</contour>
	</outline>
</glyph>
<glyph name="uogonek" format="2">
	<unicode hex="0173"/>
	<advance width="1153"/>
	<outline>
		<contour>
			<point x="354" y="315" type="curve"/>
			<point x="354" y="943" type="line"/>
			<point x="364" y="1032" type="line"/>
			<point x="-8" y="1014" type="line"/>
			<point x="-8" y="975" type="line"/>
			<point x="170" y="943" type="line"/>
			<point x="170" y="308" type="line"/>
			<point x="170" y="81"/>
			<point x="252" y="-20"/>
			<point x="446" y="-20" type="curve" smooth="yes"/>
			<point x="566" y="-20"/>
			<point x="645" y="12"/>
			<point x="855" y="168" type="curve"/>
			<point x="839" y="190" type="line"/>
			<point x="777" y="151"/>
			<point x="678" y="113"/>
			<point x="573" y="113" type="curve" smooth="yes"/>
			<point x="422" y="113"/>
			<point x="354" y="181"/>
		</contour>
		<contour>
			<point x="792" y="-26" type="line"/>
			<point x="797" y="-26" type="line"/>
			<point x="1135" y="15" type="line"/>
			<point x="1135" y="37" type="line"/>
			<point x="1093" y="53.9056603774"/>
			<point x="1000" y="91.3396226415"/>
			<point x="976" y="101" type="curve"/>
			<point x="976" y="943" type="line"/>
			<point x="986" y="1032" type="line"/>
			<point x="614" y="1014" type="line"/>
			<point x="614" y="975" type="line"/>
			<point x="792" y="943" type="line"/>
			<point x="792" y="164" type="line"/>
		</contour>
		<contour>
			<point x="815" y="-61" type="curve" smooth="yes"/>
			<point x="869" y="76" type="line"/>
			<point x="845" y="76" type="line"/>
			<point x="743" y="-97" type="line" smooth="yes"/>
			<point x="667" y="-227"/>
			<point x="640" y="-279"/>
			<point x="640" y="-335" type="curve" smooth="yes"/>
			<point x="640" y="-406"/>
			<point x="684" y="-465"/>
			<point x="784" y="-465" type="curve" smooth="yes"/>
			<point x="852" y="-465"/>
			<point x="898" y="-439"/>
			<point x="988" y="-337" type="curve"/>
			<point x="977" y="-321" type="line"/>
			<point x="925" y="-363"/>
			<point x="890" y="-370"/>
			<point x="857" y="-370" type="curve" smooth="yes"/>
			<point x="795" y="-370"/>
			<point x="760" y="-335"/>
			<point x="760" y="-281" type="curve" smooth="yes"/>
			<point x="760" y="-232"/>
			<point x="767" y="-182"/>
		</contour>
	</outline>
</glyph>
<glyph name="uni018F" format="2">
	<unicode hex="018F"/>
	<advance width="1479"/>
	<outline>
		<contour>
			<point x="223" y="488" type="line"/>
			<point x="1220" y="488" type="line"/>
			<point x="1220" y="548" type="line"/>
			<point x="98" y="548" type="line"/>
			<point x="118" y="215"/>
			<point x="302" y="-20"/>
			<point x="681" y="-20" type="curve" smooth="yes"/>
			<point x="1116" y="-21"/>
			<point x="1383" y="331"/>
			<point x="1383" y="731" type="curve" smooth="yes"/>
			<point x="1383" y="1203"/>
			<point x="1134" y="1450"/>
			<point x="713" y="1450" type="curve" smooth="yes"/>
			<point x="463" y="1450"/>
			<point x="272" y="1342"/>
			<point x="61" y="1062" type="curve"/>
			<point x="83" y="1042" type="line"/>
			<point x="267" y="1226"/>
			<point x="422" y="1309"/>
			<point x="655" y="1309" type="curve" smooth="yes"/>
			<point x="996" y="1309"/>
			<point x="1201" y="1081"/>
			<point x="1201" y="643" type="curve" smooth="yes"/>
			<point x="1201" y="253"/>
			<point x="1014" y="29"/>
			<point x="702" y="29" type="curve" smooth="yes"/>
			<point x="467" y="29"/>
			<point x="321" y="204"/>
			<point x="298" y="533" type="curve"/>
		</contour>
	</outline>
</glyph>
<glyph name="Ohorn" format="2">
	<unicode hex="01A0"/>
	<advance width="1595"/>
	<outline>
		<contour>
			<point x="808" y="28" type="curve" smooth="yes"/>
			<point x="512" y="28"/>
			<point x="304" y="290"/>
			<point x="304" y="747" type="curve" smooth="yes"/>
			<point x="304" y="1149"/>
			<point x="489" y="1403"/>
			<point x="791" y="1403" type="curve" smooth="yes"/>
			<point x="1085" y="1403"/>
			<point x="1294" y="1140"/>
			<point x="1294" y="683" type="curve" smooth="yes"/>
			<point x="1294" y="282"/>
			<point x="1109" y="28"/>
		</contour>
		<contour>
			<point x="799" y="1450" type="curve" smooth="yes"/>
			<point x="389" y="1450"/>
			<point x="94" y="1144"/>
			<point x="94" y="714" type="curve" smooth="yes"/>
			<point x="94" y="283"/>
			<point x="390" y="-20"/>
			<point x="802" y="-20" type="curve" smooth="yes"/>
			<point x="1210" y="-20"/>
			<point x="1505" y="286"/>
			<point x="1505" y="718" type="curve" smooth="yes"/>
			<point x="1505" y="1015"/>
			<point x="1361" y="1266"/>
			<point x="1111" y="1383" type="curve"/>
			<point x="1111" y="1371" type="line"/>
			<point x="1356" y="1351"/>
			<point x="1481" y="1459"/>
			<point x="1481" y="1616" type="curve" smooth="yes"/>
			<point x="1481" y="1695"/>
			<point x="1443" y="1741"/>
			<point x="1376" y="1741" type="curve" smooth="yes"/>
			<point x="1320" y="1741"/>
			<point x="1287" y="1705"/>
			<point x="1287" y="1674" type="curve" smooth="yes"/>
			<point x="1287" y="1662"/>
			<point x="1335" y="1617"/>
			<point x="1335" y="1549" type="curve" smooth="yes"/>
			<point x="1335" y="1475"/>
			<point x="1282" y="1415"/>
			<point x="1140" y="1415" type="curve" smooth="yes"/>
			<point x="1032" y="1415"/>
			<point x="951" y="1450"/>
		</contour>
	</outline>
	<anchor name="UCtop" x="800" y="1430"/>
	<anchor name="bottom" x="800" y="0"/>
</glyph>
<glyph name="ohorn" format="2">
	<unicode hex="01A1"/>
	<advance width="1130"/>
	<outline>
		<contour>
			<point x="566" y="24" type="curve" smooth="yes"/>
			<point x="376" y="24"/>
			<point x="276" y="192"/>
			<point x="276" y="513" type="curve" smooth="yes"/>
			<point x="276" y="833"/>
			<point x="378" y="1000"/>
			<point x="572" y="1000" type="curve" smooth="yes"/>
			<point x="762" y="1000"/>
			<point x="862" y="832"/>
			<point x="862" y="511" type="curve" smooth="yes"/>
			<point x="862" y="191"/>
			<point x="760" y="24"/>
		</contour>
		<contour>
			<point x="1079" y="1208" type="curve" smooth="yes"/>
			<point x="1079" y="1287"/>
			<point x="1041" y="1333"/>
			<point x="974" y="1333" type="curve" smooth="yes"/>
			<point x="918" y="1333"/>
			<point x="885" y="1297"/>
			<point x="885" y="1266" type="curve" smooth="yes"/>
			<point x="885" y="1254"/>
			<point x="933" y="1209"/>
			<point x="933" y="1141" type="curve" smooth="yes"/>
			<point x="933" y="1071"/>
			<point x="884" y="1019"/>
			<point x="787" y="1019" type="curve" smooth="yes"/>
			<point x="725" y="1019"/>
			<point x="673" y="1044"/>
			<point x="574" y="1044" type="curve" smooth="yes"/>
			<point x="296" y="1044"/>
			<point x="73" y="825"/>
			<point x="73" y="513" type="curve" smooth="yes"/>
			<point x="73" y="201"/>
			<point x="292" y="-20"/>
			<point x="564" y="-20" type="curve" smooth="yes"/>
			<point x="836" y="-20"/>
			<point x="1065" y="198"/>
			<point x="1065" y="511" type="curve" smooth="yes"/>
			<point x="1065" y="725"/>
			<point x="967" y="903"/>
			<point x="792" y="993" type="curve"/>
			<point x="792" y="983" type="line"/>
			<point x="975" y="971"/>
			<point x="1079" y="1067"/>
		</contour>
	</outline>
	<anchor name="top" x="575" y="1024"/>
	<anchor name="bottom" x="575" y="0"/>
</glyph>
<glyph name="Uhorn" format="2">
	<unicode hex="01AF"/>
	<advance width="1567"/>
	<outline>
		<contour>
			<point x="1584" y="1549" type="curve" smooth="yes"/>
			<point x="1584" y="1480"/>
			<point x="1536" y="1430"/>
			<point x="1402" y="1430" type="curve" smooth="yes"/>
			<point x="1097" y="1430" type="line"/>
			<point x="1097" y="1401" type="line"/>
			<point x="1296" y="1359" type="line"/>
			<point x="1296" y="560" type="line" smooth="yes"/>
			<point x="1296" y="248"/>
			<point x="1141" y="98"/>
			<point x="858" y="98" type="curve" smooth="yes"/>
			<point x="564" y="98"/>
			<point x="418" y="249"/>
			<point x="418" y="560" type="curve" smooth="yes"/>
			<point x="418" y="1360" type="line"/>
			<point x="597" y="1401" type="line"/>
			<point x="597" y="1430" type="line"/>
			<point x="33" y="1430" type="line"/>
			<point x="33" y="1401" type="line"/>
			<point x="212" y="1360" type="line"/>
			<point x="212" y="580" type="line" smooth="yes"/>
			<point x="212" y="185"/>
			<point x="421" y="-20"/>
			<point x="797" y="-20" type="curve" smooth="yes"/>
			<point x="1157" y="-20"/>
			<point x="1362" y="184"/>
			<point x="1362" y="543" type="curve" smooth="yes"/>
			<point x="1362" y="1359" type="line"/>
			<point x="1650" y="1378"/>
			<point x="1730" y="1475"/>
			<point x="1730" y="1616" type="curve" smooth="yes"/>
			<point x="1730" y="1695"/>
			<point x="1692" y="1741"/>
			<point x="1625" y="1741" type="curve" smooth="yes"/>
			<point x="1569" y="1741"/>
			<point x="1536" y="1705"/>
			<point x="1536" y="1674" type="curve" smooth="yes"/>
			<point x="1536" y="1662"/>
			<point x="1584" y="1617"/>
		</contour>
	</outline>
	<anchor name="UCtop" x="837" y="1430"/>
	<anchor name="bottom" x="837" y="0"/>
</glyph>
